SplineFontDB: 3.2
FontName: hindi8binary
FullName: hindi8binary
FamilyName: hindi8binary
Weight: regular
Copyright: vimal kumar ne 8bit h810_hindi likhne ke liye or abc me transliterate ke liye sare glyphs ko ascii table me ABCabc ki zgH shift kiya or HinDi font ka nam uze kiya h.\ncopyright (c) 2003 by Muthu Nedumaran. All rights reserved.
Version: 1.0000
ItalicAngle: 0
UnderlinePosition: -205
UnderlineWidth: 102
Ascent: 1638
Descent: 410
InvalidEm: 0
sfntRevision: 0x00010000
LayerCount: 2
Layer: 0 1 "Back" 1
Layer: 1 1 "Fore" 0
XUID: [1021 467 -1121320856 8239541]
StyleMap: 0x0020
FSType: 0
OS2Version: 3
OS2_WeightWidthSlopeOnly: 0
OS2_UseTypoMetrics: 0
CreationTime: 1261065660
ModificationTime: 1638148069
PfmFamily: 17
TTFWeight: 700
TTFWidth: 5
LineGap: 240
VLineGap: 0
Panose: 2 0 0 0 0 0 0 0 0 0
OS2TypoAscent: 1664
OS2TypoAOffset: 0
OS2TypoDescent: -768
OS2TypoDOffset: 0
OS2TypoLinegap: 240
OS2WinAscent: 1664
OS2WinAOffset: 0
OS2WinDescent: 768
OS2WinDOffset: 0
HheadAscent: 1664
HheadAOffset: 0
HheadDescent: -768
HheadDOffset: 0
OS2SubXSize: 1433
OS2SubYSize: 1331
OS2SubXOff: 0
OS2SubYOff: 286
OS2SupXSize: 1433
OS2SupYSize: 1331
OS2SupXOff: 0
OS2SupYOff: 976
OS2StrikeYSize: 102
OS2StrikeYPos: 512
OS2CapHeight: 1356
OS2XHeight: 1118
OS2Vendor: 'MUTF'
OS2CodePages: 00000001.00000000
OS2UnicodeRanges: 80008003.00002040.00000000.00000000
Lookup: 4 0 0 "<27,0> Canonical Decomposition in Devanagari lookup 0" { "<27,0> Canonical Decomposition in Devanagari lookup 0 subtable"  } [<27,0> ('deva' <'dflt' > ) ]
Lookup: 1 0 0 "<17,16> Show Invisibles lookup 1" { "<17,16> Show Invisibles lookup 1 subtable"  } [<17,16> ('DFLT' <'dflt' > 'deva' <'dflt' > 'latn' <'dflt' > ) ]
Lookup: 254 0 0 "<5,0> Linguistic Rearrangement in Devanagari lookup 2" { "<5,0> Linguistic Rearrangement in Devanagari lookup 2 subtable"  } [<5,0> ('DFLT' <'dflt' > 'deva' <'dflt' > ) ]

StartChar: percent
Encoding: 37 37 2
Width: 1539
Flags: W
LayerCount: 2
Fore
SplineSet
303 0 m 1,0,-1
 1048 1214 l 1,1,-1
 1236 1214 l 1,2,-1
 489 0 l 1,3,-1
 303 0 l 1,0,-1
90 927 m 0,4,5
 90 990 90 990 114.5 1045 c 128,-1,6
 139 1100 139 1100 182 1141.5 c 128,-1,7
 225 1183 225 1183 283 1206.5 c 128,-1,8
 341 1230 341 1230 407 1230 c 256,9,10
 473 1230 473 1230 531 1206.5 c 128,-1,11
 589 1183 589 1183 631.5 1141.5 c 128,-1,12
 674 1100 674 1100 699 1045 c 128,-1,13
 724 990 724 990 724 927 c 0,14,15
 724 863 724 863 699 807.5 c 128,-1,16
 674 752 674 752 631.5 710.5 c 128,-1,17
 589 669 589 669 531 645.5 c 128,-1,18
 473 622 473 622 407 622 c 256,19,20
 341 622 341 622 283 645.5 c 128,-1,21
 225 669 225 669 182 710.5 c 128,-1,22
 139 752 139 752 114.5 807.5 c 128,-1,23
 90 863 90 863 90 927 c 0,4,5
258 927 m 256,24,25
 258 890 258 890 269.5 857 c 128,-1,26
 281 824 281 824 301.5 799.5 c 128,-1,27
 322 775 322 775 349 761 c 128,-1,28
 376 747 376 747 407 747 c 0,29,30
 437 747 437 747 464.5 761 c 128,-1,31
 492 775 492 775 512 799.5 c 128,-1,32
 532 824 532 824 544 857 c 128,-1,33
 556 890 556 890 556 927 c 256,34,35
 556 964 556 964 544 997 c 128,-1,36
 532 1030 532 1030 512 1054.5 c 128,-1,37
 492 1079 492 1079 464.5 1093 c 128,-1,38
 437 1107 437 1107 407 1107 c 0,39,40
 376 1107 376 1107 349 1093 c 128,-1,41
 322 1079 322 1079 301.5 1054.5 c 128,-1,42
 281 1030 281 1030 269.5 997 c 128,-1,43
 258 964 258 964 258 927 c 256,24,25
828 289 m 256,44,45
 828 352 828 352 852.5 408 c 128,-1,46
 877 464 877 464 919.5 505 c 128,-1,47
 962 546 962 546 1019.5 570 c 128,-1,48
 1077 594 1077 594 1144 594 c 0,49,50
 1210 594 1210 594 1267.5 570 c 128,-1,51
 1325 546 1325 546 1368 505 c 128,-1,52
 1411 464 1411 464 1435.5 408 c 128,-1,53
 1460 352 1460 352 1460 289 c 256,54,55
 1460 226 1460 226 1435.5 170 c 128,-1,56
 1411 114 1411 114 1368 73 c 128,-1,57
 1325 32 1325 32 1267.5 8 c 128,-1,58
 1210 -16 1210 -16 1144 -16 c 0,59,60
 1077 -16 1077 -16 1019.5 8 c 128,-1,61
 962 32 962 32 919.5 73 c 128,-1,62
 877 114 877 114 852.5 170 c 128,-1,63
 828 226 828 226 828 289 c 256,44,45
996 289 m 256,64,65
 996 252 996 252 1007.5 219.5 c 128,-1,66
 1019 187 1019 187 1039 162.5 c 128,-1,67
 1059 138 1059 138 1086 123.5 c 128,-1,68
 1113 109 1113 109 1144 109 c 256,69,70
 1175 109 1175 109 1202 123.5 c 128,-1,71
 1229 138 1229 138 1249 162.5 c 128,-1,72
 1269 187 1269 187 1281 219.5 c 128,-1,73
 1293 252 1293 252 1293 289 c 256,74,75
 1293 326 1293 326 1281 359 c 128,-1,76
 1269 392 1269 392 1249 416.5 c 128,-1,77
 1229 441 1229 441 1202 455.5 c 128,-1,78
 1175 470 1175 470 1144 470 c 256,79,80
 1113 470 1113 470 1086 455.5 c 128,-1,81
 1059 441 1059 441 1039 416.5 c 128,-1,82
 1019 392 1019 392 1007.5 359 c 128,-1,83
 996 326 996 326 996 289 c 256,64,65
EndSplineSet
EndChar

StartChar: ampersand
Encoding: 38 38 3
Width: 1250
Flags: W
LayerCount: 2
Fore
SplineSet
1085 584 m 1,0,1
 1077 491 1077 491 1051 402 c 128,-1,2
 1025 313 1025 313 979 236 c 1,3,4
 1002 210 1002 210 1029.5 180.5 c 128,-1,5
 1057 151 1057 151 1086 120 c 128,-1,6
 1115 89 1115 89 1144.5 58.5 c 128,-1,7
 1174 28 1174 28 1201 0 c 1,8,-1
 980 0 l 1,9,-1
 966 15 l 2,10,11
 951 30 951 30 940.5 40.5 c 128,-1,12
 930 51 930 51 920 60.5 c 128,-1,13
 910 70 910 70 900 81 c 128,-1,14
 890 92 890 92 877 108 c 1,15,16
 809 45 809 45 717.5 5 c 128,-1,17
 626 -35 626 -35 511 -35 c 0,18,19
 394 -35 394 -35 313 -4 c 128,-1,20
 232 27 232 27 182 77 c 128,-1,21
 132 127 132 127 109.5 188.5 c 128,-1,22
 87 250 87 250 87 312 c 0,23,24
 87 372 87 372 112.5 425 c 128,-1,25
 138 478 138 478 180 526 c 128,-1,26
 222 574 222 574 276 618.5 c 128,-1,27
 330 663 330 663 387 705 c 1,28,29
 319 808 319 808 281.5 894 c 128,-1,30
 244 980 244 980 244 1047 c 0,31,32
 244 1096 244 1096 265.5 1143.5 c 128,-1,33
 287 1191 287 1191 328 1228.5 c 128,-1,34
 369 1266 369 1266 429 1289 c 128,-1,35
 489 1312 489 1312 566 1312 c 0,36,37
 647 1312 647 1312 707.5 1287.5 c 128,-1,38
 768 1263 768 1263 808.5 1224.5 c 128,-1,39
 849 1186 849 1186 869.5 1138 c 128,-1,40
 890 1090 890 1090 890 1043 c 0,41,42
 890 989 890 989 867.5 940.5 c 128,-1,43
 845 892 845 892 806.5 848 c 128,-1,44
 768 804 768 804 718.5 762 c 128,-1,45
 669 720 669 720 615 680 c 1,46,47
 642 644 642 644 666.5 611.5 c 128,-1,48
 691 579 691 579 719 544 c 128,-1,49
 747 509 747 509 779.5 468.5 c 128,-1,50
 812 428 812 428 856 377 c 1,51,52
 892 465 892 465 904 584 c 1,53,-1
 1085 584 l 1,0,1
509 111 m 0,54,55
 583 111 583 111 648 144 c 128,-1,56
 713 177 713 177 767 235 c 1,57,58
 682 331 682 331 612 413 c 128,-1,59
 542 495 542 495 478 580 c 1,60,61
 436 549 436 549 398.5 517.5 c 128,-1,62
 361 486 361 486 333.5 452.5 c 128,-1,63
 306 419 306 419 289.5 384 c 128,-1,64
 273 349 273 349 273 310 c 0,65,66
 273 258 273 258 293.5 220.5 c 128,-1,67
 314 183 314 183 347 158.5 c 128,-1,68
 380 134 380 134 422.5 122.5 c 128,-1,69
 465 111 465 111 509 111 c 0,54,55
429 1048 m 0,70,71
 429 1004 429 1004 452.5 945 c 128,-1,72
 476 886 476 886 526 805 c 1,73,74
 564 833 564 833 596.5 861 c 128,-1,75
 629 889 629 889 652.5 918.5 c 128,-1,76
 676 948 676 948 689.5 979 c 128,-1,77
 703 1010 703 1010 703 1043 c 256,78,79
 703 1076 703 1076 692 1100 c 128,-1,80
 681 1124 681 1124 662.5 1140 c 128,-1,81
 644 1156 644 1156 618.5 1163.5 c 128,-1,82
 593 1171 593 1171 565 1171 c 0,83,84
 539 1171 539 1171 514.5 1163 c 128,-1,85
 490 1155 490 1155 471 1139.5 c 128,-1,86
 452 1124 452 1124 440.5 1101 c 128,-1,87
 429 1078 429 1078 429 1048 c 0,70,71
EndSplineSet
EndChar

StartChar: parenleft
Encoding: 40 40 4
Width: 523
Flags: W
LayerCount: 2
Fore
SplineSet
516 1439 m 1,0,1
 405 1233 405 1233 353.5 1022.5 c 128,-1,2
 302 812 302 812 302 595 c 0,3,4
 302 379 302 379 353 169.5 c 128,-1,5
 404 -40 404 -40 516 -246 c 1,6,-1
 367 -246 l 1,7,8
 224 -60 224 -60 152 156 c 128,-1,9
 80 372 80 372 80 595 c 0,10,11
 80 819 80 819 151 1034.5 c 128,-1,12
 222 1250 222 1250 367 1439 c 1,13,-1
 516 1439 l 1,0,1
EndSplineSet
EndChar

StartChar: parenright
Encoding: 41 41 5
Width: 489
Flags: W
LayerCount: 2
Fore
SplineSet
151 1439 m 1,0,1
 297 1250 297 1250 367.5 1034.5 c 128,-1,2
 438 819 438 819 438 595 c 256,3,4
 438 371 438 371 367 155.5 c 128,-1,5
 296 -60 296 -60 151 -246 c 1,6,-1
 0 -246 l 1,7,8
 116 -41 116 -41 168 168.5 c 128,-1,9
 220 378 220 378 220 595 c 256,10,11
 220 812 220 812 168 1022.5 c 128,-1,12
 116 1233 116 1233 1 1439 c 1,13,-1
 151 1439 l 1,0,1
EndSplineSet
EndChar

StartChar: asterisk
Encoding: 42 42 6
Width: 871
Flags: W
LayerCount: 2
Fore
SplineSet
545 1302 m 1,0,-1
 526 1054 l 1,1,2
 553 1066 553 1066 584 1079 c 128,-1,3
 615 1092 615 1092 646 1105.5 c 128,-1,4
 677 1119 677 1119 706 1131 c 128,-1,5
 735 1143 735 1143 759 1153 c 1,6,-1
 817 997 l 1,7,-1
 549 935 l 1,8,9
 580 901 580 901 615 863.5 c 128,-1,10
 650 826 650 826 683 791 c 2,11,-1
 728 743 l 1,12,-1
 587 633 l 1,13,-1
 448 841 l 1,14,15
 414 791 414 791 375 735 c 128,-1,16
 336 679 336 679 305 633 c 1,17,-1
 162 743 l 1,18,-1
 344 935 l 1,19,20
 281 951 281 951 211.5 969 c 128,-1,21
 142 987 142 987 82 1002 c 1,22,-1
 132 1153 l 1,23,-1
 369 1052 l 1,24,-1
 348 1302 l 1,25,-1
 545 1302 l 1,0,-1
EndSplineSet
EndChar

StartChar: plus
Encoding: 43 43 7
Width: 1110
Flags: W
LayerCount: 2
Fore
SplineSet
87 738 m 1,0,-1
 484 738 l 1,1,-1
 484 1125 l 1,2,-1
 643 1125 l 1,3,-1
 643 738 l 1,4,-1
 1044 738 l 1,5,-1
 1044 618 l 1,6,-1
 643 618 l 1,7,-1
 643 231 l 1,8,-1
 484 231 l 1,9,-1
 484 618 l 1,10,-1
 87 618 l 1,11,-1
 87 738 l 1,0,-1
EndSplineSet
EndChar

StartChar: comma
Encoding: 44 44 8
Width: 370
Flags: W
LayerCount: 2
Fore
SplineSet
325 192 m 1,0,-1
 325 -34 l 2,1,2
 325 -115 325 -115 272.5 -174.5 c 128,-1,3
 220 -234 220 -234 134 -267 c 1,4,-1
 75 -185 l 1,5,6
 103 -173 103 -173 120.5 -158.5 c 128,-1,7
 138 -144 138 -144 147 -126 c 128,-1,8
 156 -108 156 -108 159 -85 c 128,-1,9
 162 -62 162 -62 162 -34 c 2,10,-1
 162 0 l 1,11,-1
 97 0 l 1,12,-1
 97 192 l 1,13,-1
 325 192 l 1,0,-1
EndSplineSet
EndChar

StartChar: period
Encoding: 46 46 9
Width: 352
Flags: W
LayerCount: 2
Fore
SplineSet
306 192 m 1,0,-1
 306 0 l 1,1,-1
 79 0 l 1,2,-1
 79 192 l 1,3,-1
 306 192 l 1,0,-1
EndSplineSet
EndChar

StartChar: slash
Encoding: 47 47 10
Width: 543
Flags: W
LayerCount: 2
Fore
SplineSet
151 -35 m 1,0,-1
 -30 -35 l 1,1,-1
 393 1302 l 1,2,-1
 568 1302 l 1,3,-1
 151 -35 l 1,0,-1
EndSplineSet
EndChar

StartChar: zero
Encoding: 48 48 11
Width: 1024
Flags: W
LayerCount: 2
Fore
SplineSet
820 276 m 0,0,1
 941 232 941 232 941 167.5 c 128,-1,2
 941 103 941 103 820 59 c 0,3,4
 697 13 697 13 503 13 c 128,-1,5
 309 13 309 13 186 57 c 0,6,7
 65 103 65 103 62 168 c 0,8,9
 62 232 62 232 186 276 c 0,10,11
 307 322 307 322 503 322 c 0,12,13
 697 322 697 322 820 276 c 0,0,1
817 166 m 0,14,15
 818 198 818 198 738 219 c 0,16,17
 658 242 658 242 519 242 c 0,18,19
 364 240 364 240 296 219 c 0,20,21
 218 196 218 196 217 166 c 0,22,23
 218 133 218 133 296 112 c 0,24,25
 379 89 379 89 519 89 c 0,26,27
 646 90 646 90 738 112 c 0,28,29
 818 131 818 131 817 166 c 0,14,15
820 655 m 0,30,31
 941 611 941 611 941 546.5 c 128,-1,32
 941 482 941 482 820 438 c 0,33,34
 697 392 697 392 503 392 c 128,-1,35
 309 392 309 392 186 436 c 0,36,37
 65 482 65 482 62 546 c 0,38,39
 62 611 62 611 186 655 c 0,40,41
 307 700 307 700 503 700 c 0,42,43
 697 700 697 700 820 655 c 0,30,31
817 544 m 0,44,45
 818 577 818 577 738 598 c 0,46,47
 658 621 658 621 519 621 c 0,48,49
 364 619 364 619 296 598 c 0,50,51
 218 575 218 575 217 544 c 0,52,53
 218 512 218 512 296 490 c 0,54,55
 379 468 379 468 519 468 c 0,56,57
 646 468 646 468 738 490 c 0,58,59
 818 510 818 510 817 544 c 0,44,45
820 1032 m 0,60,61
 941 988 941 988 941 923 c 128,-1,62
 941 858 941 858 820 815 c 0,63,64
 697 769 697 769 503 769 c 128,-1,65
 309 769 309 769 186 813 c 0,66,67
 65 858 65 858 62 923 c 0,68,69
 62 988 62 988 186 1032 c 0,70,71
 307 1077 307 1077 503 1077 c 0,72,73
 697 1077 697 1077 820 1032 c 0,60,61
817 921 m 0,74,75
 818 954 818 954 738 975 c 0,76,77
 658 997 658 997 519 998 c 0,78,79
 364 995 364 995 296 975 c 0,80,81
 218 952 218 952 217 921 c 0,82,83
 218 889 218 889 296 867 c 0,84,85
 379 845 379 845 519 845 c 0,86,87
 646 845 646 845 738 867 c 0,88,89
 818 887 818 887 817 921 c 0,74,75
820 1410 m 0,90,91
 941 1367 941 1367 941 1302 c 128,-1,92
 941 1237 941 1237 820 1193 c 0,93,94
 697 1148 697 1148 503 1148 c 128,-1,95
 309 1148 309 1148 186 1192 c 0,96,97
 65 1237 65 1237 62 1302 c 0,98,99
 62 1367 62 1367 186 1410 c 0,100,101
 307 1456 307 1456 503 1456 c 0,102,103
 697 1456 697 1456 820 1410 c 0,90,91
817 1300 m 0,104,105
 818 1332 818 1332 738 1354 c 256,106,107
 658 1376 658 1376 519 1376 c 0,108,109
 364 1374 364 1374 296 1354 c 0,110,111
 218 1330 218 1330 217 1300 c 0,112,113
 218 1268 218 1268 296 1246 c 0,114,115
 379 1223 379 1223 519 1223 c 0,116,117
 646 1224 646 1224 738 1246 c 0,118,119
 818 1266 818 1266 817 1300 c 0,104,105
EndSplineSet
EndChar

StartChar: one
Encoding: 49 49 12
Width: 1024
Flags: W
LayerCount: 2
Fore
SplineSet
820 276 m 0,0,1
 941 232 941 232 941 167.5 c 128,-1,2
 941 103 941 103 820 59 c 0,3,4
 697 13 697 13 503 13 c 128,-1,5
 309 13 309 13 186 57 c 0,6,7
 65 103 65 103 62 168 c 0,8,9
 62 232 62 232 186 276 c 0,10,11
 307 322 307 322 503 322 c 0,12,13
 697 322 697 322 820 276 c 0,0,1
820 655 m 0,14,15
 941 611 941 611 941 546.5 c 128,-1,16
 941 482 941 482 820 438 c 0,17,18
 697 392 697 392 503 392 c 128,-1,19
 309 392 309 392 186 436 c 0,20,21
 65 482 65 482 62 546 c 0,22,23
 62 611 62 611 186 655 c 0,24,25
 307 700 307 700 503 700 c 0,26,27
 697 700 697 700 820 655 c 0,14,15
817 544 m 0,28,29
 818 577 818 577 738 598 c 0,30,31
 658 621 658 621 519 621 c 0,32,33
 364 619 364 619 296 598 c 0,34,35
 218 575 218 575 217 544 c 0,36,37
 218 512 218 512 296 490 c 0,38,39
 379 468 379 468 519 468 c 0,40,41
 646 468 646 468 738 490 c 0,42,43
 818 510 818 510 817 544 c 0,28,29
820 1032 m 0,44,45
 941 988 941 988 941 923 c 128,-1,46
 941 858 941 858 820 815 c 0,47,48
 697 769 697 769 503 769 c 128,-1,49
 309 769 309 769 186 813 c 0,50,51
 65 858 65 858 62 923 c 0,52,53
 62 988 62 988 186 1032 c 0,54,55
 307 1077 307 1077 503 1077 c 0,56,57
 697 1077 697 1077 820 1032 c 0,44,45
817 921 m 0,58,59
 818 954 818 954 738 975 c 0,60,61
 658 997 658 997 519 998 c 0,62,63
 364 995 364 995 296 975 c 0,64,65
 218 952 218 952 217 921 c 0,66,67
 218 889 218 889 296 867 c 0,68,69
 379 845 379 845 519 845 c 0,70,71
 646 845 646 845 738 867 c 0,72,73
 818 887 818 887 817 921 c 0,58,59
820 1410 m 0,74,75
 941 1367 941 1367 941 1302 c 128,-1,76
 941 1237 941 1237 820 1193 c 0,77,78
 697 1148 697 1148 503 1148 c 128,-1,79
 309 1148 309 1148 186 1192 c 0,80,81
 65 1237 65 1237 62 1302 c 0,82,83
 62 1367 62 1367 186 1410 c 0,84,85
 307 1456 307 1456 503 1456 c 0,86,87
 697 1456 697 1456 820 1410 c 0,74,75
817 1300 m 0,88,89
 818 1332 818 1332 738 1354 c 256,90,91
 658 1376 658 1376 519 1376 c 0,92,93
 364 1374 364 1374 296 1354 c 0,94,95
 218 1330 218 1330 217 1300 c 0,96,97
 218 1268 218 1268 296 1246 c 0,98,99
 379 1223 379 1223 519 1223 c 0,100,101
 646 1224 646 1224 738 1246 c 0,102,103
 818 1266 818 1266 817 1300 c 0,88,89
EndSplineSet
EndChar

StartChar: two
Encoding: 50 50 13
Width: 1024
Flags: W
LayerCount: 2
Fore
SplineSet
820 276 m 0,0,1
 941 232 941 232 941 167.5 c 128,-1,2
 941 103 941 103 820 59 c 0,3,4
 697 13 697 13 503 13 c 128,-1,5
 309 13 309 13 186 57 c 0,6,7
 65 103 65 103 62 168 c 0,8,9
 62 232 62 232 186 276 c 0,10,11
 307 322 307 322 503 322 c 0,12,13
 697 322 697 322 820 276 c 0,0,1
817 166 m 0,14,15
 818 198 818 198 738 219 c 0,16,17
 658 242 658 242 519 242 c 0,18,19
 364 240 364 240 296 219 c 0,20,21
 218 196 218 196 217 166 c 0,22,23
 218 133 218 133 296 112 c 0,24,25
 379 89 379 89 519 89 c 0,26,27
 646 90 646 90 738 112 c 0,28,29
 818 131 818 131 817 166 c 0,14,15
820 655 m 0,30,31
 941 611 941 611 941 546.5 c 128,-1,32
 941 482 941 482 820 438 c 0,33,34
 697 392 697 392 503 392 c 128,-1,35
 309 392 309 392 186 436 c 0,36,37
 65 482 65 482 62 546 c 0,38,39
 62 611 62 611 186 655 c 0,40,41
 307 700 307 700 503 700 c 0,42,43
 697 700 697 700 820 655 c 0,30,31
820 1032 m 0,44,45
 941 988 941 988 941 923 c 128,-1,46
 941 858 941 858 820 815 c 0,47,48
 697 769 697 769 503 769 c 128,-1,49
 309 769 309 769 186 813 c 0,50,51
 65 858 65 858 62 923 c 0,52,53
 62 988 62 988 186 1032 c 0,54,55
 307 1077 307 1077 503 1077 c 0,56,57
 697 1077 697 1077 820 1032 c 0,44,45
817 921 m 0,58,59
 818 954 818 954 738 975 c 0,60,61
 658 997 658 997 519 998 c 0,62,63
 364 995 364 995 296 975 c 0,64,65
 218 952 218 952 217 921 c 0,66,67
 218 889 218 889 296 867 c 0,68,69
 379 845 379 845 519 845 c 0,70,71
 646 845 646 845 738 867 c 0,72,73
 818 887 818 887 817 921 c 0,58,59
820 1410 m 0,74,75
 941 1367 941 1367 941 1302 c 128,-1,76
 941 1237 941 1237 820 1193 c 0,77,78
 697 1148 697 1148 503 1148 c 128,-1,79
 309 1148 309 1148 186 1192 c 0,80,81
 65 1237 65 1237 62 1302 c 0,82,83
 62 1367 62 1367 186 1410 c 0,84,85
 307 1456 307 1456 503 1456 c 0,86,87
 697 1456 697 1456 820 1410 c 0,74,75
817 1300 m 0,88,89
 818 1332 818 1332 738 1354 c 256,90,91
 658 1376 658 1376 519 1376 c 0,92,93
 364 1374 364 1374 296 1354 c 0,94,95
 218 1330 218 1330 217 1300 c 0,96,97
 218 1268 218 1268 296 1246 c 0,98,99
 379 1223 379 1223 519 1223 c 0,100,101
 646 1224 646 1224 738 1246 c 0,102,103
 818 1266 818 1266 817 1300 c 0,88,89
EndSplineSet
EndChar

StartChar: three
Encoding: 51 51 14
Width: 1024
Flags: W
LayerCount: 2
Fore
SplineSet
820 276 m 0,0,1
 941 232 941 232 941 167.5 c 128,-1,2
 941 103 941 103 820 59 c 0,3,4
 697 13 697 13 503 13 c 128,-1,5
 309 13 309 13 186 57 c 0,6,7
 65 103 65 103 62 168 c 0,8,9
 62 232 62 232 186 276 c 0,10,11
 307 322 307 322 503 322 c 0,12,13
 697 322 697 322 820 276 c 0,0,1
820 655 m 0,14,15
 941 611 941 611 941 546.5 c 128,-1,16
 941 482 941 482 820 438 c 0,17,18
 697 392 697 392 503 392 c 128,-1,19
 309 392 309 392 186 436 c 0,20,21
 65 482 65 482 62 546 c 0,22,23
 62 611 62 611 186 655 c 0,24,25
 307 700 307 700 503 700 c 0,26,27
 697 700 697 700 820 655 c 0,14,15
820 1032 m 0,28,29
 941 988 941 988 941 923 c 128,-1,30
 941 858 941 858 820 815 c 0,31,32
 697 769 697 769 503 769 c 128,-1,33
 309 769 309 769 186 813 c 0,34,35
 65 858 65 858 62 923 c 0,36,37
 62 988 62 988 186 1032 c 0,38,39
 307 1077 307 1077 503 1077 c 0,40,41
 697 1077 697 1077 820 1032 c 0,28,29
817 921 m 0,42,43
 818 954 818 954 738 975 c 0,44,45
 658 997 658 997 519 998 c 0,46,47
 364 995 364 995 296 975 c 0,48,49
 218 952 218 952 217 921 c 0,50,51
 218 889 218 889 296 867 c 0,52,53
 379 845 379 845 519 845 c 0,54,55
 646 845 646 845 738 867 c 0,56,57
 818 887 818 887 817 921 c 0,42,43
820 1410 m 0,58,59
 941 1367 941 1367 941 1302 c 128,-1,60
 941 1237 941 1237 820 1193 c 0,61,62
 697 1148 697 1148 503 1148 c 128,-1,63
 309 1148 309 1148 186 1192 c 0,64,65
 65 1237 65 1237 62 1302 c 0,66,67
 62 1367 62 1367 186 1410 c 0,68,69
 307 1456 307 1456 503 1456 c 0,70,71
 697 1456 697 1456 820 1410 c 0,58,59
817 1300 m 0,72,73
 818 1332 818 1332 738 1354 c 256,74,75
 658 1376 658 1376 519 1376 c 0,76,77
 364 1374 364 1374 296 1354 c 0,78,79
 218 1330 218 1330 217 1300 c 0,80,81
 218 1268 218 1268 296 1246 c 0,82,83
 379 1223 379 1223 519 1223 c 0,84,85
 646 1224 646 1224 738 1246 c 0,86,87
 818 1266 818 1266 817 1300 c 0,72,73
EndSplineSet
EndChar

StartChar: four
Encoding: 52 52 15
Width: 1024
Flags: W
LayerCount: 2
Fore
SplineSet
820 276 m 0,0,1
 941 232 941 232 941 167.5 c 128,-1,2
 941 103 941 103 820 59 c 0,3,4
 697 13 697 13 503 13 c 128,-1,5
 309 13 309 13 186 57 c 0,6,7
 65 103 65 103 62 168 c 0,8,9
 62 232 62 232 186 276 c 0,10,11
 307 322 307 322 503 322 c 0,12,13
 697 322 697 322 820 276 c 0,0,1
817 166 m 0,14,15
 818 198 818 198 738 219 c 0,16,17
 658 242 658 242 519 242 c 0,18,19
 364 240 364 240 296 219 c 0,20,21
 218 196 218 196 217 166 c 0,22,23
 218 133 218 133 296 112 c 0,24,25
 379 89 379 89 519 89 c 0,26,27
 646 90 646 90 738 112 c 0,28,29
 818 131 818 131 817 166 c 0,14,15
820 655 m 0,30,31
 941 611 941 611 941 546.5 c 128,-1,32
 941 482 941 482 820 438 c 0,33,34
 697 392 697 392 503 392 c 128,-1,35
 309 392 309 392 186 436 c 0,36,37
 65 482 65 482 62 546 c 0,38,39
 62 611 62 611 186 655 c 0,40,41
 307 700 307 700 503 700 c 0,42,43
 697 700 697 700 820 655 c 0,30,31
817 544 m 0,44,45
 818 577 818 577 738 598 c 0,46,47
 658 621 658 621 519 621 c 0,48,49
 364 619 364 619 296 598 c 0,50,51
 218 575 218 575 217 544 c 0,52,53
 218 512 218 512 296 490 c 0,54,55
 379 468 379 468 519 468 c 0,56,57
 646 468 646 468 738 490 c 0,58,59
 818 510 818 510 817 544 c 0,44,45
820 1032 m 0,60,61
 941 988 941 988 941 923 c 128,-1,62
 941 858 941 858 820 815 c 0,63,64
 697 769 697 769 503 769 c 128,-1,65
 309 769 309 769 186 813 c 0,66,67
 65 858 65 858 62 923 c 0,68,69
 62 988 62 988 186 1032 c 0,70,71
 307 1077 307 1077 503 1077 c 0,72,73
 697 1077 697 1077 820 1032 c 0,60,61
820 1410 m 0,74,75
 941 1367 941 1367 941 1302 c 128,-1,76
 941 1237 941 1237 820 1193 c 0,77,78
 697 1148 697 1148 503 1148 c 128,-1,79
 309 1148 309 1148 186 1192 c 0,80,81
 65 1237 65 1237 62 1302 c 0,82,83
 62 1367 62 1367 186 1410 c 0,84,85
 307 1456 307 1456 503 1456 c 0,86,87
 697 1456 697 1456 820 1410 c 0,74,75
817 1300 m 0,88,89
 818 1332 818 1332 738 1354 c 256,90,91
 658 1376 658 1376 519 1376 c 0,92,93
 364 1374 364 1374 296 1354 c 0,94,95
 218 1330 218 1330 217 1300 c 0,96,97
 218 1268 218 1268 296 1246 c 0,98,99
 379 1223 379 1223 519 1223 c 0,100,101
 646 1224 646 1224 738 1246 c 0,102,103
 818 1266 818 1266 817 1300 c 0,88,89
EndSplineSet
EndChar

StartChar: five
Encoding: 53 53 16
Width: 1024
Flags: W
LayerCount: 2
Fore
SplineSet
820 276 m 0,0,1
 941 232 941 232 941 167.5 c 128,-1,2
 941 103 941 103 820 59 c 0,3,4
 697 13 697 13 503 13 c 128,-1,5
 309 13 309 13 186 57 c 0,6,7
 65 103 65 103 62 168 c 0,8,9
 62 232 62 232 186 276 c 0,10,11
 307 322 307 322 503 322 c 0,12,13
 697 322 697 322 820 276 c 0,0,1
820 655 m 0,14,15
 941 611 941 611 941 546.5 c 128,-1,16
 941 482 941 482 820 438 c 0,17,18
 697 392 697 392 503 392 c 128,-1,19
 309 392 309 392 186 436 c 0,20,21
 65 482 65 482 62 546 c 0,22,23
 62 611 62 611 186 655 c 0,24,25
 307 700 307 700 503 700 c 0,26,27
 697 700 697 700 820 655 c 0,14,15
817 544 m 0,28,29
 818 577 818 577 738 598 c 0,30,31
 658 621 658 621 519 621 c 0,32,33
 364 619 364 619 296 598 c 0,34,35
 218 575 218 575 217 544 c 0,36,37
 218 512 218 512 296 490 c 0,38,39
 379 468 379 468 519 468 c 0,40,41
 646 468 646 468 738 490 c 0,42,43
 818 510 818 510 817 544 c 0,28,29
820 1032 m 0,44,45
 941 988 941 988 941 923 c 128,-1,46
 941 858 941 858 820 815 c 0,47,48
 697 769 697 769 503 769 c 128,-1,49
 309 769 309 769 186 813 c 0,50,51
 65 858 65 858 62 923 c 0,52,53
 62 988 62 988 186 1032 c 0,54,55
 307 1077 307 1077 503 1077 c 0,56,57
 697 1077 697 1077 820 1032 c 0,44,45
820 1410 m 0,58,59
 941 1367 941 1367 941 1302 c 128,-1,60
 941 1237 941 1237 820 1193 c 0,61,62
 697 1148 697 1148 503 1148 c 128,-1,63
 309 1148 309 1148 186 1192 c 0,64,65
 65 1237 65 1237 62 1302 c 0,66,67
 62 1367 62 1367 186 1410 c 0,68,69
 307 1456 307 1456 503 1456 c 0,70,71
 697 1456 697 1456 820 1410 c 0,58,59
817 1300 m 0,72,73
 818 1332 818 1332 738 1354 c 256,74,75
 658 1376 658 1376 519 1376 c 0,76,77
 364 1374 364 1374 296 1354 c 0,78,79
 218 1330 218 1330 217 1300 c 0,80,81
 218 1268 218 1268 296 1246 c 0,82,83
 379 1223 379 1223 519 1223 c 0,84,85
 646 1224 646 1224 738 1246 c 0,86,87
 818 1266 818 1266 817 1300 c 0,72,73
EndSplineSet
EndChar

StartChar: six
Encoding: 54 54 17
Width: 1024
Flags: W
LayerCount: 2
Fore
SplineSet
820 276 m 0,0,1
 941 232 941 232 941 167.5 c 128,-1,2
 941 103 941 103 820 59 c 0,3,4
 697 13 697 13 503 13 c 128,-1,5
 309 13 309 13 186 57 c 0,6,7
 65 103 65 103 62 168 c 0,8,9
 62 232 62 232 186 276 c 0,10,11
 307 322 307 322 503 322 c 0,12,13
 697 322 697 322 820 276 c 0,0,1
817 166 m 0,14,15
 818 198 818 198 738 219 c 0,16,17
 658 242 658 242 519 242 c 0,18,19
 364 240 364 240 296 219 c 0,20,21
 218 196 218 196 217 166 c 0,22,23
 218 133 218 133 296 112 c 0,24,25
 379 89 379 89 519 89 c 0,26,27
 646 90 646 90 738 112 c 0,28,29
 818 131 818 131 817 166 c 0,14,15
820 655 m 4,30,31
 941 611 941 611 941 546.5 c 132,-1,32
 941 482 941 482 820 438 c 4,33,34
 697 392 697 392 503 392 c 132,-1,35
 309 392 309 392 186 436 c 4,36,37
 65 482 65 482 62 546 c 4,38,39
 62 611 62 611 186 655 c 4,40,41
 307 700 307 700 503 700 c 4,42,43
 697 700 697 700 820 655 c 4,30,31
820 1032 m 0,44,45
 941 988 941 988 941 923 c 128,-1,46
 941 858 941 858 820 815 c 0,47,48
 697 769 697 769 503 769 c 128,-1,49
 309 769 309 769 186 813 c 0,50,51
 65 858 65 858 62 923 c 0,52,53
 62 988 62 988 186 1032 c 0,54,55
 307 1077 307 1077 503 1077 c 0,56,57
 697 1077 697 1077 820 1032 c 0,44,45
820 1410 m 0,58,59
 941 1367 941 1367 941 1302 c 128,-1,60
 941 1237 941 1237 820 1193 c 0,61,62
 697 1148 697 1148 503 1148 c 128,-1,63
 309 1148 309 1148 186 1192 c 0,64,65
 65 1237 65 1237 62 1302 c 0,66,67
 62 1367 62 1367 186 1410 c 0,68,69
 307 1456 307 1456 503 1456 c 0,70,71
 697 1456 697 1456 820 1410 c 0,58,59
817 1300 m 0,72,73
 818 1332 818 1332 738 1354 c 256,74,75
 658 1376 658 1376 519 1376 c 0,76,77
 364 1374 364 1374 296 1354 c 0,78,79
 218 1330 218 1330 217 1300 c 0,80,81
 218 1268 218 1268 296 1246 c 0,82,83
 379 1223 379 1223 519 1223 c 0,84,85
 646 1224 646 1224 738 1246 c 0,86,87
 818 1266 818 1266 817 1300 c 0,72,73
EndSplineSet
EndChar

StartChar: seven
Encoding: 55 55 18
Width: 1024
Flags: W
LayerCount: 2
Fore
SplineSet
820 276 m 0,0,1
 941 232 941 232 941 167.5 c 128,-1,2
 941 103 941 103 820 59 c 0,3,4
 697 13 697 13 503 13 c 128,-1,5
 309 13 309 13 186 57 c 0,6,7
 65 103 65 103 62 168 c 0,8,9
 62 232 62 232 186 276 c 0,10,11
 307 322 307 322 503 322 c 0,12,13
 697 322 697 322 820 276 c 0,0,1
820 655 m 0,14,15
 941 611 941 611 941 546.5 c 128,-1,16
 941 482 941 482 820 438 c 0,17,18
 697 392 697 392 503 392 c 128,-1,19
 309 392 309 392 186 436 c 0,20,21
 65 482 65 482 62 546 c 0,22,23
 62 611 62 611 186 655 c 0,24,25
 307 700 307 700 503 700 c 0,26,27
 697 700 697 700 820 655 c 0,14,15
820 1032 m 0,28,29
 941 988 941 988 941 923 c 128,-1,30
 941 858 941 858 820 815 c 0,31,32
 697 769 697 769 503 769 c 128,-1,33
 309 769 309 769 186 813 c 0,34,35
 65 858 65 858 62 923 c 0,36,37
 62 988 62 988 186 1032 c 0,38,39
 307 1077 307 1077 503 1077 c 0,40,41
 697 1077 697 1077 820 1032 c 0,28,29
820 1410 m 0,42,43
 941 1367 941 1367 941 1302 c 128,-1,44
 941 1237 941 1237 820 1193 c 0,45,46
 697 1148 697 1148 503 1148 c 128,-1,47
 309 1148 309 1148 186 1192 c 0,48,49
 65 1237 65 1237 62 1302 c 0,50,51
 62 1367 62 1367 186 1410 c 0,52,53
 307 1456 307 1456 503 1456 c 0,54,55
 697 1456 697 1456 820 1410 c 0,42,43
817 1300 m 0,56,57
 818 1332 818 1332 738 1354 c 256,58,59
 658 1376 658 1376 519 1376 c 0,60,61
 364 1374 364 1374 296 1354 c 0,62,63
 218 1330 218 1330 217 1300 c 0,64,65
 218 1268 218 1268 296 1246 c 0,66,67
 379 1223 379 1223 519 1223 c 0,68,69
 646 1224 646 1224 738 1246 c 0,70,71
 818 1266 818 1266 817 1300 c 0,56,57
EndSplineSet
EndChar

StartChar: eight
Encoding: 56 56 19
Width: 1024
Flags: W
LayerCount: 2
Fore
SplineSet
820 276 m 0,0,1
 941 232 941 232 941 167.5 c 128,-1,2
 941 103 941 103 820 59 c 0,3,4
 697 13 697 13 503 13 c 128,-1,5
 309 13 309 13 186 57 c 0,6,7
 65 103 65 103 62 168 c 0,8,9
 62 232 62 232 186 276 c 0,10,11
 307 322 307 322 503 322 c 0,12,13
 697 322 697 322 820 276 c 0,0,1
817 166 m 0,14,15
 818 198 818 198 738 219 c 0,16,17
 658 242 658 242 519 242 c 0,18,19
 364 240 364 240 296 219 c 0,20,21
 218 196 218 196 217 166 c 0,22,23
 218 133 218 133 296 112 c 0,24,25
 379 89 379 89 519 89 c 0,26,27
 646 90 646 90 738 112 c 0,28,29
 818 131 818 131 817 166 c 0,14,15
820 655 m 0,30,31
 941 611 941 611 941 546.5 c 128,-1,32
 941 482 941 482 820 438 c 0,33,34
 697 392 697 392 503 392 c 128,-1,35
 309 392 309 392 186 436 c 0,36,37
 65 482 65 482 62 546 c 0,38,39
 62 611 62 611 186 655 c 0,40,41
 307 700 307 700 503 700 c 0,42,43
 697 700 697 700 820 655 c 0,30,31
817 544 m 0,44,45
 818 577 818 577 738 598 c 0,46,47
 658 621 658 621 519 621 c 0,48,49
 364 619 364 619 296 598 c 0,50,51
 218 575 218 575 217 544 c 0,52,53
 218 512 218 512 296 490 c 0,54,55
 379 468 379 468 519 468 c 0,56,57
 646 468 646 468 738 490 c 0,58,59
 818 510 818 510 817 544 c 0,44,45
820 1032 m 0,60,61
 941 988 941 988 941 923 c 128,-1,62
 941 858 941 858 820 815 c 0,63,64
 697 769 697 769 503 769 c 128,-1,65
 309 769 309 769 186 813 c 0,66,67
 65 858 65 858 62 923 c 0,68,69
 62 988 62 988 186 1032 c 0,70,71
 307 1077 307 1077 503 1077 c 0,72,73
 697 1077 697 1077 820 1032 c 0,60,61
817 921 m 0,74,75
 818 954 818 954 738 975 c 0,76,77
 658 997 658 997 519 998 c 0,78,79
 364 995 364 995 296 975 c 0,80,81
 218 952 218 952 217 921 c 0,82,83
 218 889 218 889 296 867 c 0,84,85
 379 845 379 845 519 845 c 0,86,87
 646 845 646 845 738 867 c 0,88,89
 818 887 818 887 817 921 c 0,74,75
820 1410 m 0,90,91
 941 1367 941 1367 941 1302 c 128,-1,92
 941 1237 941 1237 820 1193 c 0,93,94
 697 1148 697 1148 503 1148 c 128,-1,95
 309 1148 309 1148 186 1192 c 0,96,97
 65 1237 65 1237 62 1302 c 0,98,99
 62 1367 62 1367 186 1410 c 0,100,101
 307 1456 307 1456 503 1456 c 0,102,103
 697 1456 697 1456 820 1410 c 0,90,91
EndSplineSet
EndChar

StartChar: nine
Encoding: 57 57 20
Width: 1024
Flags: W
LayerCount: 2
Fore
SplineSet
820 276 m 0,0,1
 941 232 941 232 941 167.5 c 128,-1,2
 941 103 941 103 820 59 c 0,3,4
 697 13 697 13 503 13 c 128,-1,5
 309 13 309 13 186 57 c 0,6,7
 65 103 65 103 62 168 c 0,8,9
 62 232 62 232 186 276 c 0,10,11
 307 322 307 322 503 322 c 0,12,13
 697 322 697 322 820 276 c 0,0,1
820 655 m 0,14,15
 941 611 941 611 941 546.5 c 128,-1,16
 941 482 941 482 820 438 c 0,17,18
 697 392 697 392 503 392 c 128,-1,19
 309 392 309 392 186 436 c 0,20,21
 65 482 65 482 62 546 c 0,22,23
 62 611 62 611 186 655 c 0,24,25
 307 700 307 700 503 700 c 0,26,27
 697 700 697 700 820 655 c 0,14,15
817 544 m 0,28,29
 818 577 818 577 738 598 c 0,30,31
 658 621 658 621 519 621 c 0,32,33
 364 619 364 619 296 598 c 0,34,35
 218 575 218 575 217 544 c 0,36,37
 218 512 218 512 296 490 c 0,38,39
 379 468 379 468 519 468 c 0,40,41
 646 468 646 468 738 490 c 0,42,43
 818 510 818 510 817 544 c 0,28,29
820 1032 m 0,44,45
 941 988 941 988 941 923 c 128,-1,46
 941 858 941 858 820 815 c 0,47,48
 697 769 697 769 503 769 c 128,-1,49
 309 769 309 769 186 813 c 0,50,51
 65 858 65 858 62 923 c 0,52,53
 62 988 62 988 186 1032 c 0,54,55
 307 1077 307 1077 503 1077 c 0,56,57
 697 1077 697 1077 820 1032 c 0,44,45
817 921 m 0,58,59
 818 954 818 954 738 975 c 0,60,61
 658 997 658 997 519 998 c 0,62,63
 364 995 364 995 296 975 c 0,64,65
 218 952 218 952 217 921 c 0,66,67
 218 889 218 889 296 867 c 0,68,69
 379 845 379 845 519 845 c 0,70,71
 646 845 646 845 738 867 c 0,72,73
 818 887 818 887 817 921 c 0,58,59
820 1410 m 0,74,75
 941 1367 941 1367 941 1302 c 128,-1,76
 941 1237 941 1237 820 1193 c 0,77,78
 697 1148 697 1148 503 1148 c 128,-1,79
 309 1148 309 1148 186 1192 c 0,80,81
 65 1237 65 1237 62 1302 c 0,82,83
 62 1367 62 1367 186 1410 c 0,84,85
 307 1456 307 1456 503 1456 c 0,86,87
 697 1456 697 1456 820 1410 c 0,74,75
EndSplineSet
EndChar

StartChar: colon
Encoding: 58 58 21
Width: 1024
Flags: W
LayerCount: 2
Fore
SplineSet
820 276 m 0,0,1
 941 232 941 232 941 167.5 c 128,-1,2
 941 103 941 103 820 59 c 0,3,4
 697 13 697 13 503 13 c 128,-1,5
 309 13 309 13 186 57 c 0,6,7
 65 103 65 103 62 168 c 0,8,9
 62 232 62 232 186 276 c 0,10,11
 307 322 307 322 503 322 c 0,12,13
 697 322 697 322 820 276 c 0,0,1
817 166 m 0,14,15
 818 198 818 198 738 219 c 0,16,17
 658 242 658 242 519 242 c 0,18,19
 364 240 364 240 296 219 c 0,20,21
 218 196 218 196 217 166 c 0,22,23
 218 133 218 133 296 112 c 0,24,25
 379 89 379 89 519 89 c 0,26,27
 646 90 646 90 738 112 c 0,28,29
 818 131 818 131 817 166 c 0,14,15
820 655 m 0,30,31
 941 611 941 611 941 546.5 c 128,-1,32
 941 482 941 482 820 438 c 0,33,34
 697 392 697 392 503 392 c 128,-1,35
 309 392 309 392 186 436 c 0,36,37
 65 482 65 482 62 546 c 0,38,39
 62 611 62 611 186 655 c 0,40,41
 307 700 307 700 503 700 c 0,42,43
 697 700 697 700 820 655 c 0,30,31
820 1032 m 0,44,45
 941 988 941 988 941 923 c 128,-1,46
 941 858 941 858 820 815 c 0,47,48
 697 769 697 769 503 769 c 128,-1,49
 309 769 309 769 186 813 c 0,50,51
 65 858 65 858 62 923 c 0,52,53
 62 988 62 988 186 1032 c 0,54,55
 307 1077 307 1077 503 1077 c 0,56,57
 697 1077 697 1077 820 1032 c 0,44,45
817 921 m 0,58,59
 818 954 818 954 738 975 c 0,60,61
 658 997 658 997 519 998 c 0,62,63
 364 995 364 995 296 975 c 0,64,65
 218 952 218 952 217 921 c 0,66,67
 218 889 218 889 296 867 c 0,68,69
 379 845 379 845 519 845 c 0,70,71
 646 845 646 845 738 867 c 0,72,73
 818 887 818 887 817 921 c 0,58,59
820 1410 m 0,74,75
 941 1367 941 1367 941 1302 c 128,-1,76
 941 1237 941 1237 820 1193 c 0,77,78
 697 1148 697 1148 503 1148 c 128,-1,79
 309 1148 309 1148 186 1192 c 0,80,81
 65 1237 65 1237 62 1302 c 0,82,83
 62 1367 62 1367 186 1410 c 0,84,85
 307 1456 307 1456 503 1456 c 0,86,87
 697 1456 697 1456 820 1410 c 0,74,75
EndSplineSet
EndChar

StartChar: semicolon
Encoding: 59 59 22
Width: 1024
Flags: W
LayerCount: 2
Fore
SplineSet
820 276 m 0,0,1
 941 232 941 232 941 167.5 c 128,-1,2
 941 103 941 103 820 59 c 0,3,4
 697 13 697 13 503 13 c 128,-1,5
 309 13 309 13 186 57 c 0,6,7
 65 103 65 103 62 168 c 0,8,9
 62 232 62 232 186 276 c 0,10,11
 307 322 307 322 503 322 c 0,12,13
 697 322 697 322 820 276 c 0,0,1
820 655 m 0,14,15
 941 611 941 611 941 546.5 c 128,-1,16
 941 482 941 482 820 438 c 0,17,18
 697 392 697 392 503 392 c 128,-1,19
 309 392 309 392 186 436 c 0,20,21
 65 482 65 482 62 546 c 0,22,23
 62 611 62 611 186 655 c 0,24,25
 307 700 307 700 503 700 c 0,26,27
 697 700 697 700 820 655 c 0,14,15
820 1032 m 0,28,29
 941 988 941 988 941 923 c 128,-1,30
 941 858 941 858 820 815 c 0,31,32
 697 769 697 769 503 769 c 128,-1,33
 309 769 309 769 186 813 c 0,34,35
 65 858 65 858 62 923 c 0,36,37
 62 988 62 988 186 1032 c 0,38,39
 307 1077 307 1077 503 1077 c 0,40,41
 697 1077 697 1077 820 1032 c 0,28,29
817 921 m 0,42,43
 818 954 818 954 738 975 c 0,44,45
 658 997 658 997 519 998 c 0,46,47
 364 995 364 995 296 975 c 0,48,49
 218 952 218 952 217 921 c 0,50,51
 218 889 218 889 296 867 c 0,52,53
 379 845 379 845 519 845 c 0,54,55
 646 845 646 845 738 867 c 0,56,57
 818 887 818 887 817 921 c 0,42,43
820 1410 m 0,58,59
 941 1367 941 1367 941 1302 c 128,-1,60
 941 1237 941 1237 820 1193 c 0,61,62
 697 1148 697 1148 503 1148 c 128,-1,63
 309 1148 309 1148 186 1192 c 0,64,65
 65 1237 65 1237 62 1302 c 0,66,67
 62 1367 62 1367 186 1410 c 0,68,69
 307 1456 307 1456 503 1456 c 0,70,71
 697 1456 697 1456 820 1410 c 0,58,59
EndSplineSet
EndChar

StartChar: less
Encoding: 60 60 23
Width: 1024
Flags: W
LayerCount: 2
Fore
SplineSet
820 276 m 0,0,1
 941 232 941 232 941 167.5 c 128,-1,2
 941 103 941 103 820 59 c 0,3,4
 697 13 697 13 503 13 c 128,-1,5
 309 13 309 13 186 57 c 0,6,7
 65 103 65 103 62 168 c 0,8,9
 62 232 62 232 186 276 c 0,10,11
 307 322 307 322 503 322 c 0,12,13
 697 322 697 322 820 276 c 0,0,1
817 166 m 0,14,15
 818 198 818 198 738 219 c 0,16,17
 658 242 658 242 519 242 c 0,18,19
 364 240 364 240 296 219 c 0,20,21
 218 196 218 196 217 166 c 0,22,23
 218 133 218 133 296 112 c 0,24,25
 379 89 379 89 519 89 c 0,26,27
 646 90 646 90 738 112 c 0,28,29
 818 131 818 131 817 166 c 0,14,15
820 655 m 0,30,31
 941 611 941 611 941 546.5 c 128,-1,32
 941 482 941 482 820 438 c 0,33,34
 697 392 697 392 503 392 c 128,-1,35
 309 392 309 392 186 436 c 0,36,37
 65 482 65 482 62 546 c 0,38,39
 62 611 62 611 186 655 c 0,40,41
 307 700 307 700 503 700 c 0,42,43
 697 700 697 700 820 655 c 0,30,31
817 544 m 0,44,45
 818 577 818 577 738 598 c 0,46,47
 658 621 658 621 519 621 c 0,48,49
 364 619 364 619 296 598 c 0,50,51
 218 575 218 575 217 544 c 0,52,53
 218 512 218 512 296 490 c 0,54,55
 379 468 379 468 519 468 c 0,56,57
 646 468 646 468 738 490 c 0,58,59
 818 510 818 510 817 544 c 0,44,45
820 1032 m 0,60,61
 941 988 941 988 941 923 c 128,-1,62
 941 858 941 858 820 815 c 0,63,64
 697 769 697 769 503 769 c 128,-1,65
 309 769 309 769 186 813 c 0,66,67
 65 858 65 858 62 923 c 0,68,69
 62 988 62 988 186 1032 c 0,70,71
 307 1077 307 1077 503 1077 c 0,72,73
 697 1077 697 1077 820 1032 c 0,60,61
820 1410 m 0,74,75
 941 1367 941 1367 941 1302 c 128,-1,76
 941 1237 941 1237 820 1193 c 0,77,78
 697 1148 697 1148 503 1148 c 128,-1,79
 309 1148 309 1148 186 1192 c 0,80,81
 65 1237 65 1237 62 1302 c 0,82,83
 62 1367 62 1367 186 1410 c 0,84,85
 307 1456 307 1456 503 1456 c 0,86,87
 697 1456 697 1456 820 1410 c 0,74,75
EndSplineSet
EndChar

StartChar: equal
Encoding: 61 61 24
Width: 1024
Flags: W
LayerCount: 2
Fore
SplineSet
820 276 m 4,0,1
 941 232 941 232 941 167.5 c 132,-1,2
 941 103 941 103 820 59 c 4,3,4
 697 13 697 13 503 13 c 132,-1,5
 309 13 309 13 186 57 c 4,6,7
 65 103 65 103 62 168 c 4,8,9
 62 232 62 232 186 276 c 4,10,11
 307 322 307 322 503 322 c 4,12,13
 697 322 697 322 820 276 c 4,0,1
820 655 m 4,14,15
 941 611 941 611 941 546.5 c 132,-1,16
 941 482 941 482 820 438 c 4,17,18
 697 392 697 392 503 392 c 132,-1,19
 309 392 309 392 186 436 c 4,20,21
 65 482 65 482 62 546 c 4,22,23
 62 611 62 611 186 655 c 4,24,25
 307 700 307 700 503 700 c 4,26,27
 697 700 697 700 820 655 c 4,14,15
817 544 m 4,28,29
 818 577 818 577 738 598 c 4,30,31
 658 621 658 621 519 621 c 4,32,33
 364 619 364 619 296 598 c 4,34,35
 218 575 218 575 217 544 c 4,36,37
 218 512 218 512 296 490 c 4,38,39
 379 468 379 468 519 468 c 4,40,41
 646 468 646 468 738 490 c 4,42,43
 818 510 818 510 817 544 c 4,28,29
820 1032 m 4,44,45
 941 988 941 988 941 923 c 132,-1,46
 941 858 941 858 820 815 c 4,47,48
 697 769 697 769 503 769 c 132,-1,49
 309 769 309 769 186 813 c 4,50,51
 65 858 65 858 62 923 c 4,52,53
 62 988 62 988 186 1032 c 4,54,55
 307 1077 307 1077 503 1077 c 4,56,57
 697 1077 697 1077 820 1032 c 4,44,45
820 1410 m 4,58,59
 941 1367 941 1367 941 1302 c 132,-1,60
 941 1237 941 1237 820 1193 c 4,61,62
 697 1148 697 1148 503 1148 c 132,-1,63
 309 1148 309 1148 186 1192 c 4,64,65
 65 1237 65 1237 62 1302 c 4,66,67
 62 1367 62 1367 186 1410 c 4,68,69
 307 1456 307 1456 503 1456 c 4,70,71
 697 1456 697 1456 820 1410 c 4,58,59
EndSplineSet
EndChar

StartChar: greater
Encoding: 62 62 25
Width: 1024
Flags: W
LayerCount: 2
Fore
SplineSet
820 276 m 0,0,1
 941 232 941 232 941 167.5 c 128,-1,2
 941 103 941 103 820 59 c 0,3,4
 697 13 697 13 503 13 c 128,-1,5
 309 13 309 13 186 57 c 0,6,7
 65 103 65 103 62 168 c 0,8,9
 62 232 62 232 186 276 c 0,10,11
 307 322 307 322 503 322 c 0,12,13
 697 322 697 322 820 276 c 0,0,1
817 166 m 0,14,15
 818 198 818 198 738 219 c 0,16,17
 658 242 658 242 519 242 c 0,18,19
 364 240 364 240 296 219 c 0,20,21
 218 196 218 196 217 166 c 0,22,23
 218 133 218 133 296 112 c 0,24,25
 379 89 379 89 519 89 c 0,26,27
 646 90 646 90 738 112 c 0,28,29
 818 131 818 131 817 166 c 0,14,15
820 655 m 0,30,31
 941 611 941 611 941 546.5 c 128,-1,32
 941 482 941 482 820 438 c 0,33,34
 697 392 697 392 503 392 c 128,-1,35
 309 392 309 392 186 436 c 0,36,37
 65 482 65 482 62 546 c 0,38,39
 62 611 62 611 186 655 c 0,40,41
 307 700 307 700 503 700 c 0,42,43
 697 700 697 700 820 655 c 0,30,31
820 1032 m 0,44,45
 941 988 941 988 941 923 c 128,-1,46
 941 858 941 858 820 815 c 0,47,48
 697 769 697 769 503 769 c 128,-1,49
 309 769 309 769 186 813 c 0,50,51
 65 858 65 858 62 923 c 0,52,53
 62 988 62 988 186 1032 c 0,54,55
 307 1077 307 1077 503 1077 c 0,56,57
 697 1077 697 1077 820 1032 c 0,44,45
820 1410 m 0,58,59
 941 1367 941 1367 941 1302 c 128,-1,60
 941 1237 941 1237 820 1193 c 0,61,62
 697 1148 697 1148 503 1148 c 128,-1,63
 309 1148 309 1148 186 1192 c 0,64,65
 65 1237 65 1237 62 1302 c 0,66,67
 62 1367 62 1367 186 1410 c 0,68,69
 307 1456 307 1456 503 1456 c 0,70,71
 697 1456 697 1456 820 1410 c 0,58,59
EndSplineSet
EndChar

StartChar: question
Encoding: 63 63 26
Width: 1024
Flags: W
LayerCount: 2
Fore
SplineSet
820 276 m 0,0,1
 941 232 941 232 941 167.5 c 128,-1,2
 941 103 941 103 820 59 c 0,3,4
 697 13 697 13 503 13 c 128,-1,5
 309 13 309 13 186 57 c 0,6,7
 65 103 65 103 62 168 c 0,8,9
 62 232 62 232 186 276 c 0,10,11
 307 322 307 322 503 322 c 0,12,13
 697 322 697 322 820 276 c 0,0,1
820 655 m 0,14,15
 941 611 941 611 941 546.5 c 128,-1,16
 941 482 941 482 820 438 c 0,17,18
 697 392 697 392 503 392 c 128,-1,19
 309 392 309 392 186 436 c 0,20,21
 65 482 65 482 62 546 c 0,22,23
 62 611 62 611 186 655 c 0,24,25
 307 700 307 700 503 700 c 0,26,27
 697 700 697 700 820 655 c 0,14,15
820 1032 m 0,28,29
 941 988 941 988 941 923 c 128,-1,30
 941 858 941 858 820 815 c 0,31,32
 697 769 697 769 503 769 c 128,-1,33
 309 769 309 769 186 813 c 0,34,35
 65 858 65 858 62 923 c 0,36,37
 62 988 62 988 186 1032 c 0,38,39
 307 1077 307 1077 503 1077 c 0,40,41
 697 1077 697 1077 820 1032 c 0,28,29
820 1410 m 0,42,43
 941 1367 941 1367 941 1302 c 128,-1,44
 941 1237 941 1237 820 1193 c 0,45,46
 697 1148 697 1148 503 1148 c 128,-1,47
 309 1148 309 1148 186 1192 c 0,48,49
 65 1237 65 1237 62 1302 c 0,50,51
 62 1367 62 1367 186 1410 c 0,52,53
 307 1456 307 1456 503 1456 c 0,54,55
 697 1456 697 1456 820 1410 c 0,42,43
EndSplineSet
EndChar

StartChar: bracketleft
Encoding: 91 91 27
Width: 409
Flags: W
LayerCount: 2
Fore
SplineSet
437 1399 m 1,0,-1
 437 1293 l 1,1,-1
 259 1293 l 1,2,-1
 259 -143 l 1,3,-1
 437 -143 l 1,4,-1
 437 -251 l 1,5,-1
 80 -251 l 1,6,-1
 80 1399 l 1,7,-1
 437 1399 l 1,0,-1
EndSplineSet
EndChar

StartChar: bracketright
Encoding: 93 93 28
Width: 370
Flags: W
LayerCount: 2
Fore
SplineSet
325 -251 m 1,0,-1
 -33 -251 l 1,1,-1
 -33 -143 l 1,2,-1
 144 -143 l 1,3,-1
 144 1293 l 1,4,-1
 -33 1293 l 1,5,-1
 -33 1399 l 1,6,-1
 325 1399 l 1,7,-1
 325 -251 l 1,0,-1
EndSplineSet
EndChar

StartChar: asciicircum
Encoding: 94 94 29
Width: 800
Flags: W
LayerCount: 2
Fore
SplineSet
502 1273 m 1,0,-1
 822 808 l 1,1,-1
 658 808 l 1,2,-1
 392 1150 l 1,3,-1
 126 808 l 1,4,-1
 -36 808 l 1,5,-1
 281 1273 l 1,6,-1
 502 1273 l 1,0,-1
EndSplineSet
EndChar

StartChar: underscore
Encoding: 95 95 30
Width: 1066
Flags: W
LayerCount: 2
Fore
SplineSet
1001 -246 m 1,0,-1
 1001 -367 l 1,1,-1
 86 -367 l 1,2,-1
 86 -246 l 1,3,-1
 1001 -246 l 1,0,-1
EndSplineSet
EndChar

StartChar: hyphen
Encoding: 45 45 31
Width: 593
Flags: W
LayerCount: 2
Fore
SplineSet
541 584 m 5,0,-1
 541 437 l 5,1,-1
 82 437 l 5,2,-1
 82 584 l 5,3,-1
 541 584 l 5,0,-1
EndSplineSet
EndChar

StartChar: numbersign
Encoding: 35 35 32
Width: 1338
Flags: W
LayerCount: 2
Fore
SplineSet
720 414 m 1,0,-1
 505 414 l 1,1,-1
 429 0 l 1,2,-1
 273 0 l 1,3,-1
 347 414 l 1,4,-1
 86 414 l 1,5,-1
 104 521 l 1,6,-1
 364 521 l 1,7,8
 376 584 376 584 389 646 c 128,-1,9
 402 708 402 708 415 772 c 1,10,-1
 149 772 l 1,11,-1
 173 879 l 1,12,-1
 430 879 l 1,13,14
 447 976 447 976 466 1076.5 c 128,-1,15
 485 1177 485 1177 502 1273 c 1,16,-1
 661 1273 l 1,17,-1
 591 879 l 1,18,-1
 808 879 l 1,19,20
 825 976 825 976 841.5 1076.5 c 128,-1,21
 858 1177 858 1177 874 1273 c 1,22,-1
 1036 1273 l 1,23,-1
 961 879 l 1,24,-1
 1269 879 l 1,25,-1
 1258 819 l 1,26,-1
 1245 772 l 1,27,-1
 945 772 l 1,28,29
 934 707 934 707 922.5 647 c 128,-1,30
 911 587 911 587 900 521 c 1,31,-1
 1203 521 l 1,32,-1
 1192 461 l 1,33,-1
 1179 414 l 1,34,-1
 880 414 l 1,35,-1
 802 0 l 1,36,-1
 644 0 l 1,37,-1
 720 414 l 1,0,-1
789 772 m 1,38,-1
 572 772 l 1,39,-1
 522 521 l 1,40,-1
 738 521 l 1,41,-1
 789 772 l 1,38,-1
EndSplineSet
EndChar

StartChar: exclam
Encoding: 33 33 33
Width: 336
Flags: W
LayerCount: 2
Fore
SplineSet
290 1265 m 1,0,-1
 290 744 l 1,1,-1
 256 314 l 1,2,-1
 115 314 l 1,3,-1
 79 742 l 1,4,-1
 79 1265 l 1,5,-1
 290 1265 l 1,0,-1
290 192 m 1,6,-1
 290 0 l 1,7,-1
 79 0 l 1,8,-1
 79 192 l 1,9,-1
 290 192 l 1,6,-1
EndSplineSet
EndChar

StartChar: quotedbl
Encoding: 34 34 34
Width: 554
Flags: W
LayerCount: 2
Fore
SplineSet
261 1265 m 1,0,-1
 261 788 l 1,1,-1
 80 788 l 1,2,-1
 80 1265 l 1,3,-1
 261 1265 l 1,0,-1
504 1265 m 1,4,-1
 504 788 l 1,5,-1
 326 788 l 1,6,-1
 326 1265 l 1,7,-1
 504 1265 l 1,4,-1
EndSplineSet
EndChar

StartChar: dollar
Encoding: 36 36 35
Width: 1028
Flags: W
LayerCount: 2
Fore
SplineSet
607 1229 m 1,0,1
 667 1219 667 1219 722.5 1195 c 128,-1,2
 778 1171 778 1171 823 1132 c 128,-1,3
 868 1093 868 1093 900 1039 c 128,-1,4
 932 985 932 985 944 916 c 1,5,-1
 762 916 l 1,6,7
 739 988 739 988 702.5 1030 c 128,-1,8
 666 1072 666 1072 607 1087 c 1,9,-1
 607 675 l 1,10,11
 674 647 674 647 738.5 616 c 128,-1,12
 803 585 803 585 853 544.5 c 128,-1,13
 903 504 903 504 934 451 c 128,-1,14
 965 398 965 398 965 326 c 0,15,16
 965 245 965 245 934 184.5 c 128,-1,17
 903 124 903 124 853 82.5 c 128,-1,18
 803 41 803 41 738.5 17.5 c 128,-1,19
 674 -6 674 -6 607 -15 c 1,20,-1
 607 -220 l 1,21,-1
 428 -220 l 1,22,-1
 428 -9 l 1,23,24
 361 7 361 7 303 43 c 128,-1,25
 245 79 245 79 200 130.5 c 128,-1,26
 155 182 155 182 124.5 247.5 c 128,-1,27
 94 313 94 313 82 387 c 1,28,-1
 270 387 l 1,29,30
 287 298 287 298 326 233 c 128,-1,31
 365 168 365 168 428 141 c 1,32,-1
 428 584 l 1,33,34
 366 611 366 611 309 642 c 128,-1,35
 252 673 252 673 207.5 712.5 c 128,-1,36
 163 752 163 752 136.5 802.5 c 128,-1,37
 110 853 110 853 110 920 c 0,38,39
 110 980 110 980 134.5 1032 c 128,-1,40
 159 1084 159 1084 202 1123.5 c 128,-1,41
 245 1163 245 1163 303 1190 c 128,-1,42
 361 1217 361 1217 428 1228 c 1,43,-1
 428 1363 l 1,44,-1
 607 1363 l 1,45,-1
 607 1229 l 1,0,1
780 323 m 0,46,47
 780 354 780 354 766 381 c 128,-1,48
 752 408 752 408 728 431 c 128,-1,49
 704 454 704 454 672.5 473 c 128,-1,50
 641 492 641 492 607 509 c 1,51,-1
 607 127 l 1,52,53
 646 136 646 136 677.5 155 c 128,-1,54
 709 174 709 174 732 199.5 c 128,-1,55
 755 225 755 225 767.5 256.5 c 128,-1,56
 780 288 780 288 780 323 c 0,46,47
295 925 m 0,57,58
 295 863 295 863 332 821.5 c 128,-1,59
 369 780 369 780 428 750 c 1,60,-1
 428 1085 l 1,61,62
 368 1065 368 1065 331.5 1022 c 128,-1,63
 295 979 295 979 295 925 c 0,57,58
EndSplineSet
EndChar

StartChar: quotesingle
Encoding: 39 39 36
Width: 301
Flags: W
LayerCount: 2
Fore
SplineSet
257 1265 m 1,0,-1
 257 788 l 1,1,-1
 79 788 l 1,2,-1
 79 1265 l 1,3,-1
 257 1265 l 1,0,-1
EndSplineSet
Substitution2: "<17,16> Show Invisibles lookup 1 subtable" quotesingle
EndChar

StartChar: at
Encoding: 64 64 37
Width: 1435
Flags: W
LayerCount: 2
Fore
SplineSet
956 822 m 1,0,-1
 1124 822 l 1,1,-1
 980 323 l 2,2,3
 977 311 977 311 974.5 298.5 c 128,-1,4
 972 286 972 286 972 275 c 0,5,6
 972 240 972 240 979 240 c 0,7,8
 991 240 991 240 1012.5 245.5 c 128,-1,9
 1034 251 1034 251 1059 265.5 c 128,-1,10
 1084 280 1084 280 1110 305 c 128,-1,11
 1136 330 1136 330 1157 369.5 c 128,-1,12
 1178 409 1178 409 1191.5 464.5 c 128,-1,13
 1205 520 1205 520 1205 595 c 0,14,15
 1205 688 1205 688 1169.5 765 c 128,-1,16
 1134 842 1134 842 1075.5 897.5 c 128,-1,17
 1017 953 1017 953 940 983.5 c 128,-1,18
 863 1014 863 1014 781 1014 c 0,19,20
 671 1014 671 1014 576 972.5 c 128,-1,21
 481 931 481 931 411.5 857 c 128,-1,22
 342 783 342 783 302 682 c 128,-1,23
 262 581 262 581 262 463 c 0,24,25
 262 350 262 350 303.5 258.5 c 128,-1,26
 345 167 345 167 413.5 102.5 c 128,-1,27
 482 38 482 38 571 2.5 c 128,-1,28
 660 -33 660 -33 755 -33 c 0,29,30
 882 -33 882 -33 981 22 c 128,-1,31
 1080 77 1080 77 1143 170 c 1,32,-1
 1306 170 l 1,33,34
 1274 87 1274 87 1215 25.5 c 128,-1,35
 1156 -36 1156 -36 1079 -76.5 c 128,-1,36
 1002 -117 1002 -117 911.5 -137 c 128,-1,37
 821 -157 821 -157 728 -157 c 0,38,39
 646 -157 646 -157 567.5 -136.5 c 128,-1,40
 489 -116 489 -116 418 -78 c 128,-1,41
 347 -40 347 -40 287.5 14.5 c 128,-1,42
 228 69 228 69 185 137.5 c 128,-1,43
 142 206 142 206 117.5 287 c 128,-1,44
 93 368 93 368 93 458 c 0,45,46
 93 562 93 562 118.5 653 c 128,-1,47
 144 744 144 744 189.5 819 c 128,-1,48
 235 894 235 894 299 953 c 128,-1,49
 363 1012 363 1012 439.5 1052.5 c 128,-1,50
 516 1093 516 1093 603 1114.5 c 128,-1,51
 690 1136 690 1136 782 1136 c 0,52,53
 896 1136 896 1136 1002 1097 c 128,-1,54
 1108 1058 1108 1058 1190 987.5 c 128,-1,55
 1272 917 1272 917 1321 819 c 128,-1,56
 1370 721 1370 721 1370 604 c 0,57,58
 1370 485 1370 485 1332.5 393.5 c 128,-1,59
 1295 302 1295 302 1232.5 240.5 c 128,-1,60
 1170 179 1170 179 1090.5 147.5 c 128,-1,61
 1011 116 1011 116 927 116 c 0,62,63
 882 116 882 116 853 132.5 c 128,-1,64
 824 149 824 149 808 177 c 1,65,66
 739 116 739 116 628 116 c 0,67,68
 564 116 564 116 513 139.5 c 128,-1,69
 462 163 462 163 426.5 201 c 128,-1,70
 391 239 391 239 372 287.5 c 128,-1,71
 353 336 353 336 353 386 c 0,72,73
 353 439 353 439 366.5 494.5 c 128,-1,74
 380 550 380 550 405 601.5 c 128,-1,75
 430 653 430 653 466 698 c 128,-1,76
 502 743 502 743 547 776.5 c 128,-1,77
 592 810 592 810 646 829.5 c 128,-1,78
 700 849 700 849 760 849 c 0,79,80
 824 849 824 849 868.5 824.5 c 128,-1,81
 913 800 913 800 939 770 c 1,82,-1
 956 822 l 1,0,-1
834 413 m 0,83,84
 848 458 848 458 856 487.5 c 128,-1,85
 864 517 864 517 868 535.5 c 128,-1,86
 872 554 872 554 873 564 c 128,-1,87
 874 574 874 574 874 581 c 0,88,89
 874 612 874 612 865 638.5 c 128,-1,90
 856 665 856 665 841 683.5 c 128,-1,91
 826 702 826 702 805.5 712.5 c 128,-1,92
 785 723 785 723 762 723 c 0,93,94
 733 723 733 723 704.5 708.5 c 128,-1,95
 676 694 676 694 650 669.5 c 128,-1,96
 624 645 624 645 601.5 612.5 c 128,-1,97
 579 580 579 580 563 544.5 c 128,-1,98
 547 509 547 509 537.5 472.5 c 128,-1,99
 528 436 528 436 528 403 c 0,100,101
 528 373 528 373 534 343 c 128,-1,102
 540 313 540 313 553.5 289.5 c 128,-1,103
 567 266 567 266 588.5 251.5 c 128,-1,104
 610 237 610 237 640 237 c 0,105,106
 669 237 669 237 698 248.5 c 128,-1,107
 727 260 727 260 752.5 282.5 c 128,-1,108
 778 305 778 305 799 338 c 128,-1,109
 820 371 820 371 834 413 c 0,83,84
EndSplineSet
Substitution2: "<17,16> Show Invisibles lookup 1 subtable" at
EndChar

StartChar: A
Encoding: 65 65 38
Width: 504
VWidth: 2000
Flags: W
LayerCount: 2
Fore
SplineSet
128 110 m 0,0,1
 128 136 128 136 137.5 159 c 128,-1,2
 147 182 147 182 163.5 199 c 128,-1,3
 180 216 180 216 203 226 c 128,-1,4
 226 236 226 236 252 236 c 256,5,6
 278 236 278 236 301 226 c 128,-1,7
 324 216 324 216 341 199 c 128,-1,8
 358 182 358 182 367.5 159 c 128,-1,9
 377 136 377 136 377 110 c 0,10,11
 377 83 377 83 367.5 60.5 c 128,-1,12
 358 38 358 38 341 21 c 128,-1,13
 324 4 324 4 301 -5.5 c 128,-1,14
 278 -15 278 -15 252 -15 c 256,15,16
 226 -15 226 -15 203 -5.5 c 128,-1,17
 180 4 180 4 163.5 21 c 128,-1,18
 147 38 147 38 137.5 60.5 c 128,-1,19
 128 83 128 83 128 110 c 0,0,1
128 860 m 0,20,21
 128 886 128 886 137.5 909 c 128,-1,22
 147 932 147 932 163.5 949 c 128,-1,23
 180 966 180 966 203 976 c 128,-1,24
 226 986 226 986 252 986 c 256,25,26
 278 986 278 986 301 976 c 128,-1,27
 324 966 324 966 341 949 c 128,-1,28
 358 932 358 932 367.5 909 c 128,-1,29
 377 886 377 886 377 860 c 0,30,31
 377 833 377 833 367.5 810.5 c 128,-1,32
 358 788 358 788 341 771 c 128,-1,33
 324 754 324 754 301 744.5 c 128,-1,34
 278 735 278 735 252 735 c 256,35,36
 226 735 226 735 203 744.5 c 128,-1,37
 180 754 180 754 163.5 771 c 128,-1,38
 147 788 147 788 137.5 810.5 c 128,-1,39
 128 833 128 833 128 860 c 0,20,21
EndSplineSet
Substitution2: "<17,16> Show Invisibles lookup 1 subtable" A
EndChar

StartChar: B
Encoding: 66 66 39
Width: 504
VWidth: 2000
Flags: W
LayerCount: 2
Fore
SplineSet
134 123 m 0,0,1
 134 146 134 146 142.5 166.5 c 128,-1,2
 151 187 151 187 166.5 202.5 c 128,-1,3
 182 218 182 218 204 227 c 128,-1,4
 226 236 226 236 252 236 c 0,5,6
 282 236 282 236 305.5 225 c 128,-1,7
 329 214 329 214 344.5 194.5 c 128,-1,8
 360 175 360 175 368 149.5 c 128,-1,9
 376 124 376 124 376 94 c 0,10,11
 376 49 376 49 363 0.5 c 128,-1,12
 350 -48 350 -48 326 -95.5 c 128,-1,13
 302 -143 302 -143 266.5 -188 c 128,-1,14
 231 -233 231 -233 186 -271 c 1,15,-1
 156 -242 l 2,16,17
 143 -230 143 -230 143 -214 c 0,18,19
 143 -201 143 -201 157 -187 c 0,20,21
 167 -176 167 -176 182.5 -157.5 c 128,-1,22
 198 -139 198 -139 214 -115 c 128,-1,23
 230 -91 230 -91 243.5 -62 c 128,-1,24
 257 -33 257 -33 263 0 c 1,25,-1
 250 0 l 2,26,27
 224 0 224 0 203 9 c 128,-1,28
 182 18 182 18 166.5 34.5 c 128,-1,29
 151 51 151 51 142.5 73.5 c 128,-1,30
 134 96 134 96 134 123 c 0,0,1
128 860 m 0,31,32
 128 886 128 886 137.5 909 c 128,-1,33
 147 932 147 932 163.5 949 c 128,-1,34
 180 966 180 966 203 976 c 128,-1,35
 226 986 226 986 252 986 c 256,36,37
 278 986 278 986 301 976 c 128,-1,38
 324 966 324 966 341 949 c 128,-1,39
 358 932 358 932 367.5 909 c 128,-1,40
 377 886 377 886 377 860 c 0,41,42
 377 833 377 833 367.5 810.5 c 128,-1,43
 358 788 358 788 341 771 c 128,-1,44
 324 754 324 754 301 744.5 c 128,-1,45
 278 735 278 735 252 735 c 256,46,47
 226 735 226 735 203 744.5 c 128,-1,48
 180 754 180 754 163.5 771 c 128,-1,49
 147 788 147 788 137.5 810.5 c 128,-1,50
 128 833 128 833 128 860 c 0,31,32
EndSplineSet
Substitution2: "<17,16> Show Invisibles lookup 1 subtable" B
EndChar

StartChar: C
Encoding: 67 67 40
Width: 1160
VWidth: 2000
Flags: W
LayerCount: 2
Fore
SplineSet
148 710 m 1,0,-1
 922 1111 l 1,1,-1
 922 984 l 2,2,3
 922 967 922 967 914 954.5 c 128,-1,4
 906 942 906 942 886 932 c 2,5,-1
 437 704 l 2,6,7
 417 693 417 693 394.5 685.5 c 128,-1,8
 372 678 372 678 347 672 c 1,9,10
 372 667 372 667 394.5 659 c 128,-1,11
 417 651 417 651 437 641 c 2,12,-1
 886 414 l 2,13,14
 906 404 906 404 914 391 c 128,-1,15
 922 378 922 378 922 362 c 2,16,-1
 922 234 l 1,17,-1
 148 636 l 1,18,-1
 148 710 l 1,0,-1
EndSplineSet
Substitution2: "<17,16> Show Invisibles lookup 1 subtable" C
EndChar

StartChar: D
Encoding: 68 68 41
Width: 1160
VWidth: 2000
Flags: W
LayerCount: 2
Fore
SplineSet
150 574 m 1,0,-1
 1009 574 l 1,1,-1
 1009 439 l 1,2,-1
 150 439 l 1,3,-1
 150 574 l 1,0,-1
150 909 m 1,4,-1
 1009 909 l 1,5,-1
 1009 774 l 1,6,-1
 150 774 l 1,7,-1
 150 909 l 1,4,-1
EndSplineSet
Substitution2: "<17,16> Show Invisibles lookup 1 subtable" D
EndChar

StartChar: E
Encoding: 69 69 42
Width: 1160
VWidth: 2000
Flags: W
LayerCount: 2
Fore
SplineSet
238 234 m 1,0,-1
 238 362 l 2,1,2
 238 378 238 378 246 391 c 128,-1,3
 254 404 254 404 274 414 c 2,4,-1
 723 641 l 2,5,6
 743 651 743 651 764.5 659 c 128,-1,7
 786 667 786 667 811 672 c 1,8,9
 786 678 786 678 764.5 685.5 c 128,-1,10
 743 693 743 693 723 704 c 2,11,-1
 274 932 l 2,12,13
 254 942 254 942 246 954.5 c 128,-1,14
 238 967 238 967 238 984 c 2,15,-1
 238 1111 l 1,16,-1
 1011 710 l 1,17,-1
 1011 636 l 1,18,-1
 238 234 l 1,0,-1
EndSplineSet
Substitution2: "<17,16> Show Invisibles lookup 1 subtable" E
EndChar

StartChar: F
Encoding: 70 70 43
Width: 796
VWidth: 2000
Flags: W
LayerCount: 2
Fore
SplineSet
34 1305 m 1,0,1
 65 1334 65 1334 102.5 1360 c 128,-1,2
 140 1386 140 1386 184.5 1406 c 128,-1,3
 229 1426 229 1426 280.5 1437.5 c 128,-1,4
 332 1449 332 1449 392 1449 c 0,5,6
 471 1449 471 1449 538.5 1426 c 128,-1,7
 606 1403 606 1403 655 1361 c 128,-1,8
 704 1319 704 1319 732 1259 c 128,-1,9
 760 1199 760 1199 760 1124 c 0,10,11
 760 1048 760 1048 737.5 993 c 128,-1,12
 715 938 715 938 680.5 896.5 c 128,-1,13
 646 855 646 855 605 824.5 c 128,-1,14
 564 794 564 794 528.5 767 c 128,-1,15
 493 740 493 740 467.5 713 c 128,-1,16
 442 686 442 686 438 653 c 2,17,-1
 420 500 l 1,18,-1
 298 500 l 1,19,-1
 286 666 l 1,20,-1
 286 677 l 2,21,22
 286 719 286 719 308.5 751.5 c 128,-1,23
 331 784 331 784 365.5 812.5 c 128,-1,24
 400 841 400 841 439.5 869.5 c 128,-1,25
 479 898 479 898 513.5 932.5 c 128,-1,26
 548 967 548 967 570.5 1011 c 128,-1,27
 593 1055 593 1055 593 1115 c 0,28,29
 593 1158 593 1158 576 1193 c 128,-1,30
 559 1228 559 1228 530 1252.5 c 128,-1,31
 501 1277 501 1277 461.5 1290 c 128,-1,32
 422 1303 422 1303 377 1303 c 0,33,34
 316 1303 316 1303 272.5 1288 c 128,-1,35
 229 1273 229 1273 199 1255 c 128,-1,36
 169 1237 169 1237 150.5 1222 c 128,-1,37
 132 1207 132 1207 120 1207 c 0,38,39
 95 1207 95 1207 81 1230 c 2,40,-1
 34 1305 l 1,0,1
230 110 m 0,41,42
 230 136 230 136 239.5 159 c 128,-1,43
 249 182 249 182 265.5 199 c 128,-1,44
 282 216 282 216 305 226 c 128,-1,45
 328 236 328 236 354 236 c 256,46,47
 380 236 380 236 403 226 c 128,-1,48
 426 216 426 216 443 199 c 128,-1,49
 460 182 460 182 469.5 159 c 128,-1,50
 479 136 479 136 479 110 c 0,51,52
 479 83 479 83 469.5 60.5 c 128,-1,53
 460 38 460 38 443 21 c 128,-1,54
 426 4 426 4 403 -5.5 c 128,-1,55
 380 -15 380 -15 354 -15 c 256,56,57
 328 -15 328 -15 305 -5.5 c 128,-1,58
 282 4 282 4 265.5 21 c 128,-1,59
 249 38 249 38 239.5 60.5 c 128,-1,60
 230 83 230 83 230 110 c 0,41,42
EndSplineSet
Substitution2: "<17,16> Show Invisibles lookup 1 subtable" F
EndChar

StartChar: G
Encoding: 71 71 44
Width: 1160
VWidth: 2000
Flags: W
LayerCount: 2
Fore
SplineSet
1012 791 m 1,0,-1
 1012 717 l 1,1,-1
 238 338 l 1,2,-1
 238 460 l 2,3,4
 238 476 238 476 247.5 489.5 c 128,-1,5
 257 503 257 503 282 515 c 2,6,-1
 723 724 l 2,7,8
 764 743 764 743 820 754 c 1,9,10
 793 760 793 760 768.5 767 c 128,-1,11
 744 774 744 774 723 784 c 2,12,-1
 282 991 l 2,13,14
 256 1002 256 1002 247 1016 c 128,-1,15
 238 1030 238 1030 238 1046 c 2,16,-1
 238 1168 l 1,17,-1
 1012 791 l 1,0,-1
1012 80 m 1,18,-1
 238 80 l 1,19,-1
 238 215 l 1,20,-1
 1012 215 l 1,21,-1
 1012 80 l 1,18,-1
EndSplineSet
Substitution2: "<17,16> Show Invisibles lookup 1 subtable" G
EndChar

StartChar: H
Encoding: 72 72 45
Width: 911
VWidth: 2000
Flags: W
LayerCount: 2
Fore
SplineSet
843 0 m 1,0,-1
 62 0 l 1,1,-1
 62 152 l 1,2,-1
 843 152 l 1,3,-1
 843 0 l 1,0,-1
776 531 m 1,4,-1
 127 531 l 1,5,-1
 127 683 l 1,6,-1
 776 683 l 1,7,-1
 776 531 l 1,4,-1
843 1012 m 1,8,-1
 62 1012 l 1,9,-1
 62 1165 l 1,10,-1
 843 1165 l 1,11,-1
 843 1012 l 1,8,-1
EndSplineSet
Substitution2: "<17,16> Show Invisibles lookup 1 subtable" H
EndChar

StartChar: I
Encoding: 73 73 46
Width: 1155
VWidth: 2000
Flags: W
LayerCount: 2
Fore
SplineSet
675 731 m 1,0,-1
 684 1335 l 2,1,2
 684 1385 684 1385 661.5 1417 c 128,-1,3
 639 1449 639 1449 603.5 1449 c 128,-1,4
 568 1449 568 1449 545 1417 c 128,-1,5
 522 1385 522 1385 522 1335 c 2,6,-1
 531 731 l 1,7,-1
 531 253 l 1,8,9
 458 340 458 340 259 598 c 0,10,11
 227 638 227 638 193.5 638 c 128,-1,12
 160 638 160 638 138.5 616.5 c 128,-1,13
 117 595 117 595 117 569 c 128,-1,14
 117 543 117 543 123.5 525 c 128,-1,15
 130 507 130 507 150.5 480.5 c 128,-1,16
 171 454 171 454 190 431 c 0,17,18
 275 338 275 338 311.5 294.5 c 128,-1,19
 348 251 348 251 411 178 c 128,-1,20
 474 105 474 105 524 46 c 1,21,22
 566 4 566 4 602.5 4 c 128,-1,23
 639 4 639 4 682 46 c 1,24,25
 732 105 732 105 795 178 c 128,-1,26
 858 251 858 251 881 278.5 c 128,-1,27
 904 306 904 306 949 357 c 128,-1,28
 994 408 994 408 1014.5 431 c 128,-1,29
 1035 454 1035 454 1056 481 c 0,30,31
 1088 524 1088 524 1088 559.5 c 128,-1,32
 1088 595 1088 595 1067 616.5 c 128,-1,33
 1046 638 1046 638 1012 638 c 128,-1,34
 978 638 978 638 946 598 c 0,35,36
 748 340 748 340 675 253 c 1,37,-1
 675 731 l 1,0,-1
EndSplineSet
Substitution2: "<17,16> Show Invisibles lookup 1 subtable" I
EndChar

StartChar: J
Encoding: 74 74 47
Width: 1715
VWidth: 2000
Flags: W
LayerCount: 2
Fore
SplineSet
851 794 m 1,0,-1
 1529 805 l 2,1,2
 1585 805 1585 805 1621 776.5 c 128,-1,3
 1657 748 1657 748 1657 702 c 128,-1,4
 1657 656 1657 656 1621 626 c 128,-1,5
 1585 596 1585 596 1529 596 c 2,6,-1
 851 607 l 1,7,-1
 314 607 l 1,8,9
 412 512 412 512 702 254 c 0,10,11
 747 213 747 213 747 169 c 128,-1,12
 747 125 747 125 722 97.5 c 128,-1,13
 697 70 697 70 668.5 70 c 128,-1,14
 640 70 640 70 619.5 78 c 128,-1,15
 599 86 599 86 569.5 112.5 c 128,-1,16
 540 139 540 139 514 164 c 0,17,18
 410 275 410 275 360.5 322 c 128,-1,19
 311 369 311 369 229 451 c 128,-1,20
 147 533 147 533 81 598 c 1,21,22
 34 653 34 653 34 700.5 c 128,-1,23
 34 748 34 748 81 803 c 1,24,25
 147 868 147 868 229 950 c 128,-1,26
 311 1032 311 1032 342 1062 c 128,-1,27
 373 1092 373 1092 430.5 1150.5 c 128,-1,28
 488 1209 488 1209 514 1235.5 c 128,-1,29
 540 1262 540 1262 570 1290 c 0,30,31
 619 1331 619 1331 658 1331 c 128,-1,32
 697 1331 697 1331 722 1303.5 c 128,-1,33
 747 1276 747 1276 747 1232 c 128,-1,34
 747 1188 747 1188 702 1147 c 0,35,36
 412 889 412 889 314 794 c 1,37,-1
 851 794 l 1,0,-1
EndSplineSet
Substitution2: "<17,16> Show Invisibles lookup 1 subtable" J
EndChar

StartChar: K
Encoding: 75 75 48
Width: 1155
VWidth: 2000
Flags: W
LayerCount: 2
Fore
SplineSet
604 728 m 1,0,-1
 613 124 l 2,1,2
 613 74 613 74 590.5 42 c 128,-1,3
 568 10 568 10 532.5 10 c 128,-1,4
 497 10 497 10 474 42 c 128,-1,5
 451 74 451 74 451 124 c 2,6,-1
 460 728 l 1,7,-1
 460 1206 l 1,8,9
 387 1119 387 1119 188 861 c 0,10,11
 156 821 156 821 122.5 821 c 128,-1,12
 89 821 89 821 67.5 842.5 c 128,-1,13
 46 864 46 864 46 890 c 128,-1,14
 46 916 46 916 52.5 934 c 128,-1,15
 59 952 59 952 79.5 978.5 c 128,-1,16
 100 1005 100 1005 119 1028 c 0,17,18
 204 1121 204 1121 240.5 1164.5 c 128,-1,19
 277 1208 277 1208 340 1281 c 128,-1,20
 403 1354 403 1354 453 1413 c 1,21,22
 495 1455 495 1455 531.5 1455 c 128,-1,23
 568 1455 568 1455 611 1413 c 1,24,25
 661 1354 661 1354 724 1281 c 128,-1,26
 787 1208 787 1208 810 1180.5 c 128,-1,27
 833 1153 833 1153 878 1102 c 128,-1,28
 923 1051 923 1051 943.5 1028 c 128,-1,29
 964 1005 964 1005 985 978 c 0,30,31
 1017 935 1017 935 1017 899.5 c 128,-1,32
 1017 864 1017 864 996 842.5 c 128,-1,33
 975 821 975 821 941 821 c 128,-1,34
 907 821 907 821 875 861 c 0,35,36
 677 1119 677 1119 604 1206 c 1,37,-1
 604 728 l 1,0,-1
EndSplineSet
Substitution2: "<17,16> Show Invisibles lookup 1 subtable" K
EndChar

StartChar: L
Encoding: 76 76 49
Width: 1721
VWidth: 2000
Flags: W
LayerCount: 2
Fore
SplineSet
832 794 m 1,0,-1
 154 805 l 2,1,2
 98 805 98 805 62 776.5 c 128,-1,3
 26 748 26 748 26 702 c 128,-1,4
 26 656 26 656 62 626 c 128,-1,5
 98 596 98 596 154 596 c 2,6,-1
 832 607 l 1,7,-1
 1369 607 l 1,8,9
 1271 512 1271 512 981 254 c 0,10,11
 936 213 936 213 936 169 c 128,-1,12
 936 125 936 125 961 97.5 c 128,-1,13
 986 70 986 70 1014.5 70 c 128,-1,14
 1043 70 1043 70 1063.5 78 c 128,-1,15
 1084 86 1084 86 1113.5 112.5 c 128,-1,16
 1143 139 1143 139 1169 164 c 0,17,18
 1273 275 1273 275 1322.5 322 c 128,-1,19
 1372 369 1372 369 1454 451 c 128,-1,20
 1536 533 1536 533 1602 598 c 1,21,22
 1649 653 1649 653 1649 700.5 c 128,-1,23
 1649 748 1649 748 1602 803 c 1,24,25
 1536 868 1536 868 1454 950 c 128,-1,26
 1372 1032 1372 1032 1341 1062 c 128,-1,27
 1310 1092 1310 1092 1252.5 1150.5 c 128,-1,28
 1195 1209 1195 1209 1169 1235.5 c 128,-1,29
 1143 1262 1143 1262 1113 1290 c 0,30,31
 1064 1331 1064 1331 1025 1331 c 128,-1,32
 986 1331 986 1331 961 1303.5 c 128,-1,33
 936 1276 936 1276 936 1232 c 128,-1,34
 936 1188 936 1188 981 1147 c 0,35,36
 1271 889 1271 889 1369 794 c 1,37,-1
 832 794 l 1,0,-1
EndSplineSet
Substitution2: "<17,16> Show Invisibles lookup 1 subtable" L
EndChar

StartChar: M
Encoding: 77 77 50
Width: 1460
VWidth: 2000
Flags: W
LayerCount: 2
Fore
SplineSet
731 1279 m 256,0,1
 820 1279 820 1279 890 1249 c 128,-1,2
 960 1219 960 1219 1008.5 1165 c 128,-1,3
 1057 1111 1057 1111 1082.5 1036 c 128,-1,4
 1108 961 1108 961 1108 871 c 2,5,-1
 1108 0 l 1,6,-1
 1301 0 l 1,7,-1
 1301 871 l 2,8,9
 1301 995 1301 995 1261.5 1101 c 128,-1,10
 1222 1207 1222 1207 1148.5 1284.5 c 128,-1,11
 1075 1362 1075 1362 969 1406 c 128,-1,12
 863 1450 863 1450 731 1450 c 256,13,14
 599 1450 599 1450 493 1406 c 128,-1,15
 387 1362 387 1362 313 1284.5 c 128,-1,16
 239 1207 239 1207 199.5 1101 c 128,-1,17
 160 995 160 995 160 871 c 2,18,-1
 160 0 l 1,19,-1
 353 0 l 1,20,-1
 353 870 l 2,21,22
 353 960 353 960 378.5 1035 c 128,-1,23
 404 1110 404 1110 452.5 1164 c 128,-1,24
 501 1218 501 1218 571.5 1248.5 c 128,-1,25
 642 1279 642 1279 731 1279 c 256,0,1
EndSplineSet
Substitution2: "<17,16> Show Invisibles lookup 1 subtable" M
EndChar

StartChar: N
Encoding: 78 78 51
Width: 524
VWidth: 2000
Flags: W
LayerCount: 2
Fore
SplineSet
357 -107 m 2,0,1
 357 -269 357 -269 275 -353 c 128,-1,2
 193 -437 193 -437 35 -437 c 0,3,4
 -22 -437 -22 -437 -80 -417 c 1,5,-1
 -62 -272 l 1,6,7
 -16 -285 -16 -285 17 -285 c 0,8,9
 172 -285 172 -285 172 -108 c 2,10,-1
 172 1197 l 2,11,12
 172 1367 172 1367 260.5 1462 c 128,-1,13
 349 1557 349 1557 510 1557 c 0,14,15
 570 1557 570 1557 654 1536 c 1,16,-1
 630 1394 l 1,17,18
 593 1405 593 1405 539 1405 c 0,19,20
 357 1405 357 1405 357 1186 c 2,21,-1
 357 -107 l 2,0,1
EndSplineSet
Substitution2: "<17,16> Show Invisibles lookup 1 subtable" N
EndChar

StartChar: O
Encoding: 79 79 52
Width: 1596
VWidth: 2000
Flags: W
LayerCount: 2
Fore
SplineSet
599 708.5 m 4,0,1
 599 750.5 599 750.5 615 784.5 c 132,-1,2
 631 818.5 631 818.5 658.5 843.5 c 132,-1,3
 686 868.5 686 868.5 722 882 c 132,-1,4
 758 895.5 758 895.5 798 895.5 c 4,5,6
 839 895.5 839 895.5 875.5 882 c 132,-1,7
 912 868.5 912 868.5 940 843.5 c 132,-1,8
 968 818.5 968 818.5 984 784.5 c 132,-1,9
 1000 750.5 1000 750.5 1000 708.5 c 4,10,11
 1000 667.5 1000 667.5 984 633.5 c 132,-1,12
 968 599.5 968 599.5 940 575.5 c 132,-1,13
 912 551.5 912 551.5 875.5 538 c 132,-1,14
 839 524.5 839 524.5 798 524.5 c 4,15,16
 758 524.5 758 524.5 722 538 c 132,-1,17
 686 551.5 686 551.5 658.5 575.5 c 132,-1,18
 631 599.5 631 599.5 615 633.5 c 132,-1,19
 599 667.5 599 667.5 599 708.5 c 4,0,1
699 708.5 m 4,20,21
 699 664.5 699 664.5 726 636.5 c 132,-1,22
 753 608.5 753 608.5 800 608.5 c 4,23,24
 845 608.5 845 608.5 872.5 636.5 c 132,-1,25
 900 664.5 900 664.5 900 708.5 c 4,26,27
 900 753.5 900 753.5 872.5 781.5 c 132,-1,28
 845 809.5 845 809.5 800 809.5 c 4,29,30
 753 809.5 753 809.5 726 781.5 c 132,-1,31
 699 753.5 699 753.5 699 708.5 c 4,20,21
1505 716 m 256,32,33
 1505 555 1505 555 1454 420.5 c 128,-1,34
 1403 286 1403 286 1310 189 c 128,-1,35
 1217 92 1217 92 1086.5 38.5 c 128,-1,36
 956 -15 956 -15 798 -15 c 256,37,38
 640 -15 640 -15 510 38.5 c 128,-1,39
 380 92 380 92 287 189 c 128,-1,40
 194 286 194 286 143 420.5 c 128,-1,41
 92 555 92 555 92 716 c 256,42,43
 92 877 92 877 143 1011.5 c 128,-1,44
 194 1146 194 1146 287 1243.5 c 128,-1,45
 380 1341 380 1341 510 1395 c 128,-1,46
 640 1449 640 1449 798 1449 c 256,47,48
 956 1449 956 1449 1086.5 1395 c 128,-1,49
 1217 1341 1217 1341 1310 1243.5 c 128,-1,50
 1403 1146 1403 1146 1454 1011.5 c 128,-1,51
 1505 877 1505 877 1505 716 c 256,32,33
1306 716 m 256,52,53
 1306 848 1306 848 1270 953 c 128,-1,54
 1234 1058 1234 1058 1168 1130.5 c 128,-1,55
 1102 1203 1102 1203 1008 1242 c 128,-1,56
 914 1281 914 1281 798 1281 c 0,57,58
 683 1281 683 1281 589 1242 c 128,-1,59
 495 1203 495 1203 428.5 1130.5 c 128,-1,60
 362 1058 362 1058 326 953 c 128,-1,61
 290 848 290 848 290 716 c 256,62,63
 290 584 290 584 326 479.5 c 128,-1,64
 362 375 362 375 428.5 302.5 c 128,-1,65
 495 230 495 230 589 191.5 c 128,-1,66
 683 153 683 153 798 153 c 0,67,68
 914 153 914 153 1008 191.5 c 128,-1,69
 1102 230 1102 230 1168 302.5 c 128,-1,70
 1234 375 1234 375 1270 479.5 c 128,-1,71
 1306 584 1306 584 1306 716 c 256,52,53
EndSplineSet
Substitution2: "<17,16> Show Invisibles lookup 1 subtable" O
EndChar

StartChar: P
Encoding: 80 80 53
Width: 1160
VWidth: 2000
Flags: W
LayerCount: 2
Fore
SplineSet
148 791 m 1,0,-1
 922 1168 l 1,1,-1
 922 1046 l 2,2,3
 922 1030 922 1030 913 1016.5 c 128,-1,4
 904 1003 904 1003 878 991 c 2,5,-1
 437 784 l 2,6,7
 391 766 391 766 340 754 c 1,8,9
 366 749 366 749 391 741.5 c 128,-1,10
 416 734 416 734 437 724 c 2,11,-1
 878 515 l 2,12,13
 903 503 903 503 912.5 489.5 c 128,-1,14
 922 476 922 476 922 460 c 2,15,-1
 922 338 l 1,16,-1
 148 717 l 1,17,-1
 148 791 l 1,0,-1
148 215 m 1,18,-1
 922 215 l 1,19,-1
 922 80 l 1,20,-1
 148 80 l 1,21,-1
 148 215 l 1,18,-1
EndSplineSet
Substitution2: "<17,16> Show Invisibles lookup 1 subtable" P
EndChar

StartChar: Q
Encoding: 81 81 54
Width: 1160
VWidth: 2000
Flags: W
LayerCount: 2
Fore
SplineSet
787 858 m 0,0,1
 816 858 816 858 843 865 c 128,-1,2
 870 872 870 872 893 882.5 c 128,-1,3
 916 893 916 893 933 905 c 128,-1,4
 950 917 950 917 959 928 c 1,5,-1
 984 814 l 1,6,7
 949 767 949 767 893 744 c 128,-1,8
 837 721 837 721 776 721 c 0,9,10
 724 721 724 721 672.5 737.5 c 128,-1,11
 621 754 621 754 570.5 774 c 128,-1,12
 520 794 520 794 472.5 810.5 c 128,-1,13
 425 827 425 827 380 827 c 0,14,15
 350 827 350 827 322 820.5 c 128,-1,16
 294 814 294 814 271 803.5 c 128,-1,17
 248 793 248 793 231 780.5 c 128,-1,18
 214 768 214 768 205 756 c 1,19,-1
 176 865 l 1,20,21
 211 916 211 916 267.5 940.5 c 128,-1,22
 324 965 324 965 390 965 c 0,23,24
 443 965 443 965 495 948.5 c 128,-1,25
 547 932 547 932 597 911.5 c 128,-1,26
 647 891 647 891 694.5 874.5 c 128,-1,27
 742 858 742 858 787 858 c 0,0,1
787 520 m 0,28,29
 816 520 816 520 843 526.5 c 128,-1,30
 870 533 870 533 893 543.5 c 128,-1,31
 916 554 916 554 933 566 c 128,-1,32
 950 578 950 578 959 589 c 1,33,-1
 984 476 l 1,34,35
 949 428 949 428 893 405 c 128,-1,36
 837 382 837 382 776 382 c 0,37,38
 724 382 724 382 672.5 398.5 c 128,-1,39
 621 415 621 415 570.5 435.5 c 128,-1,40
 520 456 520 456 472.5 472.5 c 128,-1,41
 425 489 425 489 380 489 c 0,42,43
 350 489 350 489 322 482 c 128,-1,44
 294 475 294 475 271 464.5 c 128,-1,45
 248 454 248 454 231 441.5 c 128,-1,46
 214 429 214 429 205 417 c 1,47,-1
 176 526 l 1,48,49
 211 577 211 577 267.5 601.5 c 128,-1,50
 324 626 324 626 390 626 c 0,51,52
 443 626 443 626 495 609.5 c 128,-1,53
 547 593 547 593 597 573 c 128,-1,54
 647 553 647 553 694.5 536.5 c 128,-1,55
 742 520 742 520 787 520 c 0,28,29
EndSplineSet
Substitution2: "<17,16> Show Invisibles lookup 1 subtable" Q
EndChar

StartChar: R
Encoding: 82 82 55
Width: 1160
VWidth: 2000
Flags: W
LayerCount: 2
Fore
SplineSet
100 739 m 1,0,-1
 1058 739 l 1,1,-1
 1058 604 l 1,2,-1
 100 604 l 1,3,-1
 100 739 l 1,0,-1
454 1026 m 0,4,5
 454 1052 454 1052 463.5 1075 c 128,-1,6
 473 1098 473 1098 489.5 1115 c 128,-1,7
 506 1132 506 1132 528.5 1142 c 128,-1,8
 551 1152 551 1152 578 1152 c 0,9,10
 604 1152 604 1152 626.5 1142 c 128,-1,11
 649 1132 649 1132 666 1115 c 128,-1,12
 683 1098 683 1098 693 1075 c 128,-1,13
 703 1052 703 1052 703 1026 c 0,14,15
 703 999 703 999 693 976.5 c 128,-1,16
 683 954 683 954 666 937 c 128,-1,17
 649 920 649 920 626.5 910.5 c 128,-1,18
 604 901 604 901 578 901 c 0,19,20
 551 901 551 901 528.5 910.5 c 128,-1,21
 506 920 506 920 489.5 937 c 128,-1,22
 473 954 473 954 463.5 976.5 c 128,-1,23
 454 999 454 999 454 1026 c 0,4,5
454 314 m 0,24,25
 454 340 454 340 463.5 363 c 128,-1,26
 473 386 473 386 489.5 403 c 128,-1,27
 506 420 506 420 528.5 430 c 128,-1,28
 551 440 551 440 578 440 c 0,29,30
 604 440 604 440 626.5 430 c 128,-1,31
 649 420 649 420 666 403 c 128,-1,32
 683 386 683 386 693 363 c 128,-1,33
 703 340 703 340 703 314 c 0,34,35
 703 287 703 287 693 264.5 c 128,-1,36
 683 242 683 242 666 225 c 128,-1,37
 649 208 649 208 626.5 198.5 c 128,-1,38
 604 189 604 189 578 189 c 0,39,40
 551 189 551 189 528.5 198.5 c 128,-1,41
 506 208 506 208 489.5 225 c 128,-1,42
 473 242 473 242 463.5 264.5 c 128,-1,43
 454 287 454 287 454 314 c 0,24,25
EndSplineSet
Substitution2: "<17,16> Show Invisibles lookup 1 subtable" R
EndChar

StartChar: S
Encoding: 83 83 56
Width: 1199
VWidth: 2000
Flags: W
LayerCount: 2
Fore
SplineSet
875 577 m 1,0,-1
 294 -117 l 1,1,-1
 1195 -117 l 1,2,-1
 1195 -269 l 1,3,-1
 69 -269 l 1,4,-1
 69 -126 l 1,5,-1
 678 590 l 1,6,-1
 69 1312 l 1,7,-1
 69 1456 l 1,8,-1
 1118 1456 l 1,9,-1
 1118 1304 l 1,10,-1
 293 1304 l 1,11,-1
 875 602 l 1,12,-1
 875 577 l 1,0,-1
EndSplineSet
Substitution2: "<17,16> Show Invisibles lookup 1 subtable" S
EndChar

StartChar: T
Encoding: 84 84 57
Width: 1444
VWidth: 2000
Flags: W
LayerCount: 2
Fore
SplineSet
646 1456 m 1,0,-1
 816 1456 l 1,1,-1
 1395 0 l 1,2,-1
 31 0 l 1,3,-1
 646 1456 l 1,0,-1
293 157 m 1,4,-1
 1137 157 l 1,5,-1
 728 1221 l 1,6,-1
 293 157 l 1,4,-1
EndSplineSet
Substitution2: "<17,16> Show Invisibles lookup 1 subtable" T
EndChar

StartChar: U
Encoding: 85 85 58
Width: 1460
VWidth: 2000
Flags: W
LayerCount: 2
Fore
SplineSet
731 154 m 256,0,1
 820 154 820 154 890 184 c 128,-1,2
 960 214 960 214 1008.5 268 c 128,-1,3
 1057 322 1057 322 1082.5 397 c 128,-1,4
 1108 472 1108 472 1108 562 c 2,5,-1
 1108 1433 l 1,6,-1
 1301 1433 l 1,7,-1
 1301 562 l 2,8,9
 1301 438 1301 438 1261.5 332 c 128,-1,10
 1222 226 1222 226 1148.5 148.5 c 128,-1,11
 1075 71 1075 71 969 27 c 128,-1,12
 863 -17 863 -17 731 -17 c 256,13,14
 599 -17 599 -17 493 27 c 128,-1,15
 387 71 387 71 313 148.5 c 128,-1,16
 239 226 239 226 199.5 332 c 128,-1,17
 160 438 160 438 160 562 c 2,18,-1
 160 1433 l 1,19,-1
 353 1433 l 1,20,-1
 353 563 l 2,21,22
 353 473 353 473 378.5 398 c 128,-1,23
 404 323 404 323 452.5 269 c 128,-1,24
 501 215 501 215 571.5 184.5 c 128,-1,25
 642 154 642 154 731 154 c 256,0,1
EndSplineSet
Substitution2: "<17,16> Show Invisibles lookup 1 subtable" U
EndChar

StartChar: V
Encoding: 86 86 59
Width: 926
VWidth: 2000
Flags: W
LayerCount: 2
Fore
SplineSet
138 518 m 1,0,-1
 138 541 l 1,1,-1
 387 930 l 1,2,-1
 445 902 l 2,3,4
 459 895 459 895 466 884 c 128,-1,5
 473 873 473 873 473 860 c 0,6,7
 473 843 473 843 463 827 c 2,8,-1
 304 566 l 2,9,10
 290 542 290 542 276 529 c 1,11,12
 291 515 291 515 304 493 c 2,13,-1
 463 232 l 2,14,15
 468 224 468 224 470.5 215 c 128,-1,16
 473 206 473 206 473 198 c 0,17,18
 473 170 473 170 445 157 c 2,19,-1
 387 129 l 1,20,-1
 138 518 l 1,0,-1
434 518 m 1,21,-1
 434 541 l 1,22,-1
 683 930 l 1,23,-1
 741 902 l 2,24,25
 755 895 755 895 762 884 c 128,-1,26
 769 873 769 873 769 860 c 0,27,28
 769 843 769 843 759 827 c 2,29,-1
 600 566 l 2,30,31
 586 542 586 542 572 529 c 1,32,33
 587 515 587 515 600 493 c 2,34,-1
 759 232 l 2,35,36
 764 224 764 224 766.5 215 c 128,-1,37
 769 206 769 206 769 198 c 0,38,39
 769 170 769 170 741 157 c 2,40,-1
 683 129 l 1,41,-1
 434 518 l 1,21,-1
EndSplineSet
Substitution2: "<17,16> Show Invisibles lookup 1 subtable" V
EndChar

StartChar: W
Encoding: 87 87 60
Width: 926
VWidth: 2000
Flags: W
LayerCount: 2
Fore
SplineSet
236 129 m 1,0,-1
 178 157 l 2,1,2
 150 170 150 170 150 198 c 0,3,4
 150 215 150 215 160 232 c 2,5,-1
 319 493 l 2,6,7
 332 517 332 517 346 529 c 1,8,9
 334 540 334 540 319 566 c 2,10,-1
 160 827 l 2,11,12
 150 844 150 844 150 861 c 0,13,14
 150 889 150 889 178 902 c 2,15,-1
 236 930 l 1,16,-1
 485 541 l 1,17,-1
 485 518 l 1,18,-1
 236 129 l 1,0,-1
781 541 m 1,19,-1
 781 518 l 1,20,-1
 532 129 l 1,21,-1
 474 157 l 2,22,23
 446 170 446 170 446 198 c 0,24,25
 446 215 446 215 456 232 c 2,26,-1
 615 493 l 2,27,28
 628 517 628 517 642 529 c 1,29,30
 630 540 630 540 615 566 c 2,31,-1
 456 827 l 2,32,33
 446 844 446 844 446 861 c 0,34,35
 446 889 446 889 474 902 c 2,36,-1
 532 930 l 1,37,-1
 781 541 l 1,19,-1
EndSplineSet
Substitution2: "<17,16> Show Invisibles lookup 1 subtable" W
EndChar

StartChar: X
Encoding: 88 88 61
Width: 1160
VWidth: 2000
Flags: W
LayerCount: 2
Fore
SplineSet
1017 1014 m 1,0,-1
 673 670 l 1,1,-1
 1027 317 l 1,2,-1
 932 221 l 1,3,-1
 578 575 l 1,4,-1
 221 219 l 1,5,-1
 126 315 l 1,6,-1
 482 671 l 1,7,-1
 137 1016 l 1,8,-1
 232 1112 l 1,9,-1
 577 766 l 1,10,-1
 921 1110 l 1,11,-1
 1017 1014 l 1,0,-1
EndSplineSet
Substitution2: "<17,16> Show Invisibles lookup 1 subtable" X
EndChar

StartChar: Y
Encoding: 89 89 62
Width: 1422
VWidth: 2000
Flags: W
LayerCount: 2
Fore
SplineSet
1186 917 m 2,0,1
 1226 939 1226 939 1297 894 c 0,2,3
 1358 855 1358 855 1340 830 c 0,4,5
 1297 772 1297 772 1297 766 c 1,6,-1
 1186 741 l 1,7,-1
 149 170 l 1,8,9
 93 214 93 214 93 255 c 1,10,-1
 26 697 l 1,11,-1
 226 666 l 1,12,13
 252 535 252 535 277 404 c 1,14,-1
 1186 917 l 2,0,1
EndSplineSet
Substitution2: "<17,16> Show Invisibles lookup 1 subtable" Y
EndChar

StartChar: Z
Encoding: 90 90 63
Width: 1160
VWidth: 2000
Flags: W
LayerCount: 2
Fore
SplineSet
150 909 m 1,0,-1
 639 909 l 1,1,-1
 753 1150 l 1,2,-1
 882 1150 l 1,3,-1
 768 909 l 1,4,-1
 1009 909 l 1,5,-1
 1009 774 l 1,6,-1
 705 774 l 1,7,-1
 610 574 l 1,8,-1
 1009 574 l 1,9,-1
 1009 439 l 1,10,-1
 547 439 l 1,11,-1
 428 187 l 1,12,-1
 299 187 l 1,13,-1
 418 439 l 1,14,-1
 150 439 l 1,15,-1
 150 574 l 1,16,-1
 481 574 l 1,17,-1
 576 774 l 1,18,-1
 150 774 l 1,19,-1
 150 909 l 1,0,-1
EndSplineSet
Substitution2: "<17,16> Show Invisibles lookup 1 subtable" Z
EndChar

StartChar: backslash
Encoding: 92 92 64
Width: 525
Flags: W
LayerCount: 2
Fore
SplineSet
128 1304 m 1,0,-1
 550 -35 l 1,1,-1
 387 -35 l 1,2,-1
 -30 1304 l 1,3,-1
 128 1304 l 1,0,-1
EndSplineSet
Substitution2: "<17,16> Show Invisibles lookup 1 subtable" backslash
EndChar

StartChar: grave
Encoding: 96 96 65
Width: 365
Flags: W
LayerCount: 2
Fore
SplineSet
79 816 m 1,0,-1
 79 1050 l 2,1,2
 79 1097 79 1097 96 1137 c 128,-1,3
 113 1177 113 1177 144.5 1208.5 c 128,-1,4
 176 1240 176 1240 220.5 1262.5 c 128,-1,5
 265 1285 265 1285 320 1298 c 1,6,-1
 320 1178 l 1,7,8
 270 1161 270 1161 255 1130.5 c 128,-1,9
 240 1100 240 1100 240 1050 c 2,10,-1
 240 1036 l 1,11,-1
 320 1036 l 1,12,-1
 320 816 l 1,13,-1
 79 816 l 1,0,-1
EndSplineSet
Substitution2: "<17,16> Show Invisibles lookup 1 subtable" grave
EndChar

StartChar: a
Encoding: 97 97 66
Width: 1030
Flags: W
LayerCount: 2
Fore
SplineSet
-24 980 m 1,0,-1
 -24 1118 l 1,1,-1
 1052 1118 l 5,2,-1
 1052 980 l 5,3,-1
 -24 980 l 1,0,-1
109 651 m 1,4,5
 113 722 113 722 148.5 774 c 128,-1,6
 184 826 184 826 237 859.5 c 128,-1,7
 290 893 290 893 355.5 909 c 128,-1,8
 421 925 421 925 486 925 c 0,9,10
 558 925 558 925 625 910 c 128,-1,11
 692 895 692 895 744 862.5 c 128,-1,12
 796 830 796 830 827.5 778 c 128,-1,13
 859 726 859 726 859 652 c 2,14,-1
 859 184 l 2,15,16
 859 159 859 159 869.5 138 c 128,-1,17
 880 117 880 117 895 117 c 0,18,19
 905 117 905 117 967 138 c 1,20,-1
 967 4 l 1,21,22
 927 -7 927 -7 901 -12.5 c 128,-1,23
 875 -18 875 -18 847 -18 c 0,24,25
 790 -18 790 -18 748 12.5 c 128,-1,26
 706 43 706 43 689 106 c 1,27,28
 653 69 653 69 615 45 c 128,-1,29
 577 21 577 21 538 7 c 128,-1,30
 499 -7 499 -7 459 -12.5 c 128,-1,31
 419 -18 419 -18 379 -18 c 0,32,33
 317 -18 317 -18 264 0.5 c 128,-1,34
 211 19 211 19 171 53 c 128,-1,35
 131 87 131 87 108.5 135 c 128,-1,36
 86 183 86 183 86 243 c 0,37,38
 86 307 86 307 120 352 c 128,-1,39
 154 397 154 397 208 428.5 c 128,-1,40
 262 460 262 460 328 481.5 c 128,-1,41
 394 503 394 503 457 520 c 0,42,43
 499 532 499 532 537 544 c 128,-1,44
 575 556 575 556 604.5 571 c 128,-1,45
 634 586 634 586 651.5 605.5 c 128,-1,46
 669 625 669 625 669 652 c 0,47,48
 669 726 669 726 620 758 c 128,-1,49
 571 790 571 790 483 790 c 0,50,51
 450 790 450 790 420 782.5 c 128,-1,52
 390 775 390 775 366.5 758 c 128,-1,53
 343 741 343 741 327 714.5 c 128,-1,54
 311 688 311 688 305 651 c 1,55,-1
 109 651 l 1,4,5
669 469 m 1,56,57
 632 449 632 449 585.5 434.5 c 128,-1,58
 539 420 539 420 490 406 c 0,59,60
 449 394 449 394 410.5 381.5 c 128,-1,61
 372 369 372 369 342 351.5 c 128,-1,62
 312 334 312 334 294 309.5 c 128,-1,63
 276 285 276 285 276 250 c 0,64,65
 276 214 276 214 287 189 c 128,-1,66
 298 164 298 164 315 148 c 128,-1,67
 332 132 332 132 354 124.5 c 128,-1,68
 376 117 376 117 399 117 c 0,69,70
 471 117 471 117 542.5 165 c 128,-1,71
 614 213 614 213 673 313 c 1,72,-1
 669 308 l 1,73,-1
 669 469 l 1,56,57
EndSplineSet
Substitution2: "<17,16> Show Invisibles lookup 1 subtable" a
EndChar

StartChar: b
Encoding: 98 98 67
Width: 1000
Flags: W
LayerCount: 2
Fore
SplineSet
435 267 m 0,0,1
 354 267 354 267 281 293.5 c 128,-1,2
 208 320 208 320 153 365.5 c 128,-1,3
 98 411 98 411 66 472 c 128,-1,4
 34 533 34 533 34 601 c 0,5,6
 34 658 34 658 64.5 708.5 c 128,-1,7
 95 759 95 759 145.5 797.5 c 128,-1,8
 196 836 196 836 261 858 c 128,-1,9
 326 880 326 880 396 880 c 0,10,11
 467 880 467 880 530 859 c 128,-1,12
 593 838 593 838 643 806 c 1,13,-1
 643 980 l 1,14,-1
 -25 980 l 1,15,-1
 -25 1118 l 1,16,-1
 1036 1118 l 1,17,-1
 1036 980 l 1,18,-1
 820 980 l 1,19,-1
 820 0 l 1,20,-1
 643 0 l 1,21,-1
 643 318 l 1,22,23
 599 295 599 295 544 281 c 128,-1,24
 489 267 489 267 435 267 c 0,0,1
266 727 m 1,25,26
 234 706 234 706 216 673 c 128,-1,27
 198 640 198 640 198 595 c 0,28,29
 198 558 198 558 217 520 c 128,-1,30
 236 482 236 482 269 451 c 128,-1,31
 302 420 302 420 346 400.5 c 128,-1,32
 390 381 390 381 439 381 c 0,33,34
 446 381 446 381 453 381 c 128,-1,35
 460 381 460 381 468 383 c 1,36,-1
 266 727 l 1,25,26
583 435 m 1,37,38
 610 458 610 458 626.5 486 c 128,-1,39
 643 514 643 514 643 544 c 2,40,-1
 643 570 l 2,41,42
 643 597 643 597 626 631 c 128,-1,43
 609 665 609 665 577.5 695 c 128,-1,44
 546 725 546 725 500 746 c 128,-1,45
 454 767 454 767 396 767 c 2,46,-1
 386 767 l 1,47,-1
 583 435 l 1,37,38
EndSplineSet
Substitution2: "<17,16> Show Invisibles lookup 1 subtable" b
EndChar

StartChar: c
Encoding: 99 99 68
Width: 1078
Flags: W
LayerCount: 2
Fore
SplineSet
1113 980 m 1,0,-1
 897 980 l 1,1,-1
 897 -38 l 1,2,-1
 720 104 l 1,3,-1
 720 373 l 1,4,5
 654 324 654 324 582.5 295 c 128,-1,6
 511 266 511 266 430 266 c 0,7,8
 379 266 379 266 327.5 277 c 128,-1,9
 276 288 276 288 234.5 314 c 128,-1,10
 193 340 193 340 167 384 c 128,-1,11
 141 428 141 428 141 493 c 0,12,13
 141 530 141 530 157.5 565 c 128,-1,14
 174 600 174 600 198.5 630 c 128,-1,15
 223 660 223 660 252.5 685 c 128,-1,16
 282 710 282 710 308 727 c 1,17,-1
 34 727 l 1,18,-1
 34 865 l 1,19,-1
 576 865 l 1,20,-1
 620 735 l 1,21,22
 531 702 531 702 473 669 c 128,-1,23
 415 636 415 636 380.5 605.5 c 128,-1,24
 346 575 346 575 332 547.5 c 128,-1,25
 318 520 318 520 318 498 c 0,26,27
 318 469 318 469 329 451 c 128,-1,28
 340 433 340 433 357 422.5 c 128,-1,29
 374 412 374 412 393.5 408 c 128,-1,30
 413 404 413 404 430 404 c 0,31,32
 460 404 460 404 491.5 412.5 c 128,-1,33
 523 421 523 421 558.5 441.5 c 128,-1,34
 594 462 594 462 635.5 495 c 128,-1,35
 677 528 677 528 729 577 c 1,36,-1
 720 570 l 1,37,-1
 720 980 l 1,38,-1
 -25 980 l 1,39,-1
 -25 1118 l 1,40,-1
 1113 1118 l 1,41,-1
 1113 980 l 1,0,-1
EndSplineSet
Substitution2: "<17,16> Show Invisibles lookup 1 subtable" c
EndChar

StartChar: d
Encoding: 100 100 69
Width: 1158
Flags: W
LayerCount: 2
Fore
SplineSet
799 980 m 1,0,-1
 -24 980 l 1,1,-1
 -24 1118 l 1,2,-1
 1192 1118 l 1,3,-1
 1192 980 l 1,4,-1
 976 980 l 1,5,-1
 976 767 l 1,6,-1
 506 767 l 2,7,8
 500 767 500 767 488.5 766 c 128,-1,9
 477 765 477 765 466 759.5 c 128,-1,10
 455 754 455 754 446.5 743 c 128,-1,11
 438 732 438 732 438 711 c 256,12,13
 438 690 438 690 443.5 670 c 128,-1,14
 449 650 449 650 460.5 634.5 c 128,-1,15
 472 619 472 619 490 609.5 c 128,-1,16
 508 600 508 600 534 600 c 0,17,18
 554 600 554 600 594 607 c 128,-1,19
 634 614 634 614 677 622 c 0,20,21
 717 630 717 630 752 636 c 128,-1,22
 787 642 787 642 813 642 c 0,23,24
 919 642 919 642 970.5 589 c 128,-1,25
 1022 536 1022 536 1022 439 c 0,26,27
 1022 369 1022 369 993 301.5 c 128,-1,28
 964 234 964 234 910.5 181 c 128,-1,29
 857 128 857 128 782.5 95.5 c 128,-1,30
 708 63 708 63 618 63 c 0,31,32
 521 63 521 63 437 96 c 128,-1,33
 353 129 353 129 280.5 190 c 128,-1,34
 208 251 208 251 147.5 338.5 c 128,-1,35
 87 426 87 426 36 536 c 1,36,-1
 156 615 l 1,37,38
 218 479 218 479 281 394 c 128,-1,39
 344 309 344 309 404 262 c 128,-1,40
 464 215 464 215 518 198 c 128,-1,41
 572 181 572 181 616 181 c 0,42,43
 666 181 666 181 708 202 c 128,-1,44
 750 223 750 223 780.5 258 c 128,-1,45
 811 293 811 293 828 340 c 128,-1,46
 845 387 845 387 845 439 c 0,47,48
 845 472 845 472 836.5 491 c 128,-1,49
 828 510 828 510 812 510 c 0,50,51
 783 510 783 510 750.5 505 c 128,-1,52
 718 500 718 500 684 494 c 1,53,-1
 685 494 l 1,54,55
 650 487 650 487 613 481.5 c 128,-1,56
 576 476 576 476 534 476 c 0,57,58
 463 476 463 476 411.5 498 c 128,-1,59
 360 520 360 520 327 554.5 c 128,-1,60
 294 589 294 589 278 632.5 c 128,-1,61
 262 676 262 676 262 719 c 0,62,63
 262 770 262 770 284.5 802.5 c 128,-1,64
 307 835 307 835 342.5 853 c 128,-1,65
 378 871 378 871 421 878 c 128,-1,66
 464 885 464 885 506 885 c 2,67,-1
 799 885 l 1,68,-1
 799 980 l 1,0,-1
EndSplineSet
Substitution2: "<17,16> Show Invisibles lookup 1 subtable" d
EndChar

StartChar: e
Encoding: 101 101 70
Width: 1008
Flags: W
LayerCount: 2
Fore
SplineSet
-24 980 m 5,0,-1
 -24 1118 l 5,1,-1
 1022 1118 l 5,2,-1
 1022 980 l 5,3,-1
 -24 980 l 5,0,-1
284 420 m 1,4,5
 286 361 286 361 305.5 306.5 c 128,-1,6
 325 252 325 252 357 210 c 128,-1,7
 389 168 389 168 431.5 142.5 c 128,-1,8
 474 117 474 117 524 117 c 0,9,10
 691 117 691 117 753 295 c 1,11,-1
 930 295 l 1,12,13
 915 220 915 220 876 162 c 128,-1,14
 837 104 837 104 782.5 64 c 128,-1,15
 728 24 728 24 661.5 3 c 128,-1,16
 595 -18 595 -18 524 -18 c 0,17,18
 424 -18 424 -18 343 21 c 128,-1,19
 262 60 262 60 205 127 c 128,-1,20
 148 194 148 194 117 282 c 128,-1,21
 86 370 86 370 86 468 c 0,22,23
 86 559 86 559 116.5 642 c 128,-1,24
 147 725 147 725 204 788 c 128,-1,25
 261 851 261 851 341.5 888 c 128,-1,26
 422 925 422 925 522 925 c 0,27,28
 619 925 619 925 697.5 891.5 c 128,-1,29
 776 858 776 858 831 799 c 128,-1,30
 886 740 886 740 915.5 659 c 128,-1,31
 945 578 945 578 945 482 c 2,32,-1
 945 420 l 1,33,-1
 284 420 l 1,4,5
750 542 m 1,34,35
 748 595 748 595 731 640.5 c 128,-1,36
 714 686 714 686 683.5 719 c 128,-1,37
 653 752 653 752 610 771 c 128,-1,38
 567 790 567 790 513 790 c 0,39,40
 465 790 465 790 424 770 c 128,-1,41
 383 750 383 750 352 716 c 128,-1,42
 321 682 321 682 303 637 c 128,-1,43
 285 592 285 592 284 542 c 1,44,-1
 750 542 l 1,34,35
EndSplineSet
Substitution2: "<17,16> Show Invisibles lookup 1 subtable" e
EndChar

StartChar: f
Encoding: 102 102 71
Width: 1045
Flags: W
LayerCount: 2
Fore
SplineSet
230.112304688 138.6875 m 260,0,1
 230.112304688 165.4375 230.112304688 165.4375 244.1015625 189.512695312 c 132,-1,2
 258.08984375 213.587890625 258.08984375 213.587890625 281.650390625 230.974609375 c 132,-1,3
 305.209960938 248.362304688 305.209960938 248.362304688 336.869140625 258.393554688 c 132,-1,4
 368.52734375 268.424804688 368.52734375 268.424804688 403.8671875 268.424804688 c 260,5,6
 439.20703125 268.424804688 439.20703125 268.424804688 470.866210938 258.393554688 c 132,-1,7
 502.525390625 248.362304688 502.525390625 248.362304688 526.084960938 230.974609375 c 132,-1,8
 549.64453125 213.587890625 549.64453125 213.587890625 562.897460938 189.512695312 c 132,-1,9
 576.150390625 165.4375 576.150390625 165.4375 576.150390625 138.6875 c 260,10,11
 576.150390625 111.9375 576.150390625 111.9375 562.897460938 88.53125 c 132,-1,12
 549.64453125 65.125 549.64453125 65.125 526.084960938 47.7373046875 c 132,-1,13
 502.525390625 30.349609375 502.525390625 30.349609375 470.866210938 20.318359375 c 132,-1,14
 439.20703125 10.287109375 439.20703125 10.287109375 403.8671875 10.287109375 c 260,15,16
 368.52734375 10.287109375 368.52734375 10.287109375 336.869140625 20.318359375 c 132,-1,17
 305.209960938 30.349609375 305.209960938 30.349609375 281.650390625 47.7373046875 c 132,-1,18
 258.08984375 65.125 258.08984375 65.125 244.1015625 88.53125 c 132,-1,19
 230.112304688 111.9375 230.112304688 111.9375 230.112304688 138.6875 c 260,0,1
1085 990 m 1,20,-1
 869 990 l 1,21,-1
 869 10 l 1,22,-1
 692 10 l 1,23,-1
 692 593 l 1,24,-1
 406 593 l 2,25,26
 404 593 404 593 404 552 c 2,27,-1
 404 484 l 2,28,29
 404 479 404 479 401 468.5 c 128,-1,30
 398 458 398 458 389 446.5 c 128,-1,31
 380 435 380 435 362.5 426.5 c 128,-1,32
 345 418 345 418 317 418 c 0,33,34
 290 418 290 418 259 429 c 128,-1,35
 228 440 228 440 197 459 c 128,-1,36
 166 478 166 478 137.5 503 c 128,-1,37
 109 528 109 528 87 555 c 128,-1,38
 65 582 65 582 52 609.5 c 128,-1,39
 39 637 39 637 39 662 c 0,40,41
 39 692 39 692 62.5 711 c 128,-1,42
 86 730 86 730 132 730 c 2,43,-1
 692 730 l 1,44,-1
 692 990 l 1,45,-1
 -20 990 l 1,46,-1
 -20 1128 l 1,47,-1
 1085 1128 l 1,48,-1
 1085 990 l 1,20,-1
EndSplineSet
Substitution2: "<17,16> Show Invisibles lookup 1 subtable" f
EndChar

StartChar: g
Encoding: 103 103 72
Width: 1053
Flags: W
LayerCount: 2
Fore
SplineSet
1088 980 m 1,0,-1
 872 980 l 1,1,-1
 872 0 l 1,2,-1
 695 0 l 1,3,-1
 695 980 l 1,4,-1
 404 980 l 1,5,-1
 404 366 l 2,6,7
 404 344 404 344 399.5 324.5 c 128,-1,8
 395 305 395 305 383 290.5 c 128,-1,9
 371 276 371 276 350 267.5 c 128,-1,10
 329 259 329 259 296 259 c 0,11,12
 250 259 250 259 203 287.5 c 128,-1,13
 156 316 156 316 118.5 359 c 128,-1,14
 81 402 81 402 57.5 452 c 128,-1,15
 34 502 34 502 34 545 c 0,16,17
 34 573 34 573 44.5 590.5 c 128,-1,18
 55 608 55 608 71.5 618 c 128,-1,19
 88 628 88 628 109.5 631.5 c 128,-1,20
 131 635 131 635 154 635 c 1,21,-1
 182 625 l 1,22,-1
 210 615 l 1,23,-1
 210 635 l 1,24,25
 227 635 227 635 227 676 c 2,26,-1
 227 980 l 1,27,-1
 -25 980 l 1,28,-1
 -25 1118 l 1,29,-1
 1088 1118 l 1,30,-1
 1088 980 l 1,0,-1
EndSplineSet
Substitution2: "<17,16> Show Invisibles lookup 1 subtable" g
EndChar

StartChar: h
Encoding: 104 104 73
Width: 918
Flags: W
LayerCount: 2
Fore
SplineSet
86.25 982.727539062 m 5,0,-1
 86.25 1102.44726562 l 5,1,-1
 834.125 1102.44726562 l 5,2,-1
 834.125 982.727539062 l 5,3,-1
 86.25 982.727539062 l 5,0,-1
317.974609375 983.595703125 m 5,4,-1
 317.974609375 620.966796875 l 5,5,6
 359.825195312 662.609375 359.825195312 662.609375 410.974609375 677.791015625 c 132,-1,7
 462.125 692.97265625 462.125 692.97265625 521.799804688 692.97265625 c 4,8,9
 576.049804688 692.97265625 576.049804688 692.97265625 621.387695312 674.75390625 c 132,-1,10
 666.724609375 656.536132812 666.724609375 656.536132812 699.662109375 624.436523438 c 132,-1,11
 732.599609375 592.338867188 732.599609375 592.338867188 750.8125 548.528320312 c 132,-1,12
 769.025390625 504.717773438 769.025390625 504.717773438 769.025390625 453.534179688 c 6,13,-1
 769.025390625 2.41796875 l 5,14,-1
 622.549804688 2.41796875 l 5,15,-1
 622.549804688 433.580078125 l 6,16,17
 622.549804688 472.619140625 622.549804688 472.619140625 612.087890625 499.512695312 c 132,-1,18
 601.625 526.40625 601.625 526.40625 584.575195312 543.323242188 c 132,-1,19
 567.525390625 560.240234375 567.525390625 560.240234375 544.662109375 568.047851562 c 132,-1,20
 521.799804688 575.85546875 521.799804688 575.85546875 497.775390625 575.85546875 c 4,21,22
 466 575.85546875 466 575.85546875 433.837890625 559.806640625 c 132,-1,23
 401.674804688 543.756835938 401.674804688 543.756835938 376.099609375 515.5625 c 132,-1,24
 350.525390625 487.3671875 350.525390625 487.3671875 334.25 449.196289062 c 132,-1,25
 317.974609375 411.025390625 317.974609375 411.025390625 317.974609375 367.6484375 c 6,26,-1
 317.974609375 2.41796875 l 5,27,-1
 169.950195312 2.41796875 l 5,28,-1
 169.950195312 983.595703125 l 5,29,-1
 317.974609375 983.595703125 l 5,4,-1
EndSplineSet
Substitution2: "<17,16> Show Invisibles lookup 1 subtable" h
EndChar

StartChar: i
Encoding: 105 105 74
Width: 386
Flags: W
HStem: 0 21G<116 305> 1092 173<116 305>
VStem: 116 189<0 910 1092 1265>
LayerCount: 2
Fore
SplineSet
305 1265 m 1,0,-1
 305 1092 l 1,1,-1
 116 1092 l 1,2,-1
 116 1265 l 1,3,-1
 305 1265 l 1,0,-1
305 910 m 1,4,-1
 305 0 l 1,5,-1
 116 0 l 1,6,-1
 116 910 l 1,7,-1
 305 910 l 1,4,-1
EndSplineSet
Substitution2: "<17,16> Show Invisibles lookup 1 subtable" i
EndChar

StartChar: j
Encoding: 106 106 75
Width: 851
Flags: W
LayerCount: 2
Fore
SplineSet
394 569 m 0,0,1
 499 569 499 569 568 542 c 128,-1,2
 637 515 637 515 677.5 476 c 128,-1,3
 718 437 718 437 734.5 394.5 c 128,-1,4
 751 352 751 352 751 321 c 0,5,6
 751 276 751 276 733.5 240 c 128,-1,7
 716 204 716 204 687.5 175 c 128,-1,8
 659 146 659 146 623 123 c 128,-1,9
 587 100 587 100 550 82 c 1,10,-1
 469 181 l 1,11,12
 528 209 528 209 551.5 244 c 128,-1,13
 575 279 575 279 575 320 c 0,14,15
 575 341 575 341 565.5 364.5 c 128,-1,16
 556 388 556 388 536 407 c 128,-1,17
 516 426 516 426 484 438.5 c 128,-1,18
 452 451 452 451 407 451 c 0,19,20
 360 451 360 451 323.5 436.5 c 128,-1,21
 287 422 287 422 262 398 c 128,-1,22
 237 374 237 374 223.5 342 c 128,-1,23
 210 310 210 310 210 275 c 0,24,25
 210 229 210 229 224.5 184 c 128,-1,26
 239 139 239 139 275 93.5 c 128,-1,27
 311 48 311 48 372.5 0 c 128,-1,28
 434 -48 434 -48 528 -99 c 1,29,-1
 468 -197 l 1,30,31
 381 -159 381 -159 302 -107 c 128,-1,32
 223 -55 223 -55 163 6 c 128,-1,33
 103 67 103 67 68 135 c 128,-1,34
 33 203 33 203 33 274 c 0,35,36
 33 335 33 335 57 383.5 c 128,-1,37
 81 432 81 432 124 472 c 1,38,39
 83 518 83 518 58 563 c 128,-1,40
 33 608 33 608 33 659 c 0,41,42
 33 696 33 696 48.5 731 c 128,-1,43
 64 766 64 766 97 793 c 128,-1,44
 130 820 130 820 180.5 836 c 128,-1,45
 231 852 231 852 300 852 c 2,46,-1
 492 852 l 1,47,-1
 492 980 l 1,48,-1
 -26 980 l 1,49,-1
 -26 1118 l 1,50,-1
 889 1118 l 1,51,-1
 889 980 l 1,52,-1
 669 980 l 1,53,-1
 669 734 l 1,54,-1
 300 734 l 2,55,56
 252 734 252 734 231 709 c 128,-1,57
 210 684 210 684 210 652 c 0,58,59
 210 619 210 619 223 593.5 c 128,-1,60
 236 568 236 568 254 546 c 1,61,62
 288 558 288 558 323.5 563.5 c 128,-1,63
 359 569 359 569 394 569 c 0,0,1
EndSplineSet
Substitution2: "<17,16> Show Invisibles lookup 1 subtable" j
EndChar

StartChar: k
Encoding: 107 107 76
Width: 1368
Flags: W
HStem: 0 21G<550 727> 242 137<249.469 458.757> 678 137<250.673 509.96 804.536 997.106> 980 138<-23 550 727 1399>
VStem: 36 176<416.664 639.413> 550 177<0 307 529 537 764 980> 1026 177<412.445 647.953>
LayerCount: 2
Fore
SplineSet
1399 980 m 1,0,-1
 727 980 l 1,1,-1
 727 764 l 1,2,3
 772 793 772 793 821 804 c 128,-1,4
 870 815 870 815 913 815 c 0,5,6
 993 815 993 815 1048 787 c 128,-1,7
 1103 759 1103 759 1137.5 718 c 128,-1,8
 1172 677 1172 677 1187.5 629 c 128,-1,9
 1203 581 1203 581 1203 542 c 0,10,11
 1203 474 1203 474 1175 419.5 c 128,-1,12
 1147 365 1147 365 1106.5 323.5 c 128,-1,13
 1066 282 1066 282 1019 253.5 c 128,-1,14
 972 225 972 225 935 209 c 1,15,-1
 861 320 l 1,16,17
 907 344 907 344 939 370 c 128,-1,18
 971 396 971 396 990 424.5 c 128,-1,19
 1009 453 1009 453 1017.5 483.5 c 128,-1,20
 1026 514 1026 514 1026 548 c 0,21,22
 1026 608 1026 608 994 643 c 128,-1,23
 962 678 962 678 913 678 c 0,24,25
 860 678 860 678 809.5 638 c 128,-1,26
 759 598 759 598 723 532 c 1,27,-1
 727 537 l 1,28,-1
 727 0 l 1,29,-1
 550 0 l 1,30,-1
 550 307 l 1,31,32
 508 276 508 276 457.5 259 c 128,-1,33
 407 242 407 242 364 242 c 0,34,35
 298 242 298 242 238.5 262.5 c 128,-1,36
 179 283 179 283 134 321 c 128,-1,37
 89 359 89 359 62.5 414 c 128,-1,38
 36 469 36 469 36 538 c 0,39,40
 36 598 36 598 63 649 c 128,-1,41
 90 700 90 700 132.5 737 c 128,-1,42
 175 774 175 774 229 794.5 c 128,-1,43
 283 815 283 815 337 815 c 0,44,45
 408 815 408 815 462 797 c 128,-1,46
 516 779 516 779 550 759 c 1,47,-1
 550 980 l 1,48,-1
 -23 980 l 1,49,-1
 -23 1118 l 1,50,-1
 1399 1118 l 1,51,-1
 1399 980 l 1,0,-1
550 607 m 1,52,-1
 562 599 l 2,53,54
 545 612 545 612 522.5 626 c 128,-1,55
 500 640 500 640 474 651.5 c 128,-1,56
 448 663 448 663 418.5 670.5 c 128,-1,57
 389 678 389 678 358 678 c 0,58,59
 324 678 324 678 297 666 c 128,-1,60
 270 654 270 654 251 634 c 128,-1,61
 232 614 232 614 222 587 c 128,-1,62
 212 560 212 560 212 529 c 0,63,64
 212 488 212 488 226 459.5 c 128,-1,65
 240 431 240 431 260 413 c 128,-1,66
 280 395 280 395 302.5 387 c 128,-1,67
 325 379 325 379 342 379 c 0,68,69
 397 379 397 379 446 413.5 c 128,-1,70
 495 448 495 448 556 529 c 1,71,-1
 550 523 l 1,72,-1
 550 607 l 1,52,-1
EndSplineSet
Substitution2: "<17,16> Show Invisibles lookup 1 subtable" k
EndChar

StartChar: l
Encoding: 108 108 77
Width: 1181
Flags: W
HStem: 0 21G<822 999> 589 138<239.546 426.387> 980 138<-24 822 999 1215>
VStem: 35 177<292.365 562.437> 822 177<0 534 712 980>
LayerCount: 2
Fore
SplineSet
1215 980 m 1,0,-1
 999 980 l 1,1,-1
 999 0 l 1,2,-1
 822 0 l 1,3,-1
 822 534 l 1,4,5
 741 477 741 477 657 415 c 128,-1,6
 573 353 573 353 496 298 c 1,7,-1
 397 419 l 1,8,9
 413 431 413 431 422 442 c 128,-1,10
 431 453 431 453 435 464 c 128,-1,11
 439 475 439 475 439.5 485 c 128,-1,12
 440 495 440 495 440 505 c 0,13,14
 440 520 440 520 432 535 c 128,-1,15
 424 550 424 550 410 562 c 128,-1,16
 396 574 396 574 376.5 581.5 c 128,-1,17
 357 589 357 589 334 589 c 0,18,19
 312 589 312 589 290 581.5 c 128,-1,20
 268 574 268 574 251 557.5 c 128,-1,21
 234 541 234 541 223 516 c 128,-1,22
 212 491 212 491 212 457 c 0,23,24
 212 401 212 401 229.5 351 c 128,-1,25
 247 301 247 301 281.5 254 c 128,-1,26
 316 207 316 207 367.5 161.5 c 128,-1,27
 419 116 419 116 487 69 c 1,28,-1
 408 -38 l 1,29,30
 308 24 308 24 237 90.5 c 128,-1,31
 166 157 166 157 121 222 c 128,-1,32
 76 287 76 287 55.5 348.5 c 128,-1,33
 35 410 35 410 35 463 c 0,34,35
 35 530 35 530 62 579.5 c 128,-1,36
 89 629 89 629 132.5 662 c 128,-1,37
 176 695 176 695 229.5 711 c 128,-1,38
 283 727 283 727 337 727 c 0,39,40
 392 727 392 727 438 711.5 c 128,-1,41
 484 696 484 696 518 670 c 128,-1,42
 552 644 552 644 571 610.5 c 128,-1,43
 590 577 590 577 590 541 c 1,44,-1
 834 712 l 1,45,-1
 822 704 l 1,46,-1
 822 980 l 1,47,-1
 -24 980 l 1,48,-1
 -24 1118 l 1,49,-1
 1215 1118 l 1,50,-1
 1215 980 l 1,0,-1
EndSplineSet
Substitution2: "<17,16> Show Invisibles lookup 1 subtable" l
EndChar

StartChar: m
Encoding: 109 109 78
Width: 1045
Flags: W
HStem: 0 21G<687 864> 465 137<399 687> 980 138<-25 222 399 687 864 1080>
VStem: 222 177<602 980> 687 177<0 465 602 980>
LayerCount: 2
Fore
SplineSet
1080 980 m 1,0,-1
 864 980 l 1,1,-1
 864 0 l 1,2,-1
 687 0 l 1,3,-1
 687 465 l 1,4,-1
 401 465 l 2,5,6
 399 465 399 465 399 424 c 2,7,-1
 399 356 l 2,8,9
 399 351 399 351 396 340.5 c 128,-1,10
 393 330 393 330 384 318.5 c 128,-1,11
 375 307 375 307 357.5 298.5 c 128,-1,12
 340 290 340 290 312 290 c 0,13,14
 285 290 285 290 254 301 c 128,-1,15
 223 312 223 312 192 331 c 128,-1,16
 161 350 161 350 132.5 375 c 128,-1,17
 104 400 104 400 82 427 c 128,-1,18
 60 454 60 454 47 481.5 c 128,-1,19
 34 509 34 509 34 534 c 0,20,21
 34 564 34 564 57.5 583 c 128,-1,22
 81 602 81 602 127 602 c 2,23,-1
 222 602 l 1,24,-1
 222 980 l 1,25,-1
 -25 980 l 1,26,-1
 -25 1118 l 1,27,-1
 1080 1118 l 1,28,-1
 1080 980 l 1,0,-1
687 602 m 1,29,-1
 687 980 l 1,30,-1
 399 980 l 1,31,-1
 399 602 l 1,32,-1
 687 602 l 1,29,-1
EndSplineSet
Substitution2: "<17,16> Show Invisibles lookup 1 subtable" m
EndChar

StartChar: n
Encoding: 110 110 79
Width: 1045
Flags: W
LayerCount: 2
Fore
SplineSet
1080 980 m 1,0,-1
 864 980 l 1,1,-1
 864 0 l 1,2,-1
 687 0 l 1,3,-1
 687 583 l 1,4,-1
 401 583 l 2,5,6
 399 583 399 583 399 542 c 2,7,-1
 399 474 l 2,8,9
 399 469 399 469 396 458.5 c 128,-1,10
 393 448 393 448 384 436.5 c 128,-1,11
 375 425 375 425 357.5 416.5 c 128,-1,12
 340 408 340 408 312 408 c 0,13,14
 285 408 285 408 254 419 c 128,-1,15
 223 430 223 430 192 449 c 128,-1,16
 161 468 161 468 132.5 493 c 128,-1,17
 104 518 104 518 82 545 c 128,-1,18
 60 572 60 572 47 599.5 c 128,-1,19
 34 627 34 627 34 652 c 0,20,21
 34 682 34 682 57.5 701 c 128,-1,22
 81 720 81 720 127 720 c 2,23,-1
 687 720 l 1,24,-1
 687 980 l 1,25,-1
 -25 980 l 1,26,-1
 -25 1118 l 1,27,-1
 1080 1118 l 1,28,-1
 1080 980 l 1,0,-1
EndSplineSet
Substitution2: "<17,16> Show Invisibles lookup 1 subtable" n
EndChar

StartChar: o
Encoding: 111 111 80
Width: 1017
Flags: W
LayerCount: 2
Fore
SplineSet
-12 980 m 5,0,-1
 -12 1118 l 5,1,-1
 1034 1118 l 5,2,-1
 1034 980 l 5,3,-1
 -12 980 l 5,0,-1
86 454 m 0,4,5
 86 551 86 551 114.5 637 c 128,-1,6
 143 723 143 723 198 787 c 128,-1,7
 253 851 253 851 333.5 888 c 128,-1,8
 414 925 414 925 518 925 c 0,9,10
 623 925 623 925 704 888 c 128,-1,11
 785 851 785 851 841 787 c 128,-1,12
 897 723 897 723 926 637 c 128,-1,13
 955 551 955 551 955 454 c 0,14,15
 955 356 955 356 926 270.5 c 128,-1,16
 897 185 897 185 841 121.5 c 128,-1,17
 785 58 785 58 704 21 c 128,-1,18
 623 -16 623 -16 518 -16 c 0,19,20
 414 -16 414 -16 333.5 21 c 128,-1,21
 253 58 253 58 198 121.5 c 128,-1,22
 143 185 143 185 114.5 270.5 c 128,-1,23
 86 356 86 356 86 454 c 0,4,5
276 454 m 256,24,25
 276 385 276 385 293 324 c 128,-1,26
 310 263 310 263 341.5 218 c 128,-1,27
 373 173 373 173 417.5 146.5 c 128,-1,28
 462 120 462 120 518 120 c 0,29,30
 575 120 575 120 620 146.5 c 128,-1,31
 665 173 665 173 697 218 c 128,-1,32
 729 263 729 263 746 324 c 128,-1,33
 763 385 763 385 763 454 c 256,34,35
 763 523 763 523 746 584.5 c 128,-1,36
 729 646 729 646 697 691.5 c 128,-1,37
 665 737 665 737 620 763.5 c 128,-1,38
 575 790 575 790 518 790 c 0,39,40
 462 790 462 790 417.5 763.5 c 128,-1,41
 373 737 373 737 341.5 691.5 c 128,-1,42
 310 646 310 646 293 584.5 c 128,-1,43
 276 523 276 523 276 454 c 256,24,25
EndSplineSet
Substitution2: "<17,16> Show Invisibles lookup 1 subtable" o
EndChar

StartChar: p
Encoding: 112 112 81
Width: 900
Flags: W
LayerCount: 2
Fore
SplineSet
937 980 m 1,0,-1
 721 980 l 1,1,-1
 721 0 l 1,2,-1
 544 0 l 1,3,-1
 544 333 l 1,4,5
 511 313 511 313 470 304 c 128,-1,6
 429 295 429 295 390 295 c 0,7,8
 312 295 312 295 249.5 322.5 c 128,-1,9
 187 350 187 350 143.5 395.5 c 128,-1,10
 100 441 100 441 76.5 499 c 128,-1,11
 53 557 53 557 53 617 c 2,12,-1
 53 980 l 1,13,-1
 -25 980 l 1,14,-1
 -25 1118 l 1,15,-1
 937 1118 l 1,16,-1
 937 980 l 1,0,-1
544 980 m 1,17,-1
 230 980 l 1,18,-1
 230 615 l 2,19,20
 230 569 230 569 244 534.5 c 128,-1,21
 258 500 258 500 281 476.5 c 128,-1,22
 304 453 304 453 333.5 441.5 c 128,-1,23
 363 430 363 430 395 430 c 0,24,25
 420 430 420 430 446.5 439.5 c 128,-1,26
 473 449 473 449 495 470 c 128,-1,27
 517 491 517 491 530.5 523 c 128,-1,28
 544 555 544 555 544 600 c 2,29,-1
 544 980 l 1,17,-1
EndSplineSet
Substitution2: "<17,16> Show Invisibles lookup 1 subtable" p
EndChar

StartChar: q
Encoding: 113 113 82
Width: 1358
Flags: W
LayerCount: 2
Fore
SplineSet
654 712 m 1,0,-1
 654 715 l 1,1,2
 712 685 712 685 760 666 c 128,-1,3
 808 647 808 647 850 647 c 0,4,5
 902 647 902 647 940 667 c 128,-1,6
 978 687 978 687 1005 714 c 1,7,-1
 996 707 l 1,8,-1
 996 980 l 1,9,-1
 772 980 l 1,10,-1
 772 1118 l 1,11,-1
 1389 1118 l 1,12,-1
 1389 980 l 1,13,-1
 1173 980 l 1,14,-1
 1173 0 l 1,15,-1
 996 0 l 1,16,-1
 996 553 l 1,17,18
 964 539 964 539 928 531.5 c 128,-1,19
 892 524 892 524 862 524 c 0,20,21
 849 524 849 524 839.5 524 c 128,-1,22
 830 524 830 524 820 526 c 1,23,24
 825 502 825 502 828 476.5 c 128,-1,25
 831 451 831 451 831 422 c 0,26,27
 831 366 831 366 810 312 c 128,-1,28
 789 258 789 258 747.5 214.5 c 128,-1,29
 706 171 706 171 643.5 144.5 c 128,-1,30
 581 118 581 118 497 118 c 0,31,32
 424 118 424 118 361.5 140 c 128,-1,33
 299 162 299 162 246 198 c 128,-1,34
 193 234 193 234 150.5 281.5 c 128,-1,35
 108 329 108 329 75 380.5 c 128,-1,36
 42 432 42 432 19 483.5 c 128,-1,37
 -4 535 -4 535 -17 580 c 1,38,-1
 127 666 l 1,39,40
 161 576 161 576 201 500.5 c 128,-1,41
 241 425 241 425 287 370.5 c 128,-1,42
 333 316 333 316 385.5 285.5 c 128,-1,43
 438 255 438 255 498 255 c 0,44,45
 538 255 538 255 567 271 c 128,-1,46
 596 287 596 287 615.5 313 c 128,-1,47
 635 339 635 339 644.5 371.5 c 128,-1,48
 654 404 654 404 654 437 c 0,49,50
 654 493 654 493 634.5 530.5 c 128,-1,51
 615 568 615 568 584 591 c 128,-1,52
 553 614 553 614 513 624 c 128,-1,53
 473 634 473 634 433 634 c 0,54,55
 417 634 417 634 392.5 631 c 128,-1,56
 368 628 368 628 336 623 c 1,57,-1
 306 743 l 1,58,59
 340 746 340 746 380.5 756.5 c 128,-1,60
 421 767 421 767 456 785 c 128,-1,61
 491 803 491 803 514 830 c 128,-1,62
 537 857 537 857 537 894 c 0,63,64
 537 924 537 924 527.5 944.5 c 128,-1,65
 518 965 518 965 504 977 c 128,-1,66
 490 989 490 989 474.5 994.5 c 128,-1,67
 459 1000 459 1000 448 1000 c 0,68,69
 432 1000 432 1000 413.5 996 c 128,-1,70
 395 992 395 992 374 978 c 128,-1,71
 353 964 353 964 330 936.5 c 128,-1,72
 307 909 307 909 282 863 c 1,73,-1
 133 931 l 1,74,75
 147 962 147 962 172.5 998 c 128,-1,76
 198 1034 198 1034 236 1065 c 128,-1,77
 274 1096 274 1096 325.5 1117 c 128,-1,78
 377 1138 377 1138 443 1138 c 0,79,80
 495 1138 495 1138 544 1122.5 c 128,-1,81
 593 1107 593 1107 630.5 1076.5 c 128,-1,82
 668 1046 668 1046 690.5 1000.5 c 128,-1,83
 713 955 713 955 713 895 c 0,84,85
 713 841 713 841 690.5 798 c 128,-1,86
 668 755 668 755 626 722 c 1,87,-1
 654 712 l 1,0,-1
EndSplineSet
Substitution2: "<17,16> Show Invisibles lookup 1 subtable" q
EndChar

StartChar: r
Encoding: 114 114 83
Width: 806
Flags: W
LayerCount: 2
Fore
SplineSet
604 -62 m 1,0,1
 415 75 415 75 270 231 c 128,-1,2
 125 387 125 387 34 576 c 1,3,-1
 164 675 l 1,4,5
 167 668 167 668 172 657.5 c 128,-1,6
 177 647 177 647 182.5 635.5 c 128,-1,7
 188 624 188 624 193.5 613 c 128,-1,8
 199 602 199 602 202 596 c 1,9,-1
 200 597 l 1,10,11
 212 580 212 580 226 570 c 128,-1,12
 240 560 240 560 257 560 c 0,13,14
 270 560 270 560 281 568.5 c 128,-1,15
 292 577 292 577 299.5 589 c 128,-1,16
 307 601 307 601 311 614.5 c 128,-1,17
 315 628 315 628 315 637 c 2,18,-1
 315 980 l 1,19,-1
 -26 980 l 1,20,-1
 -26 1118 l 1,21,-1
 845 1118 l 1,22,-1
 845 980 l 1,23,-1
 492 980 l 1,24,-1
 492 610 l 2,25,26
 492 586 492 586 481.5 554 c 128,-1,27
 471 522 471 522 448.5 493 c 128,-1,28
 426 464 426 464 391.5 443.5 c 128,-1,29
 357 423 357 423 309 422 c 1,30,31
 390 313 390 313 489 221 c 128,-1,32
 588 129 588 129 706 44 c 1,33,-1
 604 -62 l 1,0,1
EndSplineSet
Substitution2: "<17,16> Show Invisibles lookup 1 subtable" r
EndChar

StartChar: s
Encoding: 115 115 84
Width: 1165
Flags: W
LayerCount: 2
Fore
SplineSet
605 -62 m 1,0,1
 416 75 416 75 271.5 231 c 128,-1,2
 127 387 127 387 36 576 c 1,3,-1
 165 675 l 1,4,5
 168 668 168 668 173 657.5 c 128,-1,6
 178 647 178 647 184 635.5 c 128,-1,7
 190 624 190 624 195.5 613 c 128,-1,8
 201 602 201 602 204 596 c 1,9,-1
 202 597 l 1,10,11
 213 580 213 580 227 570 c 128,-1,12
 241 560 241 560 259 560 c 0,13,14
 272 560 272 560 283 568.5 c 128,-1,15
 294 577 294 577 301.5 589 c 128,-1,16
 309 601 309 601 313 614.5 c 128,-1,17
 317 628 317 628 317 637 c 2,18,-1
 317 980 l 1,19,-1
 -24 980 l 1,20,-1
 -24 1118 l 1,21,-1
 1199 1118 l 1,22,-1
 1199 980 l 1,23,-1
 983 980 l 1,24,-1
 983 0 l 1,25,-1
 806 0 l 1,26,-1
 806 484 l 1,27,-1
 443 484 l 1,28,29
 423 458 423 458 390.5 440.5 c 128,-1,30
 358 423 358 423 311 422 c 1,31,32
 392 313 392 313 490.5 221 c 128,-1,33
 589 129 589 129 708 44 c 1,34,-1
 605 -62 l 1,0,1
493 622 m 1,35,-1
 806 622 l 1,36,-1
 806 980 l 1,37,-1
 493 980 l 1,38,-1
 493 622 l 1,35,-1
EndSplineSet
Substitution2: "<17,16> Show Invisibles lookup 1 subtable" s
EndChar

StartChar: t
Encoding: 116 116 85
Width: 1124
Flags: W
LayerCount: 2
Fore
SplineSet
980 363 m 1,0,1
 906 210 906 210 788.5 123.5 c 128,-1,2
 671 37 671 37 517 37 c 0,3,4
 433 37 433 37 347 64 c 128,-1,5
 261 91 261 91 191.5 143.5 c 128,-1,6
 122 196 122 196 78 273 c 128,-1,7
 34 350 34 350 34 449 c 0,8,9
 34 521 34 521 65.5 590.5 c 128,-1,10
 97 660 97 660 159.5 715 c 128,-1,11
 222 770 222 770 315 805 c 128,-1,12
 408 840 408 840 531 844 c 1,13,-1
 531 980 l 1,14,-1
 -24 980 l 1,15,-1
 -24 1118 l 1,16,-1
 1158 1118 l 1,17,-1
 1158 980 l 1,18,-1
 707 980 l 1,19,-1
 707 706 l 1,20,-1
 560 706 l 2,21,22
 480 706 480 706 416 687.5 c 128,-1,23
 352 669 352 669 306 635.5 c 128,-1,24
 260 602 260 602 235.5 554.5 c 128,-1,25
 211 507 211 507 211 449 c 0,26,27
 211 384 211 384 238.5 333 c 128,-1,28
 266 282 266 282 309.5 247 c 128,-1,29
 353 212 353 212 406 193.5 c 128,-1,30
 459 175 459 175 510 175 c 0,31,32
 569 175 569 175 619 199 c 128,-1,33
 669 223 669 223 710 261.5 c 128,-1,34
 751 300 751 300 784.5 348.5 c 128,-1,35
 818 397 818 397 844 446 c 1,36,-1
 980 363 l 1,0,1
EndSplineSet
Substitution2: "<17,16> Show Invisibles lookup 1 subtable" t
EndChar

StartChar: u
Encoding: 117 117 86
Width: 917
Flags: W
LayerCount: 2
Fore
SplineSet
-24 980 m 1,0,-1
 -24 1118 l 1,1,-1
 934 1118 l 1,2,-1
 934 980 l 1,3,-1
 -24 980 l 1,0,-1
856 16 m 1,4,-1
 666 16 l 1,5,-1
 666 101 l 1,6,7
 604 50 604 50 530 25 c 128,-1,8
 456 0 456 0 380 0 c 0,9,10
 311 0 311 0 256 19 c 128,-1,11
 201 38 201 38 163 74 c 128,-1,12
 125 110 125 110 104.5 161 c 128,-1,13
 84 212 84 212 84 276 c 2,14,-1
 84 850 l 5,15,-1
 275 850 l 5,16,-1
 275 293 l 2,17,18
 275 207 275 207 310 171.5 c 128,-1,19
 345 136 345 136 407 136 c 0,20,21
 460 136 460 136 507 156.5 c 128,-1,22
 554 177 554 177 589.5 211 c 128,-1,23
 625 245 625 245 645.5 289 c 128,-1,24
 666 333 666 333 666 380 c 2,25,-1
 666 850 l 5,26,-1
 856 850 l 5,27,-1
 856 16 l 1,4,-1
EndSplineSet
Substitution2: "<17,16> Show Invisibles lookup 1 subtable" u
EndChar

StartChar: v
Encoding: 118 118 87
Width: 1000
Flags: W
LayerCount: 2
Fore
SplineSet
643 980 m 1,0,-1
 -25 980 l 1,1,-1
 -25 1118 l 1,2,-1
 1036 1118 l 1,3,-1
 1036 980 l 1,4,-1
 820 980 l 1,5,-1
 820 0 l 1,6,-1
 643 0 l 1,7,-1
 643 321 l 1,8,9
 597 297 597 297 544 285.5 c 128,-1,10
 491 274 491 274 434 274 c 0,11,12
 353 274 353 274 280 299.5 c 128,-1,13
 207 325 207 325 152.5 369 c 128,-1,14
 98 413 98 413 66 473 c 128,-1,15
 34 533 34 533 34 601 c 0,16,17
 34 658 34 658 64.5 707.5 c 128,-1,18
 95 757 95 757 146 793.5 c 128,-1,19
 197 830 197 830 262.5 850.5 c 128,-1,20
 328 871 328 871 398 871 c 0,21,22
 469 871 469 871 531 852 c 128,-1,23
 593 833 593 833 643 803 c 1,24,-1
 643 980 l 1,0,-1
643 564 m 2,25,26
 640 590 640 590 622.5 621.5 c 128,-1,27
 605 653 605 653 574.5 680 c 128,-1,28
 544 707 544 707 500.5 725 c 128,-1,29
 457 743 457 743 400 743 c 0,30,31
 365 743 365 743 331.5 733 c 128,-1,32
 298 723 298 723 271 704 c 128,-1,33
 244 685 244 685 227.5 657 c 128,-1,34
 211 629 211 629 211 594 c 0,35,36
 211 561 211 561 227.5 527.5 c 128,-1,37
 244 494 244 494 274 467 c 128,-1,38
 304 440 304 440 345 423 c 128,-1,39
 386 406 386 406 435 406 c 0,40,41
 477 406 477 406 514.5 419.5 c 128,-1,42
 552 433 552 433 580.5 454.5 c 128,-1,43
 609 476 609 476 626 503.5 c 128,-1,44
 643 531 643 531 643 560 c 2,45,-1
 643 564 l 2,25,26
EndSplineSet
Substitution2: "<17,16> Show Invisibles lookup 1 subtable" v
EndChar

StartChar: w
Encoding: 119 119 88
Width: 933
Flags: W
LayerCount: 2
Fore
SplineSet
703 -38 m 1,0,1
 612 30 612 30 541.5 94.5 c 128,-1,2
 471 159 471 159 429 218 c 1,3,-1
 422 218 l 2,4,5
 346 218 346 218 276 242 c 128,-1,6
 206 266 206 266 152 311 c 128,-1,7
 98 356 98 356 66 420 c 128,-1,8
 34 484 34 484 34 563 c 0,9,10
 34 634 34 634 66.5 688 c 128,-1,11
 99 742 99 742 152.5 778.5 c 128,-1,12
 206 815 206 815 275 833.5 c 128,-1,13
 344 852 344 852 417 852 c 2,14,-1
 520 852 l 1,15,-1
 520 980 l 1,16,-1
 -25 980 l 1,17,-1
 -25 1118 l 1,18,-1
 970 1118 l 1,19,-1
 970 980 l 1,20,-1
 697 980 l 1,21,-1
 697 714 l 1,22,-1
 462 714 l 2,23,24
 441 714 441 714 414.5 712.5 c 128,-1,25
 388 711 388 711 360 705 c 128,-1,26
 332 699 332 699 305 688 c 128,-1,27
 278 677 278 677 257 658 c 128,-1,28
 236 639 236 639 223 610.5 c 128,-1,29
 210 582 210 582 210 542 c 0,30,31
 210 504 210 504 222 475 c 128,-1,32
 234 446 234 446 254 424 c 128,-1,33
 274 402 274 402 299.5 387.5 c 128,-1,34
 325 373 325 373 352 365 c 1,35,36
 343 398 343 398 343 427 c 0,37,38
 343 466 343 466 358.5 499 c 128,-1,39
 374 532 374 532 402 555.5 c 128,-1,40
 430 579 430 579 467.5 592.5 c 128,-1,41
 505 606 505 606 549 606 c 0,42,43
 587 606 587 606 624 595 c 128,-1,44
 661 584 661 584 690 562.5 c 128,-1,45
 719 541 719 541 736.5 508.5 c 128,-1,46
 754 476 754 476 754 434 c 0,47,48
 754 397 754 397 739.5 367 c 128,-1,49
 725 337 725 337 701 313.5 c 128,-1,50
 677 290 677 290 645 272.5 c 128,-1,51
 613 255 613 255 579 243 c 1,52,53
 655 150 655 150 782 57 c 1,54,-1
 703 -38 l 1,0,1
577 457 m 0,55,56
 577 480 577 480 570 494 c 128,-1,57
 563 508 563 508 549 508 c 0,58,59
 530 508 530 508 515 486 c 128,-1,60
 500 464 500 464 500 426 c 0,61,62
 500 397 500 397 508 368 c 1,63,64
 537 379 537 379 557 400.5 c 128,-1,65
 577 422 577 422 577 457 c 0,55,56
EndSplineSet
Substitution2: "<17,16> Show Invisibles lookup 1 subtable" w
EndChar

StartChar: x
Encoding: 120 120 89
Width: 975
Flags: W
LayerCount: 2
Fore
SplineSet
1011 980 m 1,0,-1
 795 980 l 1,1,-1
 795 0 l 1,2,-1
 618 0 l 1,3,-1
 618 644 l 1,4,-1
 333 644 l 2,5,6
 264 644 264 644 237.5 625 c 128,-1,7
 211 606 211 606 211 564 c 0,8,9
 211 515 211 515 223 457 c 128,-1,10
 235 399 235 399 265.5 334.5 c 128,-1,11
 296 270 296 270 349 201 c 128,-1,12
 402 132 402 132 484 63 c 1,13,-1
 388 -32 l 1,14,15
 299 37 299 37 232.5 116 c 128,-1,16
 166 195 166 195 122 276 c 128,-1,17
 78 357 78 357 56 435.5 c 128,-1,18
 34 514 34 514 34 583 c 0,19,20
 34 782 34 782 315 782 c 2,21,-1
 618 782 l 1,22,-1
 618 980 l 1,23,-1
 -25 980 l 1,24,-1
 -25 1118 l 1,25,-1
 1011 1118 l 1,26,-1
 1011 980 l 1,0,-1
EndSplineSet
Substitution2: "<17,16> Show Invisibles lookup 1 subtable" x
EndChar

StartChar: y
Encoding: 121 121 90
Width: 1137
Flags: W
LayerCount: 2
Fore
SplineSet
252 555 m 1,0,-1
 261 539 l 1,1,-1
 251 539 l 2,2,3
 244 539 244 539 236.5 539 c 128,-1,4
 229 539 229 539 222 540 c 1,5,-1
 252 555 l 1,0,-1
778 980 m 1,6,-1
 400 980 l 1,7,8
 416 960 416 960 433 935 c 128,-1,9
 450 910 450 910 463.5 881 c 128,-1,10
 477 852 477 852 485.5 819.5 c 128,-1,11
 494 787 494 787 494 752 c 0,12,13
 494 713 494 713 478.5 675.5 c 128,-1,14
 463 638 463 638 433 608 c 128,-1,15
 403 578 403 578 359.5 559 c 128,-1,16
 316 540 316 540 261 539 c 1,17,18
 280 507 280 507 306 483.5 c 128,-1,19
 332 460 332 460 363 443.5 c 128,-1,20
 394 427 394 427 427.5 419 c 128,-1,21
 461 411 461 411 495 411 c 0,22,23
 550 411 550 411 595.5 433 c 128,-1,24
 641 455 641 455 677 489 c 128,-1,25
 713 523 713 523 739 564.5 c 128,-1,26
 765 606 765 606 780 644 c 1,27,-1
 778 641 l 1,28,-1
 778 980 l 1,6,-1
77 688 m 1,29,30
 100 677 100 677 131 668.5 c 128,-1,31
 162 660 162 660 199 660 c 0,32,33
 254 660 254 660 285.5 692 c 128,-1,34
 317 724 317 724 317 775 c 0,35,36
 317 829 317 829 289.5 883 c 128,-1,37
 262 937 262 937 212 980 c 1,38,-1
 -24 980 l 1,39,-1
 -24 1118 l 1,40,-1
 1171 1118 l 1,41,-1
 1171 980 l 1,42,-1
 955 980 l 1,43,-1
 955 0 l 1,44,-1
 778 0 l 1,45,-1
 778 377 l 1,46,47
 718 321 718 321 644 297 c 128,-1,48
 570 273 570 273 494 273 c 0,49,50
 410 273 410 273 333.5 299.5 c 128,-1,51
 257 326 257 326 196.5 377 c 128,-1,52
 136 428 136 428 93.5 503.5 c 128,-1,53
 51 579 51 579 35 677 c 1,54,-1
 77 688 l 1,29,30
EndSplineSet
Substitution2: "<17,16> Show Invisibles lookup 1 subtable" y
EndChar

StartChar: z
Encoding: 122 122 91
Width: 1233
Flags: W
LayerCount: 2
Fore
SplineSet
1266 980 m 1,0,-1
 1050 980 l 1,1,-1
 1050 0 l 1,2,-1
 873 0 l 1,3,-1
 873 605 l 1,4,-1
 669 605 l 1,5,6
 694 577 694 577 718 546 c 128,-1,7
 742 515 742 515 760.5 479.5 c 128,-1,8
 779 444 779 444 790 405.5 c 128,-1,9
 801 367 801 367 801 324 c 0,10,11
 801 275 801 275 782.5 233 c 128,-1,12
 764 191 764 191 731 160 c 128,-1,13
 698 129 698 129 652.5 111 c 128,-1,14
 607 93 607 93 553 93 c 0,15,16
 485 93 485 93 424.5 119 c 128,-1,17
 364 145 364 145 312 187.5 c 128,-1,18
 260 230 260 230 216 284 c 128,-1,19
 172 338 172 338 137 393.5 c 128,-1,20
 102 449 102 449 76 501 c 128,-1,21
 50 553 50 553 35 592 c 1,22,23
 58 604 58 604 76 615 c 0,24,25
 91 624 91 624 104 632 c 128,-1,26
 117 640 117 640 117 642 c 2,27,-1
 169 645 l 1,28,29
 215 537 215 537 264 458.5 c 128,-1,30
 313 380 313 380 360 329.5 c 128,-1,31
 407 279 407 279 451.5 255 c 128,-1,32
 496 231 496 231 533 231 c 0,33,34
 551 231 551 231 567 237 c 128,-1,35
 583 243 583 243 596 256.5 c 128,-1,36
 609 270 609 270 616.5 291.5 c 128,-1,37
 624 313 624 313 624 344 c 0,38,39
 624 417 624 417 550.5 519 c 128,-1,40
 477 621 477 621 328 743 c 1,41,-1
 873 743 l 1,42,-1
 873 980 l 1,43,-1
 -24 980 l 1,44,-1
 -24 1118 l 1,45,-1
 1266 1118 l 1,46,-1
 1266 980 l 1,0,-1
EndSplineSet
Substitution2: "<17,16> Show Invisibles lookup 1 subtable" z
EndChar

StartChar: braceleft
Encoding: 123 123 92
Width: 553
Flags: W
LayerCount: 2
Fore
SplineSet
432 748 m 1,0,1
 432 721 432 721 421.5 693 c 128,-1,2
 411 665 411 665 392.5 639.5 c 128,-1,3
 374 614 374 614 347.5 593.5 c 128,-1,4
 321 573 321 573 289 562 c 1,5,6
 319 550 319 550 345 530 c 128,-1,7
 371 510 371 510 390.5 485.5 c 128,-1,8
 410 461 410 461 421 434.5 c 128,-1,9
 432 408 432 408 432 382 c 2,10,-1
 432 -58 l 2,11,12
 432 -96 432 -96 452 -112.5 c 128,-1,13
 472 -129 472 -129 502 -129 c 0,14,15
 510 -129 510 -129 536 -121 c 128,-1,16
 562 -113 562 -113 600 -100 c 1,17,-1
 600 -223 l 1,18,19
 565 -245 565 -245 525.5 -255.5 c 128,-1,20
 486 -266 486 -266 460 -266 c 0,21,22
 408 -266 408 -266 367.5 -252.5 c 128,-1,23
 327 -239 327 -239 298.5 -214.5 c 128,-1,24
 270 -190 270 -190 255 -156.5 c 128,-1,25
 240 -123 240 -123 240 -83 c 2,26,-1
 240 332 l 2,27,28
 240 356 240 356 237 384.5 c 128,-1,29
 234 413 234 413 224.5 438 c 128,-1,30
 215 463 215 463 197.5 479.5 c 128,-1,31
 180 496 180 496 151 496 c 2,32,-1
 83 496 l 1,33,-1
 83 632 l 1,34,-1
 151 632 l 2,35,36
 180 632 180 632 197.5 649 c 128,-1,37
 215 666 215 666 224.5 690.5 c 128,-1,38
 234 715 234 715 237 743.5 c 128,-1,39
 240 772 240 772 240 796 c 2,40,-1
 240 1213 l 2,41,42
 240 1252 240 1252 255 1285.5 c 128,-1,43
 270 1319 270 1319 298.5 1344 c 128,-1,44
 327 1369 327 1369 367.5 1383 c 128,-1,45
 408 1397 408 1397 460 1397 c 0,46,47
 486 1397 486 1397 525.5 1385 c 128,-1,48
 565 1373 565 1373 600 1353 c 1,49,-1
 600 1222 l 1,50,51
 559 1240 559 1240 533.5 1249.5 c 128,-1,52
 508 1259 508 1259 502 1259 c 0,53,54
 472 1259 472 1259 452 1242 c 128,-1,55
 432 1225 432 1225 432 1189 c 2,56,-1
 432 748 l 1,57,-1
 432 748 l 1,0,1
EndSplineSet
Substitution2: "<17,16> Show Invisibles lookup 1 subtable" braceleft
EndChar

StartChar: bar
Encoding: 124 124 93
Width: 330
Flags: W
LayerCount: 2
Fore
SplineSet
249 1439 m 1,0,-1
 249 -246 l 1,1,-1
 85 -246 l 1,2,-1
 85 1439 l 1,3,-1
 249 1439 l 1,0,-1
EndSplineSet
Substitution2: "<17,16> Show Invisibles lookup 1 subtable" bar
EndChar

StartChar: braceright
Encoding: 125 125 94
Width: 520
Flags: W
LayerCount: 2
Fore
SplineSet
120 382 m 1,0,1
 120 409 120 409 130 436 c 128,-1,2
 140 463 140 463 158.5 487 c 128,-1,3
 177 511 177 511 203 531 c 128,-1,4
 229 551 229 551 260 563 c 1,5,6
 229 575 229 575 203.5 595 c 128,-1,7
 178 615 178 615 159.5 640 c 128,-1,8
 141 665 141 665 130.5 693 c 128,-1,9
 120 721 120 721 120 748 c 2,10,-1
 120 1189 l 2,11,12
 120 1225 120 1225 100 1242 c 128,-1,13
 80 1259 80 1259 48 1259 c 0,14,15
 43 1259 43 1259 17 1249 c 128,-1,16
 -9 1239 -9 1239 -49 1221 c 1,17,-1
 -49 1353 l 1,18,19
 -14 1373 -14 1373 25 1385 c 128,-1,20
 64 1397 64 1397 91 1397 c 0,21,22
 143 1397 143 1397 183.5 1383 c 128,-1,23
 224 1369 224 1369 252 1344 c 128,-1,24
 280 1319 280 1319 295 1285.5 c 128,-1,25
 310 1252 310 1252 310 1213 c 2,26,-1
 310 796 l 2,27,28
 310 772 310 772 313 743.5 c 128,-1,29
 316 715 316 715 326 690.5 c 128,-1,30
 336 666 336 666 353.5 649 c 128,-1,31
 371 632 371 632 400 632 c 2,32,-1
 469 632 l 1,33,-1
 469 496 l 1,34,-1
 400 496 l 2,35,36
 371 496 371 496 353.5 479.5 c 128,-1,37
 336 463 336 463 326 438 c 128,-1,38
 316 413 316 413 313 384.5 c 128,-1,39
 310 356 310 356 310 332 c 2,40,-1
 310 -83 l 2,41,42
 310 -123 310 -123 295 -156.5 c 128,-1,43
 280 -190 280 -190 252 -214.5 c 128,-1,44
 224 -239 224 -239 183.5 -252.5 c 128,-1,45
 143 -266 143 -266 91 -266 c 0,46,47
 64 -266 64 -266 24.5 -255 c 128,-1,48
 -15 -244 -15 -244 -49 -223 c 1,49,-1
 -49 -99 l 1,50,51
 -11 -113 -11 -113 16 -121 c 128,-1,52
 43 -129 43 -129 48 -129 c 0,53,54
 80 -129 80 -129 100 -112.5 c 128,-1,55
 120 -96 120 -96 120 -58 c 2,56,-1
 120 382 l 1,57,-1
 120 382 l 1,0,1
EndSplineSet
Substitution2: "<17,16> Show Invisibles lookup 1 subtable" braceright
EndChar

StartChar: asciitilde
Encoding: 126 126 95
Width: 1127
Flags: W
LayerCount: 2
Fore
SplineSet
1082 747 m 1,0,1
 1079 653 1079 653 1055 580 c 128,-1,2
 1031 507 1031 507 989.5 457 c 128,-1,3
 948 407 948 407 891.5 381 c 128,-1,4
 835 355 835 355 767 355 c 0,5,6
 713 355 713 355 674 368.5 c 128,-1,7
 635 382 635 382 606.5 403.5 c 128,-1,8
 578 425 578 425 556.5 452.5 c 128,-1,9
 535 480 535 480 516 507 c 0,10,11
 498 535 498 535 479.5 560 c 128,-1,12
 461 585 461 585 441 604.5 c 128,-1,13
 421 624 421 624 399 635.5 c 128,-1,14
 377 647 377 647 351 647 c 0,15,16
 309 647 309 647 279 621.5 c 128,-1,17
 249 596 249 596 229.5 557 c 128,-1,18
 210 518 210 518 200 471.5 c 128,-1,19
 190 425 190 425 189 383 c 1,20,-1
 28 383 l 1,21,22
 30 461 30 461 51 533 c 128,-1,23
 72 605 72 605 112.5 660.5 c 128,-1,24
 153 716 153 716 212.5 749 c 128,-1,25
 272 782 272 782 351 782 c 0,26,27
 415 782 415 782 462 765.5 c 128,-1,28
 509 749 509 749 544.5 723 c 128,-1,29
 580 697 580 697 606 665 c 128,-1,30
 632 633 632 633 653 603 c 0,31,32
 688 554 688 554 716.5 522.5 c 128,-1,33
 745 491 745 491 780 491 c 0,34,35
 807 491 807 491 831 510.5 c 128,-1,36
 855 530 855 530 874.5 564 c 128,-1,37
 894 598 894 598 906 645 c 128,-1,38
 918 692 918 692 921 747 c 1,39,-1
 1082 747 l 1,0,1
EndSplineSet
Substitution2: "<17,16> Show Invisibles lookup 1 subtable" asciitilde
EndChar

StartChar: uni0087
Encoding: 135 135 96
Width: 1021
Flags: W
LayerCount: 2
Fore
SplineSet
241 0 m 1,0,1
 262 147 262 147 300.5 289 c 128,-1,2
 339 431 339 431 398.5 568.5 c 128,-1,3
 458 706 458 706 539 837.5 c 128,-1,4
 620 969 620 969 727 1095 c 1,5,-1
 56 1095 l 1,6,-1
 56 1221 l 1,7,-1
 945 1221 l 1,8,-1
 945 1113 l 1,9,10
 849 993 849 993 767.5 873.5 c 128,-1,11
 686 754 686 754 621.5 622 c 128,-1,12
 557 490 557 490 510.5 338 c 128,-1,13
 464 186 464 186 438 0 c 1,14,-1
 241 0 l 1,0,1
EndSplineSet
EndChar

StartChar: uni0088
Encoding: 136 136 97
Width: 1021
Flags: W
LayerCount: 2
Fore
SplineSet
70 347 m 0,0,1
 70 393 70 393 84.5 436.5 c 128,-1,2
 99 480 99 480 124.5 519 c 128,-1,3
 150 558 150 558 185.5 591.5 c 128,-1,4
 221 625 221 625 264 650 c 1,5,6
 187 698 187 698 142.5 765.5 c 128,-1,7
 98 833 98 833 98 912 c 0,8,9
 98 979 98 979 129.5 1038.5 c 128,-1,10
 161 1098 161 1098 215.5 1141.5 c 128,-1,11
 270 1185 270 1185 343 1210.5 c 128,-1,12
 416 1236 416 1236 499 1236 c 0,13,14
 583 1236 583 1236 656 1210.5 c 128,-1,15
 729 1185 729 1185 783 1141.5 c 128,-1,16
 837 1098 837 1098 868.5 1038.5 c 128,-1,17
 900 979 900 979 900 912 c 0,18,19
 900 835 900 835 855 766.5 c 128,-1,20
 810 698 810 698 736 650 c 1,21,22
 780 625 780 625 816 591.5 c 128,-1,23
 852 558 852 558 877.5 519 c 128,-1,24
 903 480 903 480 917 436.5 c 128,-1,25
 931 393 931 393 931 347 c 0,26,27
 931 270 931 270 897 203.5 c 128,-1,28
 863 137 863 137 804.5 88 c 128,-1,29
 746 39 746 39 667.5 10.5 c 128,-1,30
 589 -18 589 -18 499 -18 c 256,31,32
 409 -18 409 -18 331 10.5 c 128,-1,33
 253 39 253 39 195 88 c 128,-1,34
 137 137 137 137 103.5 203.5 c 128,-1,35
 70 270 70 270 70 347 c 0,0,1
260 347 m 256,36,37
 260 297 260 297 279 253.5 c 128,-1,38
 298 210 298 210 330 177.5 c 128,-1,39
 362 145 362 145 405.5 126 c 128,-1,40
 449 107 449 107 499 107 c 256,41,42
 549 107 549 107 592.5 126 c 128,-1,43
 636 145 636 145 668.5 177.5 c 128,-1,44
 701 210 701 210 720 253.5 c 128,-1,45
 739 297 739 297 739 347 c 256,46,47
 739 397 739 397 720 440.5 c 128,-1,48
 701 484 701 484 668.5 516.5 c 128,-1,49
 636 549 636 549 592.5 568 c 128,-1,50
 549 587 549 587 499 587 c 256,51,52
 449 587 449 587 405.5 568 c 128,-1,53
 362 549 362 549 330 516.5 c 128,-1,54
 298 484 298 484 279 440.5 c 128,-1,55
 260 397 260 397 260 347 c 256,36,37
290 912 m 256,56,57
 290 871 290 871 306.5 835 c 128,-1,58
 323 799 323 799 351.5 772 c 128,-1,59
 380 745 380 745 418 729 c 128,-1,60
 456 713 456 713 499 713 c 0,61,62
 543 713 543 713 581.5 729 c 128,-1,63
 620 745 620 745 649 772 c 128,-1,64
 678 799 678 799 694.5 835 c 128,-1,65
 711 871 711 871 711 912 c 256,66,67
 711 953 711 953 694.5 989.5 c 128,-1,68
 678 1026 678 1026 649 1053 c 128,-1,69
 620 1080 620 1080 581.5 1096 c 128,-1,70
 543 1112 543 1112 499 1112 c 0,71,72
 456 1112 456 1112 418 1096 c 128,-1,73
 380 1080 380 1080 351.5 1053 c 128,-1,74
 323 1026 323 1026 306.5 989.5 c 128,-1,75
 290 953 290 953 290 912 c 256,56,57
EndSplineSet
EndChar

StartChar: uni0089
Encoding: 137 137 98
Width: 1021
Flags: W
LayerCount: 2
Fore
SplineSet
257 292 m 1,0,1
 264 258 264 258 282 225 c 128,-1,2
 300 192 300 192 327 165.5 c 128,-1,3
 354 139 354 139 390 123 c 128,-1,4
 426 107 426 107 468 107 c 0,5,6
 541 107 541 107 591.5 146 c 128,-1,7
 642 185 642 185 675 246.5 c 128,-1,8
 708 308 708 308 725.5 383.5 c 128,-1,9
 743 459 743 459 750 533 c 1,10,11
 719 501 719 501 683 479.5 c 128,-1,12
 647 458 647 458 611 444.5 c 128,-1,13
 575 431 575 431 540.5 425 c 128,-1,14
 506 419 506 419 477 419 c 0,15,16
 381 419 381 419 305 450.5 c 128,-1,17
 229 482 229 482 176 538 c 128,-1,18
 123 594 123 594 94.5 670.5 c 128,-1,19
 66 747 66 747 66 837 c 0,20,21
 66 918 66 918 94 990.5 c 128,-1,22
 122 1063 122 1063 175 1118 c 128,-1,23
 228 1173 228 1173 304 1205.5 c 128,-1,24
 380 1238 380 1238 477 1238 c 0,25,26
 581 1238 581 1238 665.5 1202 c 128,-1,27
 750 1166 750 1166 810 1094.5 c 128,-1,28
 870 1023 870 1023 902.5 917 c 128,-1,29
 935 811 935 811 935 671 c 0,30,31
 935 493 935 493 902 363 c 128,-1,32
 869 233 869 233 808.5 148.5 c 128,-1,33
 748 64 748 64 662.5 23 c 128,-1,34
 577 -18 577 -18 472 -18 c 0,35,36
 384 -18 384 -18 315 8 c 128,-1,37
 246 34 246 34 196.5 77.5 c 128,-1,38
 147 121 147 121 117.5 176.5 c 128,-1,39
 88 232 88 232 79 292 c 1,40,-1
 257 292 l 1,0,1
477 1114 m 0,41,42
 429 1114 429 1114 388.5 1092 c 128,-1,43
 348 1070 348 1070 318.5 1032.5 c 128,-1,44
 289 995 289 995 272.5 944.5 c 128,-1,45
 256 894 256 894 256 837 c 0,46,47
 256 781 256 781 272 730 c 128,-1,48
 288 679 288 679 317 640.5 c 128,-1,49
 346 602 346 602 386.5 579 c 128,-1,50
 427 556 427 556 477 556 c 0,51,52
 537 556 537 556 581 581.5 c 128,-1,53
 625 607 625 607 654 647.5 c 128,-1,54
 683 688 683 688 697 737 c 128,-1,55
 711 786 711 786 711 833 c 0,56,57
 711 893 711 893 691.5 944.5 c 128,-1,58
 672 996 672 996 639.5 1033.5 c 128,-1,59
 607 1071 607 1071 565 1092.5 c 128,-1,60
 523 1114 523 1114 477 1114 c 0,41,42
EndSplineSet
EndChar

StartChar: uni008A
Encoding: 138 138 99
Width: 1021
Flags: W
LayerCount: 2
Fore
SplineSet
586 479 m 1,0,-1
 419 483 l 1,1,2
 431 349 431 349 399 282 c 0,3,4
 367 214 367 214 315 140 c 1,5,6
 377 134 377 134 488 134 c 0,7,8
 604 134 604 134 702 140 c 0,9,10
 812 145 812 145 845 145 c 0,11,12
 879 145 879 145 913 125 c 0,13,14
 945 106 945 106 945 74 c 0,15,16
 945 41 945 41 913 22 c 0,17,18
 875 1 875 1 825 3 c 2,19,20
 825 3 825 3 516 10 c 1,21,22
 516 10 516 10 209 3 c 0,23,24
 155 1 155 1 120 25 c 0,25,26
 88 48 88 48 88 90 c 0,27,28
 88 131 88 131 124 180 c 0,29,30
 155 217 155 217 199 285 c 0,31,32
 235 341 235 341 239 400 c 1,33,34
 239 464 239 464 237 480 c 1,35,36
 227 479 227 479 175 479 c 0,37,38
 66 479 66 479 66 539 c 0,39,40
 66 601 66 601 171 601 c 0,41,42
 183 601 183 601 193 600 c 2,43,44
 193 600 193 600 213 600 c 1,45,46
 211 604 211 604 191 671 c 0,47,48
 159 769 159 769 159 833 c 0,49,50
 159 1013 159 1013 263 1087 c 0,51,52
 369 1161 369 1161 552 1161 c 1,53,-1
 538 1017 l 1,54,55
 452 1017 452 1017 403 982 c 0,56,57
 351 949 351 949 351 863 c 0,58,59
 351 783 351 783 397 597 c 1,60,-1
 586 601 l 1,61,-1
 626 585 l 1,62,63
 654 568 654 568 654 541 c 0,64,65
 654 506 654 506 626 497 c 2,66,-1
 586 479 l 1,0,-1
EndSplineSet
EndChar

StartChar: uni008B
Encoding: 139 139 100
Width: 1021
Flags: W
LayerCount: 2
Fore
SplineSet
578 1124 m 1,0,-1
 822 1133 l 2,1,2
 867 1133 867 1133 892 1115 c 0,3,4
 920 1096 920 1096 920 1065 c 0,5,6
 920 1033 920 1033 889 1014 c 128,-1,7
 858 995 858 995 808 995 c 1,8,9
 807 934 807 934 807 400 c 0,10,11
 807 296 807 296 774 212 c 0,12,13
 740 131 740 131 684 87 c 0,14,15
 573 1 573 1 434 1 c 0,16,17
 293 1 293 1 205 52 c 0,18,19
 116 100 116 100 116 150 c 0,20,21
 116 177 116 177 134 196 c 0,22,23
 152 212 152 212 182 212 c 0,24,25
 210 212 210 212 241 191 c 0,26,27
 275 168 275 168 316 149 c 0,28,29
 365 128 365 128 429 128 c 0,30,31
 525 128 525 128 591 202 c 1,32,33
 660 272 660 272 660 431 c 2,34,-1
 655 1002 l 1,35,36
 552 1002 552 1002 468.5 997.5 c 128,-1,37
 385 993 385 993 354 993 c 0,38,39
 319 993 319 993 296 1012 c 1,40,41
 268 1028 268 1028 268 1062 c 128,-1,42
 268 1096 268 1096 296 1112 c 1,43,44
 319 1131 319 1131 367 1131 c 2,45,-1
 578 1124 l 1,0,-1
EndSplineSet
EndChar

StartChar: uni008C
Encoding: 140 140 101
Width: 1021
Flags: W
LayerCount: 2
Fore
SplineSet
727 828 m 1,0,-1
 706 541 l 1,1,2
 603 515 603 515 496 524 c 0,3,4
 446 528 446 528 355 594 c 1,5,-1
 727 828 l 1,0,-1
540 971 m 0,6,7
 639 971 639 971 705 938 c 1,8,-1
 274 671 l 1,9,10
 274 857 274 857 320 900 c 0,11,12
 395 971 395 971 540 971 c 0,6,7
855 81 m 2,13,-1
 843 552 l 1,14,15
 843 900 843 900 852 900 c 0,16,17
 886 905 886 905 902 922 c 0,18,19
 918 940 918 940 918 967 c 0,20,21
 918 992 918 992 875 1020 c 0,22,23
 833 1047 833 1047 768 1063 c 0,24,25
 642 1092 642 1092 549 1092 c 0,26,27
 325 1092 325 1092 206 992 c 0,28,29
 89 893 89 893 89 747 c 128,-1,30
 89 601 89 601 206 501 c 0,31,32
 323 400 323 400 509 400 c 0,33,34
 646 400 646 400 709 415 c 1,35,-1
 702 81 l 2,36,37
 702 46 702 46 723 22 c 0,38,39
 742 -1 742 -1 777 -1 c 128,-1,40
 812 -1 812 -1 834 22 c 0,41,42
 855 46 855 46 855 81 c 2,13,-1
EndSplineSet
EndChar

StartChar: uni008D
Encoding: 141 141 102
Width: 1327
Flags: W
LayerCount: 2
Fore
SplineSet
1040.6484375 1229.31542969 m 4,0,1
 1076.34570312 1273.96386719 1076.34570312 1273.96386719 1129.02050781 1274.16113281 c 132,-1,2
 1181.69726562 1274.36132812 1181.69726562 1274.36132812 1217.86230469 1229.98339844 c 4,3,4
 1255.66992188 1184.87695312 1255.66992188 1184.87695312 1256.04492188 1113.50878906 c 132,-1,5
 1256.42089844 1042.14160156 1256.42089844 1042.14160156 1220.72851562 996.7578125 c 4,6,7
 1183.39550781 952.1015625 1183.39550781 952.1015625 1130.31640625 950.80078125 c 4,8,9
 1078.05175781 950.602539062 1078.05175781 950.602539062 1041.87597656 996.083007812 c 4,10,11
 1004.07519531 1040.45507812 1004.07519531 1040.45507812 1003.69726562 1112.55957031 c 4,12,13
 1003.31933594 1183.92773438 1003.31933594 1183.92773438 1040.6484375 1229.31542969 c 4,0,1
731.1328125 1228.15136719 m 4,14,15
 766.829101562 1272.79980469 766.829101562 1272.79980469 819.5078125 1272.99804688 c 132,-1,16
 872.180664062 1273.19433594 872.180664062 1273.19433594 908.348632812 1228.81933594 c 4,17,18
 946.154296875 1183.7109375 946.154296875 1183.7109375 946.53125 1112.34375 c 132,-1,19
 946.907226562 1040.97558594 946.907226562 1040.97558594 911.211914062 995.592773438 c 4,20,21
 873.87890625 950.939453125 873.87890625 950.939453125 821.619140625 949.639648438 c 4,22,23
 768.537109375 949.438476562 768.537109375 949.438476562 732.36328125 994.919921875 c 4,24,25
 695.37890625 1039.29296875 695.37890625 1039.29296875 695.000976562 1111.3984375 c 4,26,27
 694.623046875 1182.76367188 694.623046875 1182.76367188 731.1328125 1228.15136719 c 4,14,15
821.788085938 1227.38964844 m 4,28,29
 794.834960938 1227.65429688 794.834960938 1227.65429688 777.841796875 1198.16015625 c 4,30,31
 759.213867188 1168.66113281 759.213867188 1168.66113281 759.481445312 1117.52636719 c 4,32,33
 761.416992188 1060.51171875 761.416992188 1060.51171875 778.697265625 1035.56152344 c 4,34,35
 797.6328125 1006.9375 797.6328125 1006.9375 822.952148438 1006.66601562 c 4,36,37
 849.083007812 1007.13183594 849.083007812 1007.13183594 866.8984375 1035.89355469 c 4,38,39
 884.703125 1066.49316406 884.703125 1066.49316406 884.432617188 1117.99609375 c 4,40,41
 884.185546875 1164.71582031 884.185546875 1164.71582031 866.040039062 1198.49316406 c 4,42,43
 849.552734375 1227.86132812 849.552734375 1227.86132812 821.788085938 1227.38964844 c 4,28,29
423.251953125 1226.99316406 m 4,44,45
 458.951171875 1271.640625 458.951171875 1271.640625 512.034179688 1271.83886719 c 132,-1,46
 565.1171875 1272.04003906 565.1171875 1272.04003906 600.46875 1227.66015625 c 4,47,48
 638.2734375 1182.55273438 638.2734375 1182.55273438 638.6484375 1111.18652344 c 132,-1,49
 639.026367188 1039.81640625 639.026367188 1039.81640625 603.33203125 994.43359375 c 4,50,51
 566.815429688 949.784179688 566.815429688 949.784179688 513.73828125 948.48046875 c 4,52,53
 460.658203125 948.28125 460.658203125 948.28125 424.481445312 993.760742188 c 4,54,55
 387.497070312 1038.13476562 387.497070312 1038.13476562 387.118164062 1110.24023438 c 4,56,57
 386.740234375 1181.60644531 386.740234375 1181.60644531 423.251953125 1226.99316406 c 4,44,45
114.555664062 1225.83300781 m 4,58,59
 149.439453125 1270.47753906 149.439453125 1270.47753906 202.51953125 1270.67578125 c 132,-1,60
 255.603515625 1270.87597656 255.603515625 1270.87597656 291.766601562 1226.49804688 c 4,61,62
 328.758789062 1181.38769531 328.758789062 1181.38769531 329.133789062 1110.02050781 c 132,-1,63
 329.51171875 1038.65234375 329.51171875 1038.65234375 293.817382812 993.268554688 c 4,64,65
 257.30078125 948.618164062 257.30078125 948.618164062 204.224609375 947.314453125 c 4,66,67
 151.142578125 947.116210938 151.142578125 947.116210938 115.784179688 992.598632812 c 4,68,69
 77.984375 1036.96972656 77.984375 1036.96972656 77.603515625 1109.07421875 c 4,70,71
 77.2275390625 1180.44140625 77.2275390625 1180.44140625 114.555664062 1225.83300781 c 4,58,59
931.014648438 851.056640625 m 1,72,73
 1002.64453125 836.147460938 1002.64453125 836.147460938 1068.32324219 804.389648438 c 128,-1,74
 1134.00195312 772.631835938 1134.00195312 772.631835938 1182.64160156 720.821289062 c 128,-1,75
 1231.28125 669.009765625 1231.28125 669.009765625 1259.35644531 596.237304688 c 128,-1,76
 1287.43164062 523.46484375 1287.43164062 523.46484375 1284.87890625 427.499023438 c 0,77,78
 1282.51269531 338.530273438 1282.51269531 338.530273438 1256.64746094 268.693359375 c 128,-1,79
 1230.78125 198.856445312 1230.78125 198.856445312 1186.98046875 150.50390625 c 128,-1,80
 1143.1796875 102.151367188 1143.1796875 102.151367188 1083.99511719 77.2158203125 c 128,-1,81
 1024.81152344 52.2802734375 1024.81152344 52.2802734375 956.8359375 54.0888671875 c 0,82,83
 915.850585938 55.1787109375 915.850585938 55.1787109375 878.196289062 68.6845703125 c 128,-1,84
 840.541992188 82.1904296875 840.541992188 82.1904296875 806.665039062 106.099609375 c 128,-1,85
 772.7890625 130.008789062 772.7890625 130.008789062 744.150390625 162.78125 c 128,-1,86
 715.51171875 195.5546875 715.51171875 195.5546875 694.556640625 235.125976562 c 1,87,88
 672.287109375 187.701171875 672.287109375 187.701171875 641.181640625 146.513671875 c 128,-1,89
 610.075195312 105.326171875 610.075195312 105.326171875 570.751953125 74.8603515625 c 128,-1,90
 531.427734375 44.3955078125 531.427734375 44.3955078125 482.965820312 27.677734375 c 128,-1,91
 434.504882812 10.9599609375 434.504882812 10.9599609375 377.524414062 12.4755859375 c 0,92,93
 289.555664062 14.8154296875 289.555664062 14.8154296875 223.497070312 51.083984375 c 128,-1,94
 157.4375 87.353515625 157.4375 87.353515625 114.008789062 147.029296875 c 128,-1,95
 70.580078125 206.705078125 70.580078125 206.705078125 49.6357421875 284.2890625 c 128,-1,96
 28.6904296875 361.873046875 28.6904296875 361.873046875 30.9765625 447.842773438 c 0,97,98
 33.4228515625 539.810546875 33.4228515625 539.810546875 61.9345703125 615.079101562 c 128,-1,99
 90.4453125 690.34765625 90.4453125 690.34765625 142.482421875 747.484375 c 128,-1,100
 194.520507812 804.62109375 194.520507812 804.62109375 269.071289062 843.15234375 c 128,-1,101
 343.622070312 881.684570312 343.622070312 881.684570312 437.12109375 899.204101562 c 1,102,-1
 431.91015625 703.2734375 l 1,103,104
 354.564453125 691.326171875 354.564453125 691.326171875 301.8125 663.71875 c 128,-1,105
 249.059570312 636.111328125 249.059570312 636.111328125 217.099609375 600.448242188 c 128,-1,106
 185.140625 564.78515625 185.140625 564.78515625 171.0546875 524.145507812 c 128,-1,107
 156.969726562 483.505859375 156.969726562 483.505859375 155.932617188 444.51953125 c 0,108,109
 154.81640625 402.534179688 154.81640625 402.534179688 170.193359375 360.110351562 c 128,-1,110
 185.571289062 317.686523438 185.571289062 317.686523438 215.169921875 283.387695312 c 128,-1,111
 244.768554688 249.088867188 244.768554688 249.088867188 287.208007812 227.453125 c 128,-1,112
 329.6484375 205.81640625 329.6484375 205.81640625 382.62890625 204.407226562 c 0,113,114
 433.611328125 203.051757812 433.611328125 203.051757812 478.047851562 218.875976562 c 128,-1,115
 522.484375 234.700195312 522.484375 234.700195312 556.336914062 266.311523438 c 128,-1,116
 590.188476562 297.922851562 590.188476562 297.922851562 610.391601562 342.901367188 c 128,-1,117
 630.594726562 387.879882812 630.594726562 387.879882812 632.110351562 444.860351562 c 2,118,-1
 634.981445312 552.821289062 l 1,119,-1
 769.93359375 549.232421875 l 1,120,-1
 767.0625 441.270507812 l 2,121,122
 765.653320312 388.2890625 765.653320312 388.2890625 781.176757812 351.36328125 c 128,-1,123
 796.701171875 314.4375 796.701171875 314.4375 822.59375 291.241210938 c 128,-1,124
 848.485351562 268.044921875 848.485351562 268.044921875 882.208007812 257.14453125 c 128,-1,125
 915.9296875 246.244140625 915.9296875 246.244140625 950.91796875 245.313476562 c 0,126,127
 1046.88378906 242.760742188 1046.88378906 242.760742188 1102.73339844 292.793945312 c 128,-1,128
 1158.58398438 342.827148438 1158.58398438 342.827148438 1160.92285156 430.795898438 c 0,129,130
 1162.22558594 479.778320312 1162.22558594 479.778320312 1142.25683594 518.823242188 c 128,-1,131
 1122.28808594 557.868164062 1122.28808594 557.868164062 1089.03125 586.26171875 c 128,-1,132
 1055.77441406 614.65625 1055.77441406 614.65625 1013.24121094 632.79296875 c 128,-1,133
 970.708984375 650.930664062 970.708984375 650.930664062 925.857421875 657.125 c 1,134,-1
 931.014648438 851.056640625 l 1,72,73
EndSplineSet
EndChar

StartChar: uni008E
Encoding: 142 142 103
Width: 1021
Flags: W
LayerCount: 2
Fore
SplineSet
474 451 m 1,0,1
 451 414 451 414 377 299 c 0,2,3
 351 257 351 257 324 215 c 128,-1,4
 297 173 297 173 294 168 c 0,5,6
 290 163 290 163 279.5 147 c 128,-1,7
 269 131 269 131 263 122 c 0,8,9
 259 116 259 116 254.5 109 c 128,-1,10
 250 102 250 102 246.5 95.5 c 128,-1,11
 243 89 243 89 242 88 c 2,12,-1
 223 61 l 2,13,14
 207 39 207 39 193 27 c 0,15,16
 170 4 170 4 143 4 c 0,17,18
 119 4 119 4 102 21 c 128,-1,19
 85 38 85 38 85 57 c 0,20,21
 85 78 85 78 95 96 c 0,22,23
 102 113 102 113 129 157 c 0,24,25
 138 168 138 168 147 182 c 128,-1,26
 156 196 156 196 167.5 213.5 c 128,-1,27
 179 231 179 231 186 241 c 0,28,29
 321 430 321 430 403 556 c 1,30,31
 270 786 270 786 192 902 c 0,32,33
 157 952 157 952 112 952 c 0,34,35
 86 952 86 952 80 961 c 0,36,37
 75 968 75 968 75 984 c 0,38,39
 75 1027 75 1027 100 1052 c 0,40,41
 128 1079 128 1079 163 1079 c 0,42,43
 202 1079 202 1079 226 1061 c 0,44,45
 254 1043 254 1043 293 988 c 0,46,47
 316 954 316 954 485 665 c 1,48,49
 495 680 495 680 528.5 734 c 128,-1,50
 562 788 562 788 588 827 c 0,51,52
 654 938 654 938 668 958 c 0,53,54
 687 988 687 988 688 993 c 0,55,56
 694 1000 694 1000 705 1019 c 0,57,58
 709 1026 709 1026 715.5 1034.5 c 128,-1,59
 722 1043 722 1043 724 1044 c 2,60,-1
 739 1059 l 2,61,62
 758 1075 758 1075 782 1075 c 0,63,64
 808 1075 808 1075 825 1058 c 0,65,66
 840 1039 840 1039 840 1016 c 0,67,68
 840 995 840 995 812 944 c 0,69,70
 795 916 795 916 691 758 c 0,71,72
 667 723 667 723 637 678 c 128,-1,73
 607 633 607 633 587.5 604.5 c 128,-1,74
 568 576 568 576 557 558 c 1,75,76
 755 248 755 248 808 189 c 0,77,78
 859 127 859 127 899 127 c 0,79,80
 920 127 920 127 925 118 c 0,81,82
 930 113 930 113 930 97 c 0,83,84
 930 56 930 56 905 27 c 1,85,86
 875 0 875 0 840 0 c 0,87,88
 783 0 783 0 712 92 c 0,89,90
 669 148 669 148 474 451 c 1,0,1
EndSplineSet
EndChar

StartChar: uni008F
Encoding: 143 143 104
Width: 1021
Flags: W
LayerCount: 2
Fore
SplineSet
483 658 m 2,0,-1
 766 665 l 2,1,2
 810 665 810 665 837 646 c 0,3,4
 863 629 863 629 863 598 c 0,5,6
 863 534 863 534 766 534 c 2,7,-1
 483 539 l 2,8,9
 397 539 397 539 372 538 c 1,10,11
 372 347 372 347 377 230.5 c 128,-1,12
 382 114 382 114 382 104 c 0,13,14
 382 0 382 0 297.5 0 c 128,-1,15
 213 0 213 0 213 104 c 0,16,17
 213 134 213 134 215 172 c 0,18,19
 223 362 223 362 223 534 c 1,20,21
 112 534 112 534 112 598 c 0,22,23
 112 632 112 632 143 649 c 0,24,25
 176 665 176 665 223 665 c 1,26,27
 221 927 221 927 211 994 c 1,28,29
 191 1024 191 1024 191 1053 c 0,30,31
 191 1119 191 1119 294 1119 c 2,32,-1
 601 1112 l 1,33,-1
 867 1120 l 2,34,35
 913 1120 913 1120 938 1103 c 0,36,37
 966 1084 966 1084 966 1051.5 c 128,-1,38
 966 1019 966 1019 938 1000 c 0,39,40
 913 983 913 983 867 983 c 2,41,-1
 601 992 l 2,42,43
 483 992 483 992 372 984 c 1,44,-1
 372 659 l 1,45,46
 394 658 394 658 483 658 c 2,0,-1
EndSplineSet
EndChar

StartChar: uni0090
Encoding: 144 144 105
Width: 1024
Flags: W
LayerCount: 2
Fore
SplineSet
820 276 m 0,0,1
 941 232 941 232 941 167.5 c 128,-1,2
 941 103 941 103 820 59 c 0,3,4
 697 13 697 13 503 13 c 128,-1,5
 309 13 309 13 186 57 c 0,6,7
 65 103 65 103 62 168 c 0,8,9
 62 232 62 232 186 276 c 0,10,11
 307 322 307 322 503 322 c 0,12,13
 697 322 697 322 820 276 c 0,0,1
817 166 m 0,14,15
 818 198 818 198 738 219 c 0,16,17
 658 242 658 242 519 242 c 0,18,19
 364 240 364 240 296 219 c 0,20,21
 218 196 218 196 217 166 c 0,22,23
 218 133 218 133 296 112 c 0,24,25
 379 89 379 89 519 89 c 0,26,27
 646 90 646 90 738 112 c 0,28,29
 818 131 818 131 817 166 c 0,14,15
820 655 m 0,30,31
 941 611 941 611 941 546.5 c 128,-1,32
 941 482 941 482 820 438 c 0,33,34
 697 392 697 392 503 392 c 128,-1,35
 309 392 309 392 186 436 c 0,36,37
 65 482 65 482 62 546 c 0,38,39
 62 611 62 611 186 655 c 0,40,41
 307 700 307 700 503 700 c 0,42,43
 697 700 697 700 820 655 c 0,30,31
817 544 m 0,44,45
 818 577 818 577 738 598 c 0,46,47
 658 621 658 621 519 621 c 0,48,49
 364 619 364 619 296 598 c 0,50,51
 218 575 218 575 217 544 c 0,52,53
 218 512 218 512 296 490 c 0,54,55
 379 468 379 468 519 468 c 0,56,57
 646 468 646 468 738 490 c 0,58,59
 818 510 818 510 817 544 c 0,44,45
820 1032 m 0,60,61
 941 988 941 988 941 923 c 128,-1,62
 941 858 941 858 820 815 c 0,63,64
 697 769 697 769 503 769 c 128,-1,65
 309 769 309 769 186 813 c 0,66,67
 65 858 65 858 62 923 c 0,68,69
 62 988 62 988 186 1032 c 0,70,71
 307 1077 307 1077 503 1077 c 0,72,73
 697 1077 697 1077 820 1032 c 0,60,61
817 921 m 0,74,75
 818 954 818 954 738 975 c 0,76,77
 658 997 658 997 519 998 c 0,78,79
 364 995 364 995 296 975 c 0,80,81
 218 952 218 952 217 921 c 0,82,83
 218 889 218 889 296 867 c 0,84,85
 379 845 379 845 519 845 c 0,86,87
 646 845 646 845 738 867 c 0,88,89
 818 887 818 887 817 921 c 0,74,75
820 1410 m 0,90,91
 941 1367 941 1367 941 1302 c 128,-1,92
 941 1237 941 1237 820 1193 c 0,93,94
 697 1148 697 1148 503 1148 c 128,-1,95
 309 1148 309 1148 186 1192 c 0,96,97
 65 1237 65 1237 62 1302 c 0,98,99
 62 1367 62 1367 186 1410 c 0,100,101
 307 1456 307 1456 503 1456 c 0,102,103
 697 1456 697 1456 820 1410 c 0,90,91
817 1300 m 0,104,105
 818 1332 818 1332 738 1354 c 256,106,107
 658 1376 658 1376 519 1376 c 0,108,109
 364 1374 364 1374 296 1354 c 0,110,111
 218 1330 218 1330 217 1300 c 0,112,113
 218 1268 218 1268 296 1246 c 0,114,115
 379 1223 379 1223 519 1223 c 0,116,117
 646 1224 646 1224 738 1246 c 0,118,119
 818 1266 818 1266 817 1300 c 0,104,105
EndSplineSet
EndChar

StartChar: uni0091
Encoding: 145 145 106
Width: 1024
Flags: W
LayerCount: 2
Fore
SplineSet
820 276 m 0,0,1
 941 232 941 232 941 167.5 c 128,-1,2
 941 103 941 103 820 59 c 0,3,4
 697 13 697 13 503 13 c 128,-1,5
 309 13 309 13 186 57 c 0,6,7
 65 103 65 103 62 168 c 0,8,9
 62 232 62 232 186 276 c 0,10,11
 307 322 307 322 503 322 c 0,12,13
 697 322 697 322 820 276 c 0,0,1
820 655 m 0,14,15
 941 611 941 611 941 546.5 c 128,-1,16
 941 482 941 482 820 438 c 0,17,18
 697 392 697 392 503 392 c 128,-1,19
 309 392 309 392 186 436 c 0,20,21
 65 482 65 482 62 546 c 0,22,23
 62 611 62 611 186 655 c 0,24,25
 307 700 307 700 503 700 c 0,26,27
 697 700 697 700 820 655 c 0,14,15
817 544 m 0,28,29
 818 577 818 577 738 598 c 0,30,31
 658 621 658 621 519 621 c 0,32,33
 364 619 364 619 296 598 c 0,34,35
 218 575 218 575 217 544 c 0,36,37
 218 512 218 512 296 490 c 0,38,39
 379 468 379 468 519 468 c 0,40,41
 646 468 646 468 738 490 c 0,42,43
 818 510 818 510 817 544 c 0,28,29
820 1032 m 0,44,45
 941 988 941 988 941 923 c 128,-1,46
 941 858 941 858 820 815 c 0,47,48
 697 769 697 769 503 769 c 128,-1,49
 309 769 309 769 186 813 c 0,50,51
 65 858 65 858 62 923 c 0,52,53
 62 988 62 988 186 1032 c 0,54,55
 307 1077 307 1077 503 1077 c 0,56,57
 697 1077 697 1077 820 1032 c 0,44,45
817 921 m 0,58,59
 818 954 818 954 738 975 c 0,60,61
 658 997 658 997 519 998 c 0,62,63
 364 995 364 995 296 975 c 0,64,65
 218 952 218 952 217 921 c 0,66,67
 218 889 218 889 296 867 c 0,68,69
 379 845 379 845 519 845 c 0,70,71
 646 845 646 845 738 867 c 0,72,73
 818 887 818 887 817 921 c 0,58,59
820 1410 m 0,74,75
 941 1367 941 1367 941 1302 c 128,-1,76
 941 1237 941 1237 820 1193 c 0,77,78
 697 1148 697 1148 503 1148 c 128,-1,79
 309 1148 309 1148 186 1192 c 0,80,81
 65 1237 65 1237 62 1302 c 0,82,83
 62 1367 62 1367 186 1410 c 0,84,85
 307 1456 307 1456 503 1456 c 0,86,87
 697 1456 697 1456 820 1410 c 0,74,75
817 1300 m 0,88,89
 818 1332 818 1332 738 1354 c 256,90,91
 658 1376 658 1376 519 1376 c 0,92,93
 364 1374 364 1374 296 1354 c 0,94,95
 218 1330 218 1330 217 1300 c 0,96,97
 218 1268 218 1268 296 1246 c 0,98,99
 379 1223 379 1223 519 1223 c 0,100,101
 646 1224 646 1224 738 1246 c 0,102,103
 818 1266 818 1266 817 1300 c 0,88,89
EndSplineSet
EndChar

StartChar: uni0092
Encoding: 146 146 107
Width: 1024
Flags: W
LayerCount: 2
Fore
SplineSet
820 276 m 0,0,1
 941 232 941 232 941 167.5 c 128,-1,2
 941 103 941 103 820 59 c 0,3,4
 697 13 697 13 503 13 c 128,-1,5
 309 13 309 13 186 57 c 0,6,7
 65 103 65 103 62 168 c 0,8,9
 62 232 62 232 186 276 c 0,10,11
 307 322 307 322 503 322 c 0,12,13
 697 322 697 322 820 276 c 0,0,1
817 166 m 0,14,15
 818 198 818 198 738 219 c 0,16,17
 658 242 658 242 519 242 c 0,18,19
 364 240 364 240 296 219 c 0,20,21
 218 196 218 196 217 166 c 0,22,23
 218 133 218 133 296 112 c 0,24,25
 379 89 379 89 519 89 c 0,26,27
 646 90 646 90 738 112 c 0,28,29
 818 131 818 131 817 166 c 0,14,15
820 655 m 0,30,31
 941 611 941 611 941 546.5 c 128,-1,32
 941 482 941 482 820 438 c 0,33,34
 697 392 697 392 503 392 c 128,-1,35
 309 392 309 392 186 436 c 0,36,37
 65 482 65 482 62 546 c 0,38,39
 62 611 62 611 186 655 c 0,40,41
 307 700 307 700 503 700 c 0,42,43
 697 700 697 700 820 655 c 0,30,31
820 1032 m 0,44,45
 941 988 941 988 941 923 c 128,-1,46
 941 858 941 858 820 815 c 0,47,48
 697 769 697 769 503 769 c 128,-1,49
 309 769 309 769 186 813 c 0,50,51
 65 858 65 858 62 923 c 0,52,53
 62 988 62 988 186 1032 c 0,54,55
 307 1077 307 1077 503 1077 c 0,56,57
 697 1077 697 1077 820 1032 c 0,44,45
817 921 m 0,58,59
 818 954 818 954 738 975 c 0,60,61
 658 997 658 997 519 998 c 0,62,63
 364 995 364 995 296 975 c 0,64,65
 218 952 218 952 217 921 c 0,66,67
 218 889 218 889 296 867 c 0,68,69
 379 845 379 845 519 845 c 0,70,71
 646 845 646 845 738 867 c 0,72,73
 818 887 818 887 817 921 c 0,58,59
820 1410 m 0,74,75
 941 1367 941 1367 941 1302 c 128,-1,76
 941 1237 941 1237 820 1193 c 0,77,78
 697 1148 697 1148 503 1148 c 128,-1,79
 309 1148 309 1148 186 1192 c 0,80,81
 65 1237 65 1237 62 1302 c 0,82,83
 62 1367 62 1367 186 1410 c 0,84,85
 307 1456 307 1456 503 1456 c 0,86,87
 697 1456 697 1456 820 1410 c 0,74,75
817 1300 m 0,88,89
 818 1332 818 1332 738 1354 c 256,90,91
 658 1376 658 1376 519 1376 c 0,92,93
 364 1374 364 1374 296 1354 c 0,94,95
 218 1330 218 1330 217 1300 c 0,96,97
 218 1268 218 1268 296 1246 c 0,98,99
 379 1223 379 1223 519 1223 c 0,100,101
 646 1224 646 1224 738 1246 c 0,102,103
 818 1266 818 1266 817 1300 c 0,88,89
EndSplineSet
EndChar

StartChar: uni0093
Encoding: 147 147 108
Width: 1024
Flags: W
LayerCount: 2
Fore
SplineSet
820 276 m 0,0,1
 941 232 941 232 941 167.5 c 128,-1,2
 941 103 941 103 820 59 c 0,3,4
 697 13 697 13 503 13 c 128,-1,5
 309 13 309 13 186 57 c 0,6,7
 65 103 65 103 62 168 c 0,8,9
 62 232 62 232 186 276 c 0,10,11
 307 322 307 322 503 322 c 0,12,13
 697 322 697 322 820 276 c 0,0,1
820 655 m 0,14,15
 941 611 941 611 941 546.5 c 128,-1,16
 941 482 941 482 820 438 c 0,17,18
 697 392 697 392 503 392 c 128,-1,19
 309 392 309 392 186 436 c 0,20,21
 65 482 65 482 62 546 c 0,22,23
 62 611 62 611 186 655 c 0,24,25
 307 700 307 700 503 700 c 0,26,27
 697 700 697 700 820 655 c 0,14,15
820 1032 m 0,28,29
 941 988 941 988 941 923 c 128,-1,30
 941 858 941 858 820 815 c 0,31,32
 697 769 697 769 503 769 c 128,-1,33
 309 769 309 769 186 813 c 0,34,35
 65 858 65 858 62 923 c 0,36,37
 62 988 62 988 186 1032 c 0,38,39
 307 1077 307 1077 503 1077 c 0,40,41
 697 1077 697 1077 820 1032 c 0,28,29
817 921 m 0,42,43
 818 954 818 954 738 975 c 0,44,45
 658 997 658 997 519 998 c 0,46,47
 364 995 364 995 296 975 c 0,48,49
 218 952 218 952 217 921 c 0,50,51
 218 889 218 889 296 867 c 0,52,53
 379 845 379 845 519 845 c 0,54,55
 646 845 646 845 738 867 c 0,56,57
 818 887 818 887 817 921 c 0,42,43
820 1410 m 0,58,59
 941 1367 941 1367 941 1302 c 128,-1,60
 941 1237 941 1237 820 1193 c 0,61,62
 697 1148 697 1148 503 1148 c 128,-1,63
 309 1148 309 1148 186 1192 c 0,64,65
 65 1237 65 1237 62 1302 c 0,66,67
 62 1367 62 1367 186 1410 c 0,68,69
 307 1456 307 1456 503 1456 c 0,70,71
 697 1456 697 1456 820 1410 c 0,58,59
817 1300 m 0,72,73
 818 1332 818 1332 738 1354 c 256,74,75
 658 1376 658 1376 519 1376 c 0,76,77
 364 1374 364 1374 296 1354 c 0,78,79
 218 1330 218 1330 217 1300 c 0,80,81
 218 1268 218 1268 296 1246 c 0,82,83
 379 1223 379 1223 519 1223 c 0,84,85
 646 1224 646 1224 738 1246 c 0,86,87
 818 1266 818 1266 817 1300 c 0,72,73
EndSplineSet
EndChar

StartChar: uni0094
Encoding: 148 148 109
Width: 1024
Flags: W
LayerCount: 2
Fore
SplineSet
820 276 m 0,0,1
 941 232 941 232 941 167.5 c 128,-1,2
 941 103 941 103 820 59 c 0,3,4
 697 13 697 13 503 13 c 128,-1,5
 309 13 309 13 186 57 c 0,6,7
 65 103 65 103 62 168 c 0,8,9
 62 232 62 232 186 276 c 0,10,11
 307 322 307 322 503 322 c 0,12,13
 697 322 697 322 820 276 c 0,0,1
817 166 m 0,14,15
 818 198 818 198 738 219 c 0,16,17
 658 242 658 242 519 242 c 0,18,19
 364 240 364 240 296 219 c 0,20,21
 218 196 218 196 217 166 c 0,22,23
 218 133 218 133 296 112 c 0,24,25
 379 89 379 89 519 89 c 0,26,27
 646 90 646 90 738 112 c 0,28,29
 818 131 818 131 817 166 c 0,14,15
820 655 m 0,30,31
 941 611 941 611 941 546.5 c 128,-1,32
 941 482 941 482 820 438 c 0,33,34
 697 392 697 392 503 392 c 128,-1,35
 309 392 309 392 186 436 c 0,36,37
 65 482 65 482 62 546 c 0,38,39
 62 611 62 611 186 655 c 0,40,41
 307 700 307 700 503 700 c 0,42,43
 697 700 697 700 820 655 c 0,30,31
817 544 m 0,44,45
 818 577 818 577 738 598 c 0,46,47
 658 621 658 621 519 621 c 0,48,49
 364 619 364 619 296 598 c 0,50,51
 218 575 218 575 217 544 c 0,52,53
 218 512 218 512 296 490 c 0,54,55
 379 468 379 468 519 468 c 0,56,57
 646 468 646 468 738 490 c 0,58,59
 818 510 818 510 817 544 c 0,44,45
820 1032 m 0,60,61
 941 988 941 988 941 923 c 128,-1,62
 941 858 941 858 820 815 c 0,63,64
 697 769 697 769 503 769 c 128,-1,65
 309 769 309 769 186 813 c 0,66,67
 65 858 65 858 62 923 c 0,68,69
 62 988 62 988 186 1032 c 0,70,71
 307 1077 307 1077 503 1077 c 0,72,73
 697 1077 697 1077 820 1032 c 0,60,61
820 1410 m 0,74,75
 941 1367 941 1367 941 1302 c 128,-1,76
 941 1237 941 1237 820 1193 c 0,77,78
 697 1148 697 1148 503 1148 c 128,-1,79
 309 1148 309 1148 186 1192 c 0,80,81
 65 1237 65 1237 62 1302 c 0,82,83
 62 1367 62 1367 186 1410 c 0,84,85
 307 1456 307 1456 503 1456 c 0,86,87
 697 1456 697 1456 820 1410 c 0,74,75
817 1300 m 0,88,89
 818 1332 818 1332 738 1354 c 256,90,91
 658 1376 658 1376 519 1376 c 0,92,93
 364 1374 364 1374 296 1354 c 0,94,95
 218 1330 218 1330 217 1300 c 0,96,97
 218 1268 218 1268 296 1246 c 0,98,99
 379 1223 379 1223 519 1223 c 0,100,101
 646 1224 646 1224 738 1246 c 0,102,103
 818 1266 818 1266 817 1300 c 0,88,89
EndSplineSet
EndChar

StartChar: uni0095
Encoding: 149 149 110
Width: 1024
Flags: W
LayerCount: 2
Fore
SplineSet
820 276 m 0,0,1
 941 232 941 232 941 167.5 c 128,-1,2
 941 103 941 103 820 59 c 0,3,4
 697 13 697 13 503 13 c 128,-1,5
 309 13 309 13 186 57 c 0,6,7
 65 103 65 103 62 168 c 0,8,9
 62 232 62 232 186 276 c 0,10,11
 307 322 307 322 503 322 c 0,12,13
 697 322 697 322 820 276 c 0,0,1
820 655 m 0,14,15
 941 611 941 611 941 546.5 c 128,-1,16
 941 482 941 482 820 438 c 0,17,18
 697 392 697 392 503 392 c 128,-1,19
 309 392 309 392 186 436 c 0,20,21
 65 482 65 482 62 546 c 0,22,23
 62 611 62 611 186 655 c 0,24,25
 307 700 307 700 503 700 c 0,26,27
 697 700 697 700 820 655 c 0,14,15
817 544 m 0,28,29
 818 577 818 577 738 598 c 0,30,31
 658 621 658 621 519 621 c 0,32,33
 364 619 364 619 296 598 c 0,34,35
 218 575 218 575 217 544 c 0,36,37
 218 512 218 512 296 490 c 0,38,39
 379 468 379 468 519 468 c 0,40,41
 646 468 646 468 738 490 c 0,42,43
 818 510 818 510 817 544 c 0,28,29
820 1032 m 0,44,45
 941 988 941 988 941 923 c 128,-1,46
 941 858 941 858 820 815 c 0,47,48
 697 769 697 769 503 769 c 128,-1,49
 309 769 309 769 186 813 c 0,50,51
 65 858 65 858 62 923 c 0,52,53
 62 988 62 988 186 1032 c 0,54,55
 307 1077 307 1077 503 1077 c 0,56,57
 697 1077 697 1077 820 1032 c 0,44,45
820 1410 m 0,58,59
 941 1367 941 1367 941 1302 c 128,-1,60
 941 1237 941 1237 820 1193 c 0,61,62
 697 1148 697 1148 503 1148 c 128,-1,63
 309 1148 309 1148 186 1192 c 0,64,65
 65 1237 65 1237 62 1302 c 0,66,67
 62 1367 62 1367 186 1410 c 0,68,69
 307 1456 307 1456 503 1456 c 0,70,71
 697 1456 697 1456 820 1410 c 0,58,59
817 1300 m 0,72,73
 818 1332 818 1332 738 1354 c 256,74,75
 658 1376 658 1376 519 1376 c 0,76,77
 364 1374 364 1374 296 1354 c 0,78,79
 218 1330 218 1330 217 1300 c 0,80,81
 218 1268 218 1268 296 1246 c 0,82,83
 379 1223 379 1223 519 1223 c 0,84,85
 646 1224 646 1224 738 1246 c 0,86,87
 818 1266 818 1266 817 1300 c 0,72,73
EndSplineSet
EndChar

StartChar: uni0096
Encoding: 150 150 111
Width: 1024
Flags: W
LayerCount: 2
Fore
SplineSet
820 276 m 0,0,1
 941 232 941 232 941 167.5 c 128,-1,2
 941 103 941 103 820 59 c 0,3,4
 697 13 697 13 503 13 c 128,-1,5
 309 13 309 13 186 57 c 0,6,7
 65 103 65 103 62 168 c 0,8,9
 62 232 62 232 186 276 c 0,10,11
 307 322 307 322 503 322 c 0,12,13
 697 322 697 322 820 276 c 0,0,1
817 166 m 0,14,15
 818 198 818 198 738 219 c 0,16,17
 658 242 658 242 519 242 c 0,18,19
 364 240 364 240 296 219 c 0,20,21
 218 196 218 196 217 166 c 0,22,23
 218 133 218 133 296 112 c 0,24,25
 379 89 379 89 519 89 c 0,26,27
 646 90 646 90 738 112 c 0,28,29
 818 131 818 131 817 166 c 0,14,15
820 655 m 4,30,31
 941 611 941 611 941 546.5 c 132,-1,32
 941 482 941 482 820 438 c 4,33,34
 697 392 697 392 503 392 c 132,-1,35
 309 392 309 392 186 436 c 4,36,37
 65 482 65 482 62 546 c 4,38,39
 62 611 62 611 186 655 c 4,40,41
 307 700 307 700 503 700 c 4,42,43
 697 700 697 700 820 655 c 4,30,31
820 1032 m 0,44,45
 941 988 941 988 941 923 c 128,-1,46
 941 858 941 858 820 815 c 0,47,48
 697 769 697 769 503 769 c 128,-1,49
 309 769 309 769 186 813 c 0,50,51
 65 858 65 858 62 923 c 0,52,53
 62 988 62 988 186 1032 c 0,54,55
 307 1077 307 1077 503 1077 c 0,56,57
 697 1077 697 1077 820 1032 c 0,44,45
820 1410 m 0,58,59
 941 1367 941 1367 941 1302 c 128,-1,60
 941 1237 941 1237 820 1193 c 0,61,62
 697 1148 697 1148 503 1148 c 128,-1,63
 309 1148 309 1148 186 1192 c 0,64,65
 65 1237 65 1237 62 1302 c 0,66,67
 62 1367 62 1367 186 1410 c 0,68,69
 307 1456 307 1456 503 1456 c 0,70,71
 697 1456 697 1456 820 1410 c 0,58,59
817 1300 m 0,72,73
 818 1332 818 1332 738 1354 c 256,74,75
 658 1376 658 1376 519 1376 c 0,76,77
 364 1374 364 1374 296 1354 c 0,78,79
 218 1330 218 1330 217 1300 c 0,80,81
 218 1268 218 1268 296 1246 c 0,82,83
 379 1223 379 1223 519 1223 c 0,84,85
 646 1224 646 1224 738 1246 c 0,86,87
 818 1266 818 1266 817 1300 c 0,72,73
EndSplineSet
EndChar

StartChar: uni0097
Encoding: 151 151 112
Width: 1024
Flags: W
LayerCount: 2
Fore
SplineSet
820 276 m 0,0,1
 941 232 941 232 941 167.5 c 128,-1,2
 941 103 941 103 820 59 c 0,3,4
 697 13 697 13 503 13 c 128,-1,5
 309 13 309 13 186 57 c 0,6,7
 65 103 65 103 62 168 c 0,8,9
 62 232 62 232 186 276 c 0,10,11
 307 322 307 322 503 322 c 0,12,13
 697 322 697 322 820 276 c 0,0,1
820 655 m 0,14,15
 941 611 941 611 941 546.5 c 128,-1,16
 941 482 941 482 820 438 c 0,17,18
 697 392 697 392 503 392 c 128,-1,19
 309 392 309 392 186 436 c 0,20,21
 65 482 65 482 62 546 c 0,22,23
 62 611 62 611 186 655 c 0,24,25
 307 700 307 700 503 700 c 0,26,27
 697 700 697 700 820 655 c 0,14,15
820 1032 m 0,28,29
 941 988 941 988 941 923 c 128,-1,30
 941 858 941 858 820 815 c 0,31,32
 697 769 697 769 503 769 c 128,-1,33
 309 769 309 769 186 813 c 0,34,35
 65 858 65 858 62 923 c 0,36,37
 62 988 62 988 186 1032 c 0,38,39
 307 1077 307 1077 503 1077 c 0,40,41
 697 1077 697 1077 820 1032 c 0,28,29
820 1410 m 0,42,43
 941 1367 941 1367 941 1302 c 128,-1,44
 941 1237 941 1237 820 1193 c 0,45,46
 697 1148 697 1148 503 1148 c 128,-1,47
 309 1148 309 1148 186 1192 c 0,48,49
 65 1237 65 1237 62 1302 c 0,50,51
 62 1367 62 1367 186 1410 c 0,52,53
 307 1456 307 1456 503 1456 c 0,54,55
 697 1456 697 1456 820 1410 c 0,42,43
817 1300 m 0,56,57
 818 1332 818 1332 738 1354 c 256,58,59
 658 1376 658 1376 519 1376 c 0,60,61
 364 1374 364 1374 296 1354 c 0,62,63
 218 1330 218 1330 217 1300 c 0,64,65
 218 1268 218 1268 296 1246 c 0,66,67
 379 1223 379 1223 519 1223 c 0,68,69
 646 1224 646 1224 738 1246 c 0,70,71
 818 1266 818 1266 817 1300 c 0,56,57
EndSplineSet
EndChar

StartChar: uni0098
Encoding: 152 152 113
Width: 1024
Flags: W
LayerCount: 2
Fore
SplineSet
820 276 m 0,0,1
 941 232 941 232 941 167.5 c 128,-1,2
 941 103 941 103 820 59 c 0,3,4
 697 13 697 13 503 13 c 128,-1,5
 309 13 309 13 186 57 c 0,6,7
 65 103 65 103 62 168 c 0,8,9
 62 232 62 232 186 276 c 0,10,11
 307 322 307 322 503 322 c 0,12,13
 697 322 697 322 820 276 c 0,0,1
817 166 m 0,14,15
 818 198 818 198 738 219 c 0,16,17
 658 242 658 242 519 242 c 0,18,19
 364 240 364 240 296 219 c 0,20,21
 218 196 218 196 217 166 c 0,22,23
 218 133 218 133 296 112 c 0,24,25
 379 89 379 89 519 89 c 0,26,27
 646 90 646 90 738 112 c 0,28,29
 818 131 818 131 817 166 c 0,14,15
820 655 m 0,30,31
 941 611 941 611 941 546.5 c 128,-1,32
 941 482 941 482 820 438 c 0,33,34
 697 392 697 392 503 392 c 128,-1,35
 309 392 309 392 186 436 c 0,36,37
 65 482 65 482 62 546 c 0,38,39
 62 611 62 611 186 655 c 0,40,41
 307 700 307 700 503 700 c 0,42,43
 697 700 697 700 820 655 c 0,30,31
817 544 m 0,44,45
 818 577 818 577 738 598 c 0,46,47
 658 621 658 621 519 621 c 0,48,49
 364 619 364 619 296 598 c 0,50,51
 218 575 218 575 217 544 c 0,52,53
 218 512 218 512 296 490 c 0,54,55
 379 468 379 468 519 468 c 0,56,57
 646 468 646 468 738 490 c 0,58,59
 818 510 818 510 817 544 c 0,44,45
820 1032 m 0,60,61
 941 988 941 988 941 923 c 128,-1,62
 941 858 941 858 820 815 c 0,63,64
 697 769 697 769 503 769 c 128,-1,65
 309 769 309 769 186 813 c 0,66,67
 65 858 65 858 62 923 c 0,68,69
 62 988 62 988 186 1032 c 0,70,71
 307 1077 307 1077 503 1077 c 0,72,73
 697 1077 697 1077 820 1032 c 0,60,61
817 921 m 0,74,75
 818 954 818 954 738 975 c 0,76,77
 658 997 658 997 519 998 c 0,78,79
 364 995 364 995 296 975 c 0,80,81
 218 952 218 952 217 921 c 0,82,83
 218 889 218 889 296 867 c 0,84,85
 379 845 379 845 519 845 c 0,86,87
 646 845 646 845 738 867 c 0,88,89
 818 887 818 887 817 921 c 0,74,75
820 1410 m 0,90,91
 941 1367 941 1367 941 1302 c 128,-1,92
 941 1237 941 1237 820 1193 c 0,93,94
 697 1148 697 1148 503 1148 c 128,-1,95
 309 1148 309 1148 186 1192 c 0,96,97
 65 1237 65 1237 62 1302 c 0,98,99
 62 1367 62 1367 186 1410 c 0,100,101
 307 1456 307 1456 503 1456 c 0,102,103
 697 1456 697 1456 820 1410 c 0,90,91
EndSplineSet
EndChar

StartChar: uni0099
Encoding: 153 153 114
Width: 1024
Flags: W
LayerCount: 2
Fore
SplineSet
820 276 m 0,0,1
 941 232 941 232 941 167.5 c 128,-1,2
 941 103 941 103 820 59 c 0,3,4
 697 13 697 13 503 13 c 128,-1,5
 309 13 309 13 186 57 c 0,6,7
 65 103 65 103 62 168 c 0,8,9
 62 232 62 232 186 276 c 0,10,11
 307 322 307 322 503 322 c 0,12,13
 697 322 697 322 820 276 c 0,0,1
820 655 m 0,14,15
 941 611 941 611 941 546.5 c 128,-1,16
 941 482 941 482 820 438 c 0,17,18
 697 392 697 392 503 392 c 128,-1,19
 309 392 309 392 186 436 c 0,20,21
 65 482 65 482 62 546 c 0,22,23
 62 611 62 611 186 655 c 0,24,25
 307 700 307 700 503 700 c 0,26,27
 697 700 697 700 820 655 c 0,14,15
817 544 m 0,28,29
 818 577 818 577 738 598 c 0,30,31
 658 621 658 621 519 621 c 0,32,33
 364 619 364 619 296 598 c 0,34,35
 218 575 218 575 217 544 c 0,36,37
 218 512 218 512 296 490 c 0,38,39
 379 468 379 468 519 468 c 0,40,41
 646 468 646 468 738 490 c 0,42,43
 818 510 818 510 817 544 c 0,28,29
820 1032 m 0,44,45
 941 988 941 988 941 923 c 128,-1,46
 941 858 941 858 820 815 c 0,47,48
 697 769 697 769 503 769 c 128,-1,49
 309 769 309 769 186 813 c 0,50,51
 65 858 65 858 62 923 c 0,52,53
 62 988 62 988 186 1032 c 0,54,55
 307 1077 307 1077 503 1077 c 0,56,57
 697 1077 697 1077 820 1032 c 0,44,45
817 921 m 0,58,59
 818 954 818 954 738 975 c 0,60,61
 658 997 658 997 519 998 c 0,62,63
 364 995 364 995 296 975 c 0,64,65
 218 952 218 952 217 921 c 0,66,67
 218 889 218 889 296 867 c 0,68,69
 379 845 379 845 519 845 c 0,70,71
 646 845 646 845 738 867 c 0,72,73
 818 887 818 887 817 921 c 0,58,59
820 1410 m 0,74,75
 941 1367 941 1367 941 1302 c 128,-1,76
 941 1237 941 1237 820 1193 c 0,77,78
 697 1148 697 1148 503 1148 c 128,-1,79
 309 1148 309 1148 186 1192 c 0,80,81
 65 1237 65 1237 62 1302 c 0,82,83
 62 1367 62 1367 186 1410 c 0,84,85
 307 1456 307 1456 503 1456 c 0,86,87
 697 1456 697 1456 820 1410 c 0,74,75
EndSplineSet
EndChar

StartChar: uni009A
Encoding: 154 154 115
Width: 1024
Flags: W
LayerCount: 2
Fore
SplineSet
820 276 m 0,0,1
 941 232 941 232 941 167.5 c 128,-1,2
 941 103 941 103 820 59 c 0,3,4
 697 13 697 13 503 13 c 128,-1,5
 309 13 309 13 186 57 c 0,6,7
 65 103 65 103 62 168 c 0,8,9
 62 232 62 232 186 276 c 0,10,11
 307 322 307 322 503 322 c 0,12,13
 697 322 697 322 820 276 c 0,0,1
817 166 m 0,14,15
 818 198 818 198 738 219 c 0,16,17
 658 242 658 242 519 242 c 0,18,19
 364 240 364 240 296 219 c 0,20,21
 218 196 218 196 217 166 c 0,22,23
 218 133 218 133 296 112 c 0,24,25
 379 89 379 89 519 89 c 0,26,27
 646 90 646 90 738 112 c 0,28,29
 818 131 818 131 817 166 c 0,14,15
820 655 m 0,30,31
 941 611 941 611 941 546.5 c 128,-1,32
 941 482 941 482 820 438 c 0,33,34
 697 392 697 392 503 392 c 128,-1,35
 309 392 309 392 186 436 c 0,36,37
 65 482 65 482 62 546 c 0,38,39
 62 611 62 611 186 655 c 0,40,41
 307 700 307 700 503 700 c 0,42,43
 697 700 697 700 820 655 c 0,30,31
820 1032 m 0,44,45
 941 988 941 988 941 923 c 128,-1,46
 941 858 941 858 820 815 c 0,47,48
 697 769 697 769 503 769 c 128,-1,49
 309 769 309 769 186 813 c 0,50,51
 65 858 65 858 62 923 c 0,52,53
 62 988 62 988 186 1032 c 0,54,55
 307 1077 307 1077 503 1077 c 0,56,57
 697 1077 697 1077 820 1032 c 0,44,45
817 921 m 0,58,59
 818 954 818 954 738 975 c 0,60,61
 658 997 658 997 519 998 c 0,62,63
 364 995 364 995 296 975 c 0,64,65
 218 952 218 952 217 921 c 0,66,67
 218 889 218 889 296 867 c 0,68,69
 379 845 379 845 519 845 c 0,70,71
 646 845 646 845 738 867 c 0,72,73
 818 887 818 887 817 921 c 0,58,59
820 1410 m 0,74,75
 941 1367 941 1367 941 1302 c 128,-1,76
 941 1237 941 1237 820 1193 c 0,77,78
 697 1148 697 1148 503 1148 c 128,-1,79
 309 1148 309 1148 186 1192 c 0,80,81
 65 1237 65 1237 62 1302 c 0,82,83
 62 1367 62 1367 186 1410 c 0,84,85
 307 1456 307 1456 503 1456 c 0,86,87
 697 1456 697 1456 820 1410 c 0,74,75
EndSplineSet
EndChar

StartChar: uni009B
Encoding: 155 155 116
Width: 1024
Flags: W
LayerCount: 2
Fore
SplineSet
820 276 m 0,0,1
 941 232 941 232 941 167.5 c 128,-1,2
 941 103 941 103 820 59 c 0,3,4
 697 13 697 13 503 13 c 128,-1,5
 309 13 309 13 186 57 c 0,6,7
 65 103 65 103 62 168 c 0,8,9
 62 232 62 232 186 276 c 0,10,11
 307 322 307 322 503 322 c 0,12,13
 697 322 697 322 820 276 c 0,0,1
820 655 m 0,14,15
 941 611 941 611 941 546.5 c 128,-1,16
 941 482 941 482 820 438 c 0,17,18
 697 392 697 392 503 392 c 128,-1,19
 309 392 309 392 186 436 c 0,20,21
 65 482 65 482 62 546 c 0,22,23
 62 611 62 611 186 655 c 0,24,25
 307 700 307 700 503 700 c 0,26,27
 697 700 697 700 820 655 c 0,14,15
820 1032 m 0,28,29
 941 988 941 988 941 923 c 128,-1,30
 941 858 941 858 820 815 c 0,31,32
 697 769 697 769 503 769 c 128,-1,33
 309 769 309 769 186 813 c 0,34,35
 65 858 65 858 62 923 c 0,36,37
 62 988 62 988 186 1032 c 0,38,39
 307 1077 307 1077 503 1077 c 0,40,41
 697 1077 697 1077 820 1032 c 0,28,29
817 921 m 0,42,43
 818 954 818 954 738 975 c 0,44,45
 658 997 658 997 519 998 c 0,46,47
 364 995 364 995 296 975 c 0,48,49
 218 952 218 952 217 921 c 0,50,51
 218 889 218 889 296 867 c 0,52,53
 379 845 379 845 519 845 c 0,54,55
 646 845 646 845 738 867 c 0,56,57
 818 887 818 887 817 921 c 0,42,43
820 1410 m 0,58,59
 941 1367 941 1367 941 1302 c 128,-1,60
 941 1237 941 1237 820 1193 c 0,61,62
 697 1148 697 1148 503 1148 c 128,-1,63
 309 1148 309 1148 186 1192 c 0,64,65
 65 1237 65 1237 62 1302 c 0,66,67
 62 1367 62 1367 186 1410 c 0,68,69
 307 1456 307 1456 503 1456 c 0,70,71
 697 1456 697 1456 820 1410 c 0,58,59
EndSplineSet
EndChar

StartChar: uni009C
Encoding: 156 156 117
Width: 1024
Flags: W
LayerCount: 2
Fore
SplineSet
820 276 m 0,0,1
 941 232 941 232 941 167.5 c 128,-1,2
 941 103 941 103 820 59 c 0,3,4
 697 13 697 13 503 13 c 128,-1,5
 309 13 309 13 186 57 c 0,6,7
 65 103 65 103 62 168 c 0,8,9
 62 232 62 232 186 276 c 0,10,11
 307 322 307 322 503 322 c 0,12,13
 697 322 697 322 820 276 c 0,0,1
817 166 m 0,14,15
 818 198 818 198 738 219 c 0,16,17
 658 242 658 242 519 242 c 0,18,19
 364 240 364 240 296 219 c 0,20,21
 218 196 218 196 217 166 c 0,22,23
 218 133 218 133 296 112 c 0,24,25
 379 89 379 89 519 89 c 0,26,27
 646 90 646 90 738 112 c 0,28,29
 818 131 818 131 817 166 c 0,14,15
820 655 m 0,30,31
 941 611 941 611 941 546.5 c 128,-1,32
 941 482 941 482 820 438 c 0,33,34
 697 392 697 392 503 392 c 128,-1,35
 309 392 309 392 186 436 c 0,36,37
 65 482 65 482 62 546 c 0,38,39
 62 611 62 611 186 655 c 0,40,41
 307 700 307 700 503 700 c 0,42,43
 697 700 697 700 820 655 c 0,30,31
817 544 m 0,44,45
 818 577 818 577 738 598 c 0,46,47
 658 621 658 621 519 621 c 0,48,49
 364 619 364 619 296 598 c 0,50,51
 218 575 218 575 217 544 c 0,52,53
 218 512 218 512 296 490 c 0,54,55
 379 468 379 468 519 468 c 0,56,57
 646 468 646 468 738 490 c 0,58,59
 818 510 818 510 817 544 c 0,44,45
820 1032 m 0,60,61
 941 988 941 988 941 923 c 128,-1,62
 941 858 941 858 820 815 c 0,63,64
 697 769 697 769 503 769 c 128,-1,65
 309 769 309 769 186 813 c 0,66,67
 65 858 65 858 62 923 c 0,68,69
 62 988 62 988 186 1032 c 0,70,71
 307 1077 307 1077 503 1077 c 0,72,73
 697 1077 697 1077 820 1032 c 0,60,61
820 1410 m 0,74,75
 941 1367 941 1367 941 1302 c 128,-1,76
 941 1237 941 1237 820 1193 c 0,77,78
 697 1148 697 1148 503 1148 c 128,-1,79
 309 1148 309 1148 186 1192 c 0,80,81
 65 1237 65 1237 62 1302 c 0,82,83
 62 1367 62 1367 186 1410 c 0,84,85
 307 1456 307 1456 503 1456 c 0,86,87
 697 1456 697 1456 820 1410 c 0,74,75
EndSplineSet
EndChar

StartChar: uni009D
Encoding: 157 157 118
Width: 1024
Flags: W
LayerCount: 2
Fore
SplineSet
820 276 m 4,0,1
 941 232 941 232 941 167.5 c 132,-1,2
 941 103 941 103 820 59 c 4,3,4
 697 13 697 13 503 13 c 132,-1,5
 309 13 309 13 186 57 c 4,6,7
 65 103 65 103 62 168 c 4,8,9
 62 232 62 232 186 276 c 4,10,11
 307 322 307 322 503 322 c 4,12,13
 697 322 697 322 820 276 c 4,0,1
820 655 m 4,14,15
 941 611 941 611 941 546.5 c 132,-1,16
 941 482 941 482 820 438 c 4,17,18
 697 392 697 392 503 392 c 132,-1,19
 309 392 309 392 186 436 c 4,20,21
 65 482 65 482 62 546 c 4,22,23
 62 611 62 611 186 655 c 4,24,25
 307 700 307 700 503 700 c 4,26,27
 697 700 697 700 820 655 c 4,14,15
817 544 m 4,28,29
 818 577 818 577 738 598 c 4,30,31
 658 621 658 621 519 621 c 4,32,33
 364 619 364 619 296 598 c 4,34,35
 218 575 218 575 217 544 c 4,36,37
 218 512 218 512 296 490 c 4,38,39
 379 468 379 468 519 468 c 4,40,41
 646 468 646 468 738 490 c 4,42,43
 818 510 818 510 817 544 c 4,28,29
820 1032 m 4,44,45
 941 988 941 988 941 923 c 132,-1,46
 941 858 941 858 820 815 c 4,47,48
 697 769 697 769 503 769 c 132,-1,49
 309 769 309 769 186 813 c 4,50,51
 65 858 65 858 62 923 c 4,52,53
 62 988 62 988 186 1032 c 4,54,55
 307 1077 307 1077 503 1077 c 4,56,57
 697 1077 697 1077 820 1032 c 4,44,45
820 1410 m 4,58,59
 941 1367 941 1367 941 1302 c 132,-1,60
 941 1237 941 1237 820 1193 c 4,61,62
 697 1148 697 1148 503 1148 c 132,-1,63
 309 1148 309 1148 186 1192 c 4,64,65
 65 1237 65 1237 62 1302 c 4,66,67
 62 1367 62 1367 186 1410 c 4,68,69
 307 1456 307 1456 503 1456 c 4,70,71
 697 1456 697 1456 820 1410 c 4,58,59
EndSplineSet
EndChar

StartChar: uni009E
Encoding: 158 158 119
Width: 1024
Flags: W
LayerCount: 2
Fore
SplineSet
820 276 m 0,0,1
 941 232 941 232 941 167.5 c 128,-1,2
 941 103 941 103 820 59 c 0,3,4
 697 13 697 13 503 13 c 128,-1,5
 309 13 309 13 186 57 c 0,6,7
 65 103 65 103 62 168 c 0,8,9
 62 232 62 232 186 276 c 0,10,11
 307 322 307 322 503 322 c 0,12,13
 697 322 697 322 820 276 c 0,0,1
817 166 m 0,14,15
 818 198 818 198 738 219 c 0,16,17
 658 242 658 242 519 242 c 0,18,19
 364 240 364 240 296 219 c 0,20,21
 218 196 218 196 217 166 c 0,22,23
 218 133 218 133 296 112 c 0,24,25
 379 89 379 89 519 89 c 0,26,27
 646 90 646 90 738 112 c 0,28,29
 818 131 818 131 817 166 c 0,14,15
820 655 m 0,30,31
 941 611 941 611 941 546.5 c 128,-1,32
 941 482 941 482 820 438 c 0,33,34
 697 392 697 392 503 392 c 128,-1,35
 309 392 309 392 186 436 c 0,36,37
 65 482 65 482 62 546 c 0,38,39
 62 611 62 611 186 655 c 0,40,41
 307 700 307 700 503 700 c 0,42,43
 697 700 697 700 820 655 c 0,30,31
820 1032 m 0,44,45
 941 988 941 988 941 923 c 128,-1,46
 941 858 941 858 820 815 c 0,47,48
 697 769 697 769 503 769 c 128,-1,49
 309 769 309 769 186 813 c 0,50,51
 65 858 65 858 62 923 c 0,52,53
 62 988 62 988 186 1032 c 0,54,55
 307 1077 307 1077 503 1077 c 0,56,57
 697 1077 697 1077 820 1032 c 0,44,45
820 1410 m 0,58,59
 941 1367 941 1367 941 1302 c 128,-1,60
 941 1237 941 1237 820 1193 c 0,61,62
 697 1148 697 1148 503 1148 c 128,-1,63
 309 1148 309 1148 186 1192 c 0,64,65
 65 1237 65 1237 62 1302 c 0,66,67
 62 1367 62 1367 186 1410 c 0,68,69
 307 1456 307 1456 503 1456 c 0,70,71
 697 1456 697 1456 820 1410 c 0,58,59
EndSplineSet
EndChar

StartChar: uni0080
Encoding: 128 128 120
Width: 1021
Flags: W
LayerCount: 2
Fore
SplineSet
247 618 m 0,0,1
 247 487 247 487 266.5 393.5 c 128,-1,2
 286 300 286 300 320.5 240 c 128,-1,3
 355 180 355 180 401.5 152 c 128,-1,4
 448 124 448 124 501 124 c 256,5,6
 554 124 554 124 600 152 c 128,-1,7
 646 180 646 180 680.5 240 c 128,-1,8
 715 300 715 300 734.5 393.5 c 128,-1,9
 754 487 754 487 754 618 c 0,10,11
 754 750 754 750 734.5 844 c 128,-1,12
 715 938 715 938 680.5 998.5 c 128,-1,13
 646 1059 646 1059 600 1087.5 c 128,-1,14
 554 1116 554 1116 501 1116 c 256,15,16
 448 1116 448 1116 401.5 1087.5 c 128,-1,17
 355 1059 355 1059 320.5 998.5 c 128,-1,18
 286 938 286 938 266.5 844 c 128,-1,19
 247 750 247 750 247 618 c 0,0,1
945 618 m 256,20,21
 945 476 945 476 916.5 361.5 c 128,-1,22
 888 247 888 247 832 167 c 128,-1,23
 776 87 776 87 693 43.5 c 128,-1,24
 610 0 610 0 501 0 c 0,25,26
 391 0 391 0 308 43.5 c 128,-1,27
 225 87 225 87 169.5 167 c 128,-1,28
 114 247 114 247 85.5 361.5 c 128,-1,29
 57 476 57 476 57 618 c 256,30,31
 57 760 57 760 85.5 875 c 128,-1,32
 114 990 114 990 169.5 1070.5 c 128,-1,33
 225 1151 225 1151 308 1194.5 c 128,-1,34
 391 1238 391 1238 501 1238 c 0,35,36
 610 1238 610 1238 693 1194.5 c 128,-1,37
 776 1151 776 1151 832 1070.5 c 128,-1,38
 888 990 888 990 916.5 875 c 128,-1,39
 945 760 945 760 945 618 c 256,20,21
EndSplineSet
EndChar

StartChar: uni0081
Encoding: 129 129 121
Width: 1021
Flags: W
LayerCount: 2
Fore
SplineSet
585 0 m 1,0,-1
 585 917 l 1,1,2
 507 840 507 840 400 801 c 128,-1,3
 293 762 293 762 159 762 c 1,4,-1
 159 910 l 1,5,6
 231 910 231 910 290.5 926 c 128,-1,7
 350 942 350 942 397 969 c 128,-1,8
 444 996 444 996 479.5 1030.5 c 128,-1,9
 515 1065 515 1065 538.5 1101 c 128,-1,10
 562 1137 562 1137 573.5 1173 c 128,-1,11
 585 1209 585 1209 585 1238 c 1,12,-1
 769 1238 l 1,13,-1
 769 0 l 1,14,-1
 585 0 l 1,0,-1
EndSplineSet
EndChar

StartChar: uni0082
Encoding: 130 130 122
Width: 1021
Flags: W
LayerCount: 2
Fore
SplineSet
74 853 m 1,0,1
 84 941 84 941 119.5 1012 c 128,-1,2
 155 1083 155 1083 213 1133 c 128,-1,3
 271 1183 271 1183 349 1210.5 c 128,-1,4
 427 1238 427 1238 522 1238 c 0,5,6
 621 1238 621 1238 696 1209 c 128,-1,7
 771 1180 771 1180 822 1131.5 c 128,-1,8
 873 1083 873 1083 898.5 1020.5 c 128,-1,9
 924 958 924 958 924 891 c 0,10,11
 924 822 924 822 893.5 762 c 128,-1,12
 863 702 863 702 814.5 650 c 128,-1,13
 766 598 766 598 706 552 c 128,-1,14
 646 506 646 506 587 466 c 0,15,16
 537 431 537 431 490 396 c 128,-1,17
 443 361 443 361 403 322.5 c 128,-1,18
 363 284 363 284 331 240.5 c 128,-1,19
 299 197 299 197 280 146 c 1,20,-1
 924 146 l 1,21,-1
 924 0 l 1,22,-1
 77 0 l 1,23,-1
 77 129 l 1,24,25
 97 202 97 202 139.5 264 c 128,-1,26
 182 326 182 326 237.5 380 c 128,-1,27
 293 434 293 434 355.5 480.5 c 128,-1,28
 418 527 418 527 477 568 c 0,29,30
 525 601 525 601 571 636 c 128,-1,31
 617 671 617 671 653 708 c 128,-1,32
 689 745 689 745 710.5 785 c 128,-1,33
 732 825 732 825 732 869 c 0,34,35
 732 930 732 930 715.5 976 c 128,-1,36
 699 1022 699 1022 670.5 1052.5 c 128,-1,37
 642 1083 642 1083 604 1098.5 c 128,-1,38
 566 1114 566 1114 522 1114 c 0,39,40
 469 1114 469 1114 425 1096 c 128,-1,41
 381 1078 381 1078 348 1044 c 128,-1,42
 315 1010 315 1010 295.5 962 c 128,-1,43
 276 914 276 914 273 853 c 1,44,-1
 74 853 l 1,0,1
EndSplineSet
EndChar

StartChar: uni0083
Encoding: 131 131 123
Width: 1021
Flags: W
LayerCount: 2
Fore
SplineSet
91 871 m 1,0,1
 104 943 104 943 134 1009.5 c 128,-1,2
 164 1076 164 1076 214.5 1126 c 128,-1,3
 265 1176 265 1176 337 1206 c 128,-1,4
 409 1236 409 1236 505 1236 c 0,5,6
 594 1236 594 1236 664.5 1212 c 128,-1,7
 735 1188 735 1188 784.5 1145.5 c 128,-1,8
 834 1103 834 1103 860.5 1044.5 c 128,-1,9
 887 986 887 986 887 918 c 0,10,11
 887 877 887 877 874.5 839 c 128,-1,12
 862 801 862 801 839 766.5 c 128,-1,13
 816 732 816 732 784 702.5 c 128,-1,14
 752 673 752 673 713 651 c 1,15,16
 761 630 761 630 803 600 c 128,-1,17
 845 570 845 570 876.5 531.5 c 128,-1,18
 908 493 908 493 926 445 c 128,-1,19
 944 397 944 397 944 340 c 0,20,21
 944 252 944 252 909.5 185 c 128,-1,22
 875 118 875 118 816.5 73 c 128,-1,23
 758 28 758 28 681 5 c 128,-1,24
 604 -18 604 -18 518 -18 c 0,25,26
 426 -18 426 -18 350 8.5 c 128,-1,27
 274 35 274 35 215.5 85.5 c 128,-1,28
 157 136 157 136 116.5 209.5 c 128,-1,29
 76 283 76 283 56 376 c 1,30,-1
 252 376 l 1,31,32
 266 299 266 299 295 247 c 128,-1,33
 324 195 324 195 360.5 164 c 128,-1,34
 397 133 397 133 438 120 c 128,-1,35
 479 107 479 107 518 107 c 0,36,37
 560 107 560 107 602 123.5 c 128,-1,38
 644 140 644 140 677.5 170.5 c 128,-1,39
 711 201 711 201 731.5 244 c 128,-1,40
 752 287 752 287 752 340 c 0,41,42
 752 391 752 391 735 435 c 128,-1,43
 718 479 718 479 685.5 512 c 128,-1,44
 653 545 653 545 607.5 564 c 128,-1,45
 562 583 562 583 505 583 c 2,46,-1
 397 583 l 1,47,-1
 397 718 l 1,48,-1
 505 718 l 2,49,50
 558 718 558 718 594.5 734.5 c 128,-1,51
 631 751 631 751 653.5 777.5 c 128,-1,52
 676 804 676 804 686 838 c 128,-1,53
 696 872 696 872 696 907 c 0,54,55
 696 1003 696 1003 644.5 1057.5 c 128,-1,56
 593 1112 593 1112 505 1112 c 0,57,58
 456 1112 456 1112 417.5 1091 c 128,-1,59
 379 1070 379 1070 351.5 1036 c 128,-1,60
 324 1002 324 1002 307 959 c 128,-1,61
 290 916 290 916 285 871 c 1,62,-1
 91 871 l 1,0,1
EndSplineSet
EndChar

StartChar: uni0084
Encoding: 132 132 124
Width: 1021
Flags: W
LayerCount: 2
Fore
SplineSet
597 0 m 1,0,-1
 597 301 l 1,1,-1
 42 301 l 1,2,-1
 42 457 l 1,3,-1
 596 1221 l 1,4,-1
 781 1221 l 1,5,-1
 781 424 l 1,6,-1
 958 424 l 1,7,-1
 958 301 l 1,8,-1
 781 301 l 1,9,-1
 781 0 l 1,10,-1
 597 0 l 1,0,-1
215 424 m 1,11,-1
 597 424 l 1,12,-1
 597 961 l 1,13,-1
 215 424 l 1,11,-1
EndSplineSet
EndChar

StartChar: uni0085
Encoding: 133 133 125
Width: 1021
Flags: W
LayerCount: 2
Fore
SplineSet
92 573 m 1,0,-1
 174 1221 l 1,1,-1
 876 1221 l 1,2,-1
 876 1095 l 1,3,-1
 332 1095 l 1,4,5
 326 1043 326 1043 320 992 c 128,-1,6
 314 941 314 941 306 889 c 0,7,8
 303 869 303 869 301 855.5 c 128,-1,9
 299 842 299 842 297.5 828.5 c 128,-1,10
 296 815 296 815 294 800 c 128,-1,11
 292 785 292 785 289 764 c 1,12,13
 323 782 323 782 357 791.5 c 128,-1,14
 391 801 391 801 422 805.5 c 128,-1,15
 453 810 453 810 478 811 c 128,-1,16
 503 812 503 812 518 812 c 0,17,18
 610 812 610 812 688 779.5 c 128,-1,19
 766 747 766 747 823 691 c 128,-1,20
 880 635 880 635 912 559.5 c 128,-1,21
 944 484 944 484 944 398 c 0,22,23
 944 318 944 318 916.5 243.5 c 128,-1,24
 889 169 889 169 832.5 110.5 c 128,-1,25
 776 52 776 52 689.5 17 c 128,-1,26
 603 -18 603 -18 486 -18 c 0,27,28
 408 -18 408 -18 338.5 3 c 128,-1,29
 269 24 269 24 213 66 c 128,-1,30
 157 108 157 108 116.5 171 c 128,-1,31
 76 234 76 234 56 318 c 1,32,-1
 249 318 l 1,33,34
 264 268 264 268 289.5 228.5 c 128,-1,35
 315 189 315 189 346.5 162 c 128,-1,36
 378 135 378 135 414.5 121 c 128,-1,37
 451 107 451 107 488 107 c 0,38,39
 542 107 542 107 590 129.5 c 128,-1,40
 638 152 638 152 674 191 c 128,-1,41
 710 230 710 230 731 283 c 128,-1,42
 752 336 752 336 752 398 c 0,43,44
 752 461 752 461 729.5 513.5 c 128,-1,45
 707 566 707 566 669.5 604 c 128,-1,46
 632 642 632 642 584.5 663 c 128,-1,47
 537 684 537 684 488 684 c 0,48,49
 461 684 461 684 431 676.5 c 128,-1,50
 401 669 401 669 372 654.5 c 128,-1,51
 343 640 343 640 316.5 619.5 c 128,-1,52
 290 599 290 599 269 573 c 1,53,-1
 92 573 l 1,0,-1
EndSplineSet
EndChar

StartChar: uni0086
Encoding: 134 134 126
Width: 1021
Flags: W
LayerCount: 2
Fore
SplineSet
742 929 m 1,0,1
 736 963 736 963 718 996 c 128,-1,2
 700 1029 700 1029 673 1055 c 128,-1,3
 646 1081 646 1081 610.5 1097.5 c 128,-1,4
 575 1114 575 1114 533 1114 c 0,5,6
 461 1114 461 1114 410 1075.5 c 128,-1,7
 359 1037 359 1037 325.5 976.5 c 128,-1,8
 292 916 292 916 274 840.5 c 128,-1,9
 256 765 256 765 249 691 c 1,10,11
 280 722 280 722 316 743 c 128,-1,12
 352 764 352 764 388.5 777 c 128,-1,13
 425 790 425 790 459.5 795.5 c 128,-1,14
 494 801 494 801 522 801 c 0,15,16
 617 801 617 801 693.5 769 c 128,-1,17
 770 737 770 737 823.5 681 c 128,-1,18
 877 625 877 625 906 549 c 128,-1,19
 935 473 935 473 935 384 c 0,20,21
 935 303 935 303 907 230 c 128,-1,22
 879 157 879 157 826 102 c 128,-1,23
 773 47 773 47 696.5 14.5 c 128,-1,24
 620 -18 620 -18 524 -18 c 0,25,26
 420 -18 420 -18 335.5 18.5 c 128,-1,27
 251 55 251 55 191 126.5 c 128,-1,28
 131 198 131 198 98.5 304 c 128,-1,29
 66 410 66 410 66 550 c 0,30,31
 66 728 66 728 99 858 c 128,-1,32
 132 988 132 988 192.5 1072.5 c 128,-1,33
 253 1157 253 1157 338.5 1197.5 c 128,-1,34
 424 1238 424 1238 529 1238 c 0,35,36
 617 1238 617 1238 685.5 1212 c 128,-1,37
 754 1186 754 1186 803.5 1143 c 128,-1,38
 853 1100 853 1100 882.5 1044.5 c 128,-1,39
 912 989 912 989 922 929 c 1,40,-1
 742 929 l 1,0,1
524 107 m 0,41,42
 572 107 572 107 612 129 c 128,-1,43
 652 151 652 151 681 188.5 c 128,-1,44
 710 226 710 226 726.5 276.5 c 128,-1,45
 743 327 743 327 743 384 c 0,46,47
 743 440 743 440 727 490.5 c 128,-1,48
 711 541 711 541 682 579.5 c 128,-1,49
 653 618 653 618 612.5 641 c 128,-1,50
 572 664 572 664 522 664 c 0,51,52
 463 664 463 664 419 638.5 c 128,-1,53
 375 613 375 613 346.5 572.5 c 128,-1,54
 318 532 318 532 304 483 c 128,-1,55
 290 434 290 434 290 387 c 0,56,57
 290 327 290 327 309.5 275.5 c 128,-1,58
 329 224 329 224 361 186.5 c 128,-1,59
 393 149 393 149 435.5 128 c 128,-1,60
 478 107 478 107 524 107 c 0,41,42
EndSplineSet
EndChar

StartChar: cent
Encoding: 162 162 127
Width: 975
Flags: W
LayerCount: 2
Fore
SplineSet
236 405 m 1,0,-1
 695 -35 l 1,1,-1
 589 -82 l 1,2,-1
 89 405 l 1,3,-1
 142 490 l 1,4,5
 191 491 191 491 253 502.5 c 128,-1,6
 315 514 315 514 372 539.5 c 128,-1,7
 429 565 429 565 473.5 606 c 128,-1,8
 518 647 518 647 533 709 c 1,9,-1
 108 709 l 1,10,-1
 108 812 l 1,11,-1
 535 812 l 1,12,13
 527 857 527 857 502 893.5 c 128,-1,14
 477 930 477 930 435.5 956 c 128,-1,15
 394 982 394 982 334.5 996.5 c 128,-1,16
 275 1011 275 1011 198 1011 c 2,17,-1
 108 1011 l 1,18,-1
 108 1118 l 1,19,-1
 836 1118 l 1,20,-1
 836 1011 l 1,21,-1
 498 1011 l 1,22,23
 559 982 559 982 595 927.5 c 128,-1,24
 631 873 631 873 641 812 c 1,25,-1
 836 812 l 1,26,-1
 836 709 l 1,27,-1
 640 709 l 1,28,29
 628 637 628 637 589 583 c 128,-1,30
 550 529 550 529 494.5 491.5 c 128,-1,31
 439 454 439 454 372 433 c 128,-1,32
 305 412 305 412 236 405 c 1,0,-1
EndSplineSet
EndChar

StartChar: sterling
Encoding: 163 163 128
Width: 806
Flags: W
LayerCount: 2
Fore
SplineSet
61 88 m 256,0,1
 61 125 61 125 87.5 150.5 c 128,-1,2
 114 176 114 176 151 176 c 256,3,4
 188 176 188 176 214 150.5 c 128,-1,5
 240 125 240 125 240 88 c 256,6,7
 240 51 240 51 214 25.5 c 128,-1,8
 188 0 188 0 151 0 c 256,9,10
 114 0 114 0 87.5 25.5 c 128,-1,11
 61 51 61 51 61 88 c 256,0,1
606 -48 m 1,12,13
 430 79 430 79 290.5 232 c 128,-1,14
 151 385 151 385 60 576 c 1,15,-1
 149 644 l 1,16,17
 155 630 155 630 161.5 617.5 c 128,-1,18
 168 605 168 605 175 592 c 0,19,20
 189 572 189 572 208 561 c 128,-1,21
 227 550 227 550 258 550 c 0,22,23
 278 550 278 550 294.5 560 c 128,-1,24
 311 570 311 570 322.5 583.5 c 128,-1,25
 334 597 334 597 340.5 612 c 128,-1,26
 347 627 347 627 347 638 c 2,27,-1
 347 998 l 1,28,-1
 0 998 l 1,29,-1
 0 1118 l 1,30,-1
 826 1118 l 1,31,-1
 826 998 l 1,32,-1
 467 998 l 1,33,-1
 467 611 l 2,34,35
 467 588 467 588 457.5 557 c 128,-1,36
 448 526 448 526 428.5 497.5 c 128,-1,37
 409 469 409 469 379 449.5 c 128,-1,38
 349 430 349 430 308 430 c 0,39,40
 292 430 292 430 272 435 c 1,41,42
 355 320 355 320 458 223 c 128,-1,43
 561 126 561 126 686 35 c 1,44,-1
 606 -48 l 1,12,13
EndSplineSet
EndChar

StartChar: uni009F
Encoding: 159 159 129
Width: 1024
Flags: W
LayerCount: 2
Fore
SplineSet
820 276 m 0,0,1
 941 232 941 232 941 167.5 c 128,-1,2
 941 103 941 103 820 59 c 0,3,4
 697 13 697 13 503 13 c 128,-1,5
 309 13 309 13 186 57 c 0,6,7
 65 103 65 103 62 168 c 0,8,9
 62 232 62 232 186 276 c 0,10,11
 307 322 307 322 503 322 c 0,12,13
 697 322 697 322 820 276 c 0,0,1
820 655 m 0,14,15
 941 611 941 611 941 546.5 c 128,-1,16
 941 482 941 482 820 438 c 0,17,18
 697 392 697 392 503 392 c 128,-1,19
 309 392 309 392 186 436 c 0,20,21
 65 482 65 482 62 546 c 0,22,23
 62 611 62 611 186 655 c 0,24,25
 307 700 307 700 503 700 c 0,26,27
 697 700 697 700 820 655 c 0,14,15
820 1032 m 0,28,29
 941 988 941 988 941 923 c 128,-1,30
 941 858 941 858 820 815 c 0,31,32
 697 769 697 769 503 769 c 128,-1,33
 309 769 309 769 186 813 c 0,34,35
 65 858 65 858 62 923 c 0,36,37
 62 988 62 988 186 1032 c 0,38,39
 307 1077 307 1077 503 1077 c 0,40,41
 697 1077 697 1077 820 1032 c 0,28,29
820 1410 m 0,42,43
 941 1367 941 1367 941 1302 c 128,-1,44
 941 1237 941 1237 820 1193 c 0,45,46
 697 1148 697 1148 503 1148 c 128,-1,47
 309 1148 309 1148 186 1192 c 0,48,49
 65 1237 65 1237 62 1302 c 0,50,51
 62 1367 62 1367 186 1410 c 0,52,53
 307 1456 307 1456 503 1456 c 0,54,55
 697 1456 697 1456 820 1410 c 0,42,43
EndSplineSet
EndChar

StartChar: currency
Encoding: 164 164 130
Width: 1124
Flags: W
LayerCount: 2
Fore
SplineSet
-24 980 m 5,0,-1
 -24 1118 l 5,1,-1
 1158 1118 l 5,2,-1
 1158 980 l 5,3,-1
 -24 980 l 5,0,-1
EndSplineSet
EndChar

StartChar: yen
Encoding: 165 165 131
Width: 0
Flags: W
LayerCount: 2
Fore
SplineSet
-488 1646 m 256,0,1
 -423 1646 -423 1646 -369 1631.5 c 128,-1,2
 -315 1617 -315 1617 -268.5 1590 c 128,-1,3
 -222 1563 -222 1563 -182 1525 c 128,-1,4
 -142 1487 -142 1487 -106 1439 c 1,5,-1
 -213 1319 l 1,6,7
 -222 1333 -222 1333 -246 1364 c 128,-1,8
 -270 1395 -270 1395 -305.5 1427 c 128,-1,9
 -341 1459 -341 1459 -387.5 1483.5 c 128,-1,10
 -434 1508 -434 1508 -488 1508 c 256,11,12
 -542 1508 -542 1508 -588 1483.5 c 128,-1,13
 -634 1459 -634 1459 -670 1427 c 128,-1,14
 -706 1395 -706 1395 -730 1364 c 128,-1,15
 -754 1333 -754 1333 -763 1319 c 1,16,-1
 -870 1439 l 1,17,18
 -834 1487 -834 1487 -794 1525 c 128,-1,19
 -754 1563 -754 1563 -707.5 1590 c 128,-1,20
 -661 1617 -661 1617 -607 1631.5 c 128,-1,21
 -553 1646 -553 1646 -488 1646 c 256,0,1
-617 1293 m 256,22,23
 -617 1316 -617 1316 -606.5 1336 c 128,-1,24
 -596 1356 -596 1356 -578.5 1370.5 c 128,-1,25
 -561 1385 -561 1385 -537.5 1393.5 c 128,-1,26
 -514 1402 -514 1402 -488 1402 c 0,27,28
 -461 1402 -461 1402 -437.5 1393.5 c 128,-1,29
 -414 1385 -414 1385 -396.5 1370.5 c 128,-1,30
 -379 1356 -379 1356 -368.5 1336 c 128,-1,31
 -358 1316 -358 1316 -358 1293 c 256,32,33
 -358 1270 -358 1270 -368.5 1250 c 128,-1,34
 -379 1230 -379 1230 -396.5 1215 c 128,-1,35
 -414 1200 -414 1200 -437.5 1191.5 c 128,-1,36
 -461 1183 -461 1183 -488 1183 c 0,37,38
 -514 1183 -514 1183 -537.5 1191.5 c 128,-1,39
 -561 1200 -561 1200 -578.5 1215 c 128,-1,40
 -596 1230 -596 1230 -606.5 1250 c 128,-1,41
 -617 1270 -617 1270 -617 1293 c 256,22,23
EndSplineSet
EndChar

StartChar: brokenbar
Encoding: 166 166 132
Width: 0
Flags: W
LayerCount: 2
Fore
SplineSet
-488 1183 m 256,0,1
 -553 1183 -553 1183 -607 1197.5 c 128,-1,2
 -661 1212 -661 1212 -707.5 1238.5 c 128,-1,3
 -754 1265 -754 1265 -794 1303 c 128,-1,4
 -834 1341 -834 1341 -870 1389 c 1,5,-1
 -763 1509 l 1,6,7
 -754 1495 -754 1495 -730 1464 c 128,-1,8
 -706 1433 -706 1433 -670 1401 c 128,-1,9
 -634 1369 -634 1369 -588 1344.5 c 128,-1,10
 -542 1320 -542 1320 -488 1320 c 256,11,12
 -434 1320 -434 1320 -387.5 1344.5 c 128,-1,13
 -341 1369 -341 1369 -305.5 1401 c 128,-1,14
 -270 1433 -270 1433 -246 1464 c 128,-1,15
 -222 1495 -222 1495 -213 1509 c 1,16,-1
 -106 1389 l 1,17,18
 -142 1341 -142 1341 -182 1303 c 128,-1,19
 -222 1265 -222 1265 -268.5 1238.5 c 128,-1,20
 -315 1212 -315 1212 -369 1197.5 c 128,-1,21
 -423 1183 -423 1183 -488 1183 c 256,0,1
-617 1536 m 0,22,23
 -617 1558 -617 1558 -606.5 1578 c 128,-1,24
 -596 1598 -596 1598 -578.5 1613 c 128,-1,25
 -561 1628 -561 1628 -537.5 1637 c 128,-1,26
 -514 1646 -514 1646 -488 1646 c 0,27,28
 -461 1646 -461 1646 -437.5 1637 c 128,-1,29
 -414 1628 -414 1628 -396.5 1613 c 128,-1,30
 -379 1598 -379 1598 -368.5 1578 c 128,-1,31
 -358 1558 -358 1558 -358 1536 c 0,32,33
 -358 1513 -358 1513 -368.5 1493 c 128,-1,34
 -379 1473 -379 1473 -396.5 1458 c 128,-1,35
 -414 1443 -414 1443 -437.5 1434.5 c 128,-1,36
 -461 1426 -461 1426 -488 1426 c 0,37,38
 -514 1426 -514 1426 -537.5 1434.5 c 128,-1,39
 -561 1443 -561 1443 -578.5 1458 c 128,-1,40
 -596 1473 -596 1473 -606.5 1493 c 128,-1,41
 -617 1513 -617 1513 -617 1536 c 0,22,23
EndSplineSet
EndChar

StartChar: section
Encoding: 167 167 133
Width: 0
Flags: W
LayerCount: 2
Fore
SplineSet
-341 1503 m 256,0,1
 -341 1523 -341 1523 -331.5 1540.5 c 128,-1,2
 -322 1558 -322 1558 -306 1571 c 128,-1,3
 -290 1584 -290 1584 -268.5 1591.5 c 128,-1,4
 -247 1599 -247 1599 -223 1599 c 256,5,6
 -199 1599 -199 1599 -177.5 1591.5 c 128,-1,7
 -156 1584 -156 1584 -140 1571 c 128,-1,8
 -124 1558 -124 1558 -115 1540.5 c 128,-1,9
 -106 1523 -106 1523 -106 1503 c 256,10,11
 -106 1483 -106 1483 -115 1465.5 c 128,-1,12
 -124 1448 -124 1448 -140 1435 c 128,-1,13
 -156 1422 -156 1422 -177.5 1414.5 c 128,-1,14
 -199 1407 -199 1407 -223 1407 c 256,15,16
 -247 1407 -247 1407 -268.5 1414.5 c 128,-1,17
 -290 1422 -290 1422 -306 1435 c 128,-1,18
 -322 1448 -322 1448 -331.5 1465.5 c 128,-1,19
 -341 1483 -341 1483 -341 1503 c 256,0,1
EndSplineSet
EndChar

StartChar: dieresis
Encoding: 168 168 134
Width: 1045
Flags: W
LayerCount: 2
Fore
SplineSet
157 96 m 256,0,1
 157 116 157 116 166.5 134 c 128,-1,2
 176 152 176 152 192 165 c 128,-1,3
 208 178 208 178 229.5 185.5 c 128,-1,4
 251 193 251 193 275 193 c 256,5,6
 299 193 299 193 320.5 185.5 c 128,-1,7
 342 178 342 178 358 165 c 128,-1,8
 374 152 374 152 383 134 c 128,-1,9
 392 116 392 116 392 96 c 256,10,11
 392 76 392 76 383 58.5 c 128,-1,12
 374 41 374 41 358 28 c 128,-1,13
 342 15 342 15 320.5 7.5 c 128,-1,14
 299 0 299 0 275 0 c 256,15,16
 251 0 251 0 229.5 7.5 c 128,-1,17
 208 15 208 15 192 28 c 128,-1,18
 176 41 176 41 166.5 58.5 c 128,-1,19
 157 76 157 76 157 96 c 256,0,1
1085 990 m 1,20,-1
 869 990 l 1,21,-1
 869 10 l 1,22,-1
 692 10 l 1,23,-1
 692 593 l 1,24,-1
 406 593 l 2,25,26
 404 593 404 593 404 552 c 2,27,-1
 404 484 l 2,28,29
 404 479 404 479 401 468.5 c 128,-1,30
 398 458 398 458 389 446.5 c 128,-1,31
 380 435 380 435 362.5 426.5 c 128,-1,32
 345 418 345 418 317 418 c 0,33,34
 290 418 290 418 259 429 c 128,-1,35
 228 440 228 440 197 459 c 128,-1,36
 166 478 166 478 137.5 503 c 128,-1,37
 109 528 109 528 87 555 c 128,-1,38
 65 582 65 582 52 609.5 c 128,-1,39
 39 637 39 637 39 662 c 0,40,41
 39 692 39 692 62.5 711 c 128,-1,42
 86 730 86 730 132 730 c 2,43,-1
 692 730 l 1,44,-1
 692 990 l 1,45,-1
 -20 990 l 1,46,-1
 -20 1128 l 1,47,-1
 1085 1128 l 1,48,-1
 1085 990 l 1,20,-1
EndSplineSet
EndChar

StartChar: copyright
Encoding: 169 169 135
Width: 1327
Flags: W
LayerCount: 2
Fore
SplineSet
1040.6484375 1229.31542969 m 4,0,1
 1076.34570312 1273.96386719 1076.34570312 1273.96386719 1129.02050781 1274.16113281 c 132,-1,2
 1181.69726562 1274.36132812 1181.69726562 1274.36132812 1217.86230469 1229.98339844 c 4,3,4
 1255.66992188 1184.87695312 1255.66992188 1184.87695312 1256.04492188 1113.50878906 c 132,-1,5
 1256.42089844 1042.14160156 1256.42089844 1042.14160156 1220.72851562 996.7578125 c 4,6,7
 1183.39550781 952.1015625 1183.39550781 952.1015625 1130.31640625 950.80078125 c 4,8,9
 1078.05175781 950.602539062 1078.05175781 950.602539062 1041.87597656 996.083007812 c 4,10,11
 1004.07519531 1040.45507812 1004.07519531 1040.45507812 1003.69726562 1112.55957031 c 4,12,13
 1003.31933594 1183.92773438 1003.31933594 1183.92773438 1040.6484375 1229.31542969 c 4,0,1
731.1328125 1228.15136719 m 4,14,15
 766.829101562 1272.79980469 766.829101562 1272.79980469 819.5078125 1272.99804688 c 132,-1,16
 872.180664062 1273.19433594 872.180664062 1273.19433594 908.348632812 1228.81933594 c 4,17,18
 946.154296875 1183.7109375 946.154296875 1183.7109375 946.53125 1112.34375 c 132,-1,19
 946.907226562 1040.97558594 946.907226562 1040.97558594 911.211914062 995.592773438 c 4,20,21
 873.87890625 950.939453125 873.87890625 950.939453125 821.619140625 949.639648438 c 4,22,23
 768.537109375 949.438476562 768.537109375 949.438476562 732.36328125 994.919921875 c 4,24,25
 695.37890625 1039.29296875 695.37890625 1039.29296875 695.000976562 1111.3984375 c 4,26,27
 694.623046875 1182.76367188 694.623046875 1182.76367188 731.1328125 1228.15136719 c 4,14,15
821.788085938 1227.38964844 m 4,28,29
 794.834960938 1227.65429688 794.834960938 1227.65429688 777.841796875 1198.16015625 c 4,30,31
 759.213867188 1168.66113281 759.213867188 1168.66113281 759.481445312 1117.52636719 c 4,32,33
 761.416992188 1060.51171875 761.416992188 1060.51171875 778.697265625 1035.56152344 c 4,34,35
 797.6328125 1006.9375 797.6328125 1006.9375 822.952148438 1006.66601562 c 4,36,37
 849.083007812 1007.13183594 849.083007812 1007.13183594 866.8984375 1035.89355469 c 4,38,39
 884.703125 1066.49316406 884.703125 1066.49316406 884.432617188 1117.99609375 c 4,40,41
 884.185546875 1164.71582031 884.185546875 1164.71582031 866.040039062 1198.49316406 c 4,42,43
 849.552734375 1227.86132812 849.552734375 1227.86132812 821.788085938 1227.38964844 c 4,28,29
423.251953125 1226.99316406 m 4,44,45
 458.951171875 1271.640625 458.951171875 1271.640625 512.034179688 1271.83886719 c 132,-1,46
 565.1171875 1272.04003906 565.1171875 1272.04003906 600.46875 1227.66015625 c 4,47,48
 638.2734375 1182.55273438 638.2734375 1182.55273438 638.6484375 1111.18652344 c 132,-1,49
 639.026367188 1039.81640625 639.026367188 1039.81640625 603.33203125 994.43359375 c 4,50,51
 566.815429688 949.784179688 566.815429688 949.784179688 513.73828125 948.48046875 c 4,52,53
 460.658203125 948.28125 460.658203125 948.28125 424.481445312 993.760742188 c 4,54,55
 387.497070312 1038.13476562 387.497070312 1038.13476562 387.118164062 1110.24023438 c 4,56,57
 386.740234375 1181.60644531 386.740234375 1181.60644531 423.251953125 1226.99316406 c 4,44,45
114.555664062 1225.83300781 m 4,58,59
 149.439453125 1270.47753906 149.439453125 1270.47753906 202.51953125 1270.67578125 c 132,-1,60
 255.603515625 1270.87597656 255.603515625 1270.87597656 291.766601562 1226.49804688 c 4,61,62
 328.758789062 1181.38769531 328.758789062 1181.38769531 329.133789062 1110.02050781 c 132,-1,63
 329.51171875 1038.65234375 329.51171875 1038.65234375 293.817382812 993.268554688 c 4,64,65
 257.30078125 948.618164062 257.30078125 948.618164062 204.224609375 947.314453125 c 4,66,67
 151.142578125 947.116210938 151.142578125 947.116210938 115.784179688 992.598632812 c 4,68,69
 77.984375 1036.96972656 77.984375 1036.96972656 77.603515625 1109.07421875 c 4,70,71
 77.2275390625 1180.44140625 77.2275390625 1180.44140625 114.555664062 1225.83300781 c 4,58,59
931.014648438 851.056640625 m 1,72,73
 1002.64453125 836.147460938 1002.64453125 836.147460938 1068.32324219 804.389648438 c 128,-1,74
 1134.00195312 772.631835938 1134.00195312 772.631835938 1182.64160156 720.821289062 c 128,-1,75
 1231.28125 669.009765625 1231.28125 669.009765625 1259.35644531 596.237304688 c 128,-1,76
 1287.43164062 523.46484375 1287.43164062 523.46484375 1284.87890625 427.499023438 c 0,77,78
 1282.51269531 338.530273438 1282.51269531 338.530273438 1256.64746094 268.693359375 c 128,-1,79
 1230.78125 198.856445312 1230.78125 198.856445312 1186.98046875 150.50390625 c 128,-1,80
 1143.1796875 102.151367188 1143.1796875 102.151367188 1083.99511719 77.2158203125 c 128,-1,81
 1024.81152344 52.2802734375 1024.81152344 52.2802734375 956.8359375 54.0888671875 c 0,82,83
 915.850585938 55.1787109375 915.850585938 55.1787109375 878.196289062 68.6845703125 c 128,-1,84
 840.541992188 82.1904296875 840.541992188 82.1904296875 806.665039062 106.099609375 c 128,-1,85
 772.7890625 130.008789062 772.7890625 130.008789062 744.150390625 162.78125 c 128,-1,86
 715.51171875 195.5546875 715.51171875 195.5546875 694.556640625 235.125976562 c 1,87,88
 672.287109375 187.701171875 672.287109375 187.701171875 641.181640625 146.513671875 c 128,-1,89
 610.075195312 105.326171875 610.075195312 105.326171875 570.751953125 74.8603515625 c 128,-1,90
 531.427734375 44.3955078125 531.427734375 44.3955078125 482.965820312 27.677734375 c 128,-1,91
 434.504882812 10.9599609375 434.504882812 10.9599609375 377.524414062 12.4755859375 c 0,92,93
 289.555664062 14.8154296875 289.555664062 14.8154296875 223.497070312 51.083984375 c 128,-1,94
 157.4375 87.353515625 157.4375 87.353515625 114.008789062 147.029296875 c 128,-1,95
 70.580078125 206.705078125 70.580078125 206.705078125 49.6357421875 284.2890625 c 128,-1,96
 28.6904296875 361.873046875 28.6904296875 361.873046875 30.9765625 447.842773438 c 0,97,98
 33.4228515625 539.810546875 33.4228515625 539.810546875 61.9345703125 615.079101562 c 128,-1,99
 90.4453125 690.34765625 90.4453125 690.34765625 142.482421875 747.484375 c 128,-1,100
 194.520507812 804.62109375 194.520507812 804.62109375 269.071289062 843.15234375 c 128,-1,101
 343.622070312 881.684570312 343.622070312 881.684570312 437.12109375 899.204101562 c 1,102,-1
 431.91015625 703.2734375 l 1,103,104
 354.564453125 691.326171875 354.564453125 691.326171875 301.8125 663.71875 c 128,-1,105
 249.059570312 636.111328125 249.059570312 636.111328125 217.099609375 600.448242188 c 128,-1,106
 185.140625 564.78515625 185.140625 564.78515625 171.0546875 524.145507812 c 128,-1,107
 156.969726562 483.505859375 156.969726562 483.505859375 155.932617188 444.51953125 c 0,108,109
 154.81640625 402.534179688 154.81640625 402.534179688 170.193359375 360.110351562 c 128,-1,110
 185.571289062 317.686523438 185.571289062 317.686523438 215.169921875 283.387695312 c 128,-1,111
 244.768554688 249.088867188 244.768554688 249.088867188 287.208007812 227.453125 c 128,-1,112
 329.6484375 205.81640625 329.6484375 205.81640625 382.62890625 204.407226562 c 0,113,114
 433.611328125 203.051757812 433.611328125 203.051757812 478.047851562 218.875976562 c 128,-1,115
 522.484375 234.700195312 522.484375 234.700195312 556.336914062 266.311523438 c 128,-1,116
 590.188476562 297.922851562 590.188476562 297.922851562 610.391601562 342.901367188 c 128,-1,117
 630.594726562 387.879882812 630.594726562 387.879882812 632.110351562 444.860351562 c 2,118,-1
 634.981445312 552.821289062 l 1,119,-1
 769.93359375 549.232421875 l 1,120,-1
 767.0625 441.270507812 l 2,121,122
 765.653320312 388.2890625 765.653320312 388.2890625 781.176757812 351.36328125 c 128,-1,123
 796.701171875 314.4375 796.701171875 314.4375 822.59375 291.241210938 c 128,-1,124
 848.485351562 268.044921875 848.485351562 268.044921875 882.208007812 257.14453125 c 128,-1,125
 915.9296875 246.244140625 915.9296875 246.244140625 950.91796875 245.313476562 c 0,126,127
 1046.88378906 242.760742188 1046.88378906 242.760742188 1102.73339844 292.793945312 c 128,-1,128
 1158.58398438 342.827148438 1158.58398438 342.827148438 1160.92285156 430.795898438 c 0,129,130
 1162.22558594 479.778320312 1162.22558594 479.778320312 1142.25683594 518.823242188 c 128,-1,131
 1122.28808594 557.868164062 1122.28808594 557.868164062 1089.03125 586.26171875 c 128,-1,132
 1055.77441406 614.65625 1055.77441406 614.65625 1013.24121094 632.79296875 c 128,-1,133
 970.708984375 650.930664062 970.708984375 650.930664062 925.857421875 657.125 c 1,134,-1
 931.014648438 851.056640625 l 1,72,73
EndSplineSet
EndChar

StartChar: ordfeminine
Encoding: 170 170 136
Width: 1020
Flags: W
LayerCount: 2
Fore
SplineSet
814 1123 m 0,0,1
 831 1089 831 1089 831 1037 c 0,2,3
 831 988 831 988 814 951 c 0,4,5
 796 916 796 916 769.5 916 c 128,-1,6
 743 916 743 916 725 951 c 0,7,8
 708 988 708 988 708 1037 c 0,9,10
 708 1089 708 1089 725 1123 c 0,11,12
 743 1159 743 1159 769.5 1159 c 128,-1,13
 796 1159 796 1159 814 1123 c 0,0,1
651 1173 m 0,14,15
 678 1116 678 1116 678 1040 c 128,-1,16
 678 964 678 964 651 908 c 0,17,18
 624 853 624 853 579 853 c 256,19,20
 534 853 534 853 507 907 c 0,21,22
 479 962 479 962 479 1040 c 0,23,24
 479 1116 479 1116 507 1173 c 0,25,26
 534 1227 534 1227 578.5 1227 c 128,-1,27
 623 1227 623 1227 651 1173 c 0,14,15
622 1040 m 0,28,29
 622 1084 622 1084 610 1113 c 0,30,31
 599 1141 599 1141 579 1141 c 0,32,33
 560 1141 560 1141 546 1113 c 0,34,35
 535 1084 535 1084 535 1040 c 0,36,37
 535 998 535 998 546 968 c 0,38,39
 559 939 559 939 579 939 c 128,-1,40
 599 939 599 939 610 968 c 0,41,42
 622 994 622 994 622 1040 c 0,28,29
422 1123 m 0,43,44
 439 1089 439 1089 439 1037 c 0,45,46
 439 988 439 988 422 951 c 0,47,48
 404 916 404 916 378 916 c 0,49,50
 350 916 350 916 333 951 c 0,51,52
 316 988 316 988 316 1037 c 0,53,54
 316 1089 316 1089 333 1123 c 0,55,56
 349 1159 349 1159 378 1159 c 0,57,58
 404 1159 404 1159 422 1123 c 0,43,44
242 1123 m 0,59,60
 260 1089 260 1089 260 1037 c 0,61,62
 260 988 260 988 242 951 c 0,63,64
 226 916 226 916 198 916 c 0,65,66
 171 916 171 916 154 951 c 0,67,68
 137 988 137 988 137 1037 c 0,69,70
 137 1089 137 1089 154 1123 c 0,71,72
 171 1159 171 1159 198 1159 c 0,73,74
 227 1159 227 1159 242 1123 c 0,59,60
872 668 m 2,75,-1
 867 423 l 1,76,-1
 872 153 l 2,77,78
 873 112 873 112 859 82 c 0,79,80
 845 54 845 54 824 54 c 0,81,82
 784 54 784 54 718 166 c 0,83,84
 643 286 643 286 603 343 c 1,85,86
 578 187 578 187 517 98 c 0,87,88
 454 7 454 7 376 7 c 0,89,90
 280 7 280 7 207 121 c 0,91,92
 134 233 134 233 134 428 c 0,93,94
 134 575 134 575 183 689 c 0,95,96
 230 801 230 801 272 801 c 0,97,98
 286 801 286 801 296 785 c 0,99,100
 308 767 308 767 308 744 c 0,101,102
 308 723 308 723 294 691 c 0,103,104
 282 663 282 663 263 631 c 0,105,106
 245 598 245 598 231 546 c 0,107,108
 217 491 217 491 217 431 c 0,109,110
 217 317 217 317 262 237 c 1,111,112
 309 163 309 163 373 163 c 0,113,114
 441 163 441 163 482 242 c 0,115,116
 524 324 524 324 530 429 c 1,117,118
 497 484 497 484 487 519 c 0,119,120
 475 556 475 556 475 595 c 0,121,122
 475 637 475 637 490 660 c 0,123,124
 503 683 503 683 528 683 c 0,125,126
 552 683 552 683 576 639 c 0,127,128
 599 595 599 595 610 507 c 1,129,130
 694 379 694 379 786 252 c 1,131,132
 789 299 789 299 789 390 c 0,133,134
 789 493 789 493 785 570 c 0,135,136
 782 658 782 658 782 686 c 0,137,138
 782 715 782 715 794 738 c 0,139,140
 805 765 805 765 827 765 c 128,-1,141
 849 765 849 765 860 738 c 0,142,143
 873 709 873 709 872 668 c 2,75,-1
EndSplineSet
EndChar

StartChar: guillemotleft
Encoding: 171 171 137
Width: 1549
Flags: W
LayerCount: 2
Fore
SplineSet
763 943 m 1,0,1
 694 707 694 707 624 471 c 128,-1,2
 554 235 554 235 485 0 c 1,3,-1
 294 0 l 1,4,-1
 -24 1262 l 1,5,-1
 172 1262 l 1,6,-1
 396 355 l 1,7,8
 465 582 465 582 535.5 809 c 128,-1,9
 606 1036 606 1036 675 1262 c 1,10,-1
 853 1262 l 1,11,-1
 1128 363 l 1,12,13
 1152 457 1152 457 1174 545 c 128,-1,14
 1196 633 1196 633 1221 728 c 0,15,16
 1255 861 1255 861 1289 996 c 128,-1,17
 1323 1131 1323 1131 1355 1262 c 1,18,-1
 1551 1262 l 1,19,-1
 1232 0 l 1,20,-1
 1042 0 l 1,21,-1
 763 943 l 1,0,1
EndSplineSet
EndChar

